<?xml version="1.0" encoding="UTF-8"?>
<svg width="748px" height="247px" viewBox="0 0 748 247" version="1.1" xmlns="http://www.w3.org/2000/svg" xmlns:xlink="http://www.w3.org/1999/xlink">
    <!-- Generator: Sketch 43.2 (39069) - http://www.bohemiancoding.com/sketch -->
    <title>Group 3 Copy</title>
    <desc>Created with Sketch.</desc>
    <defs>
        <polygon id="path-1" points="0 246.913617 623 246.913617 623 0 0 0"></polygon>
    </defs>
    <g id="Page-1" stroke="none" stroke-width="1" fill="none" fill-rule="evenodd">
        <g id="Group-3-Copy">
            <g id="Page-1" transform="translate(40.000000, 0.000000)">
                <path d="M333.861924,127.998369 L343.011394,121.112063 C344.995015,119.620615 347.793121,121.263233 347.460045,123.725134 L352.363136,123.506479 C358.492,123.233834 364.105742,126.923987 366.288939,132.663025 L367.131742,134.879277 C367.67653,136.311337 367.355591,137.929659 366.303773,139.045883 C365.064515,140.357817 363.099773,140.677703 361.509909,139.821976 L360.280091,139.16061 C355.256985,136.457107 349.249485,136.304588 344.098273,138.752992 L341.166667,140.14591 L333.861924,127.998369 Z" id="Fill-1" fill="#FEC524"></path>
                <mask id="mask-2" fill="white">
                    <use xlink:href="#path-1"></use>
                </mask>
                <g id="Clip-4"></g>
                <polygon id="Fill-3" fill="#FEC524" mask="url(#mask-2)" points="261.4375 88.9132514 290.29103 88.9132514 290.29103 57.5321038 261.4375 57.5321038"></polygon>
                <path d="M342.17803,140.708746 L334.424242,126.536615 L318.916667,133.622681 L312.058273,101.129358 C309.943848,91.1116863 304.682061,82.033424 297.045591,75.2227027 L290.261364,69.1732273 L284.867424,81.3207683 L261.4375,64.1117519 L239.018939,85.0325169 L242.05303,189.29891 L298.015152,178.163664 L342.17803,140.708746 Z" id="Fill-5" fill="#FFE509" mask="url(#mask-2)"></path>
                <path d="M235.703015,171.752462 L235.703015,171.752462 C218.451848,171.752462 204.468061,157.755796 204.468061,140.488741 L204.468061,106.078807 C204.468061,88.8131016 218.451848,74.8150852 235.703015,74.8150852 C252.952833,74.8150852 266.93797,88.8131016 266.93797,106.078807 L266.93797,140.488741 C266.93797,157.755796 252.952833,171.752462 235.703015,171.752462" id="Fill-6" fill="#FD9805" mask="url(#mask-2)"></path>
                <path d="M279.66052,224.054375 L188.509686,224.054375 L188.509686,174.140129 C188.509686,156.424965 202.857565,142.062522 220.556429,142.062522 L247.613777,142.062522 C265.312641,142.062522 279.66052,156.424965 279.66052,174.140129 L279.66052,224.054375 Z" id="Fill-7" fill="#FEC524" mask="url(#mask-2)"></path>
                <path d="M263.294364,224.054375 L204.876652,224.054375 L204.876652,166.662643 C204.876652,153.077643 215.880288,142.062522 229.454136,142.062522 L238.71553,142.062522 C252.290727,142.062522 263.294364,153.077643 263.294364,166.662643 L263.294364,224.054375 Z" id="Fill-8" fill="#FEC524" mask="url(#mask-2)"></path>
                <path d="M263.294364,178.104411 L263.294364,207.672876 L228.231061,207.672876 L228.231061,224.05451 L263.294364,224.05451 L266.316318,224.05451 C273.687136,224.05451 279.660924,218.07387 279.660924,210.697614 L279.660924,207.672876 L279.660924,178.104411 L263.294364,178.104411 Z" id="Fill-9" fill="#FFE509" mask="url(#mask-2)"></path>
                <path d="M276.664591,63.3248612 L292.559182,63.3248612 C297.057727,63.3248612 300.70403,59.6738503 300.70403,55.1711617 L300.70403,47.5249596 L301.951379,47.5249596 C302.559545,47.5249596 302.970833,46.9027355 302.729455,46.3425989 L300.70403,41.6158557 L300.70403,27.7933038 L293.801136,21.0892109 L261.4375,21.0892109 L261.4375,64.1117519 L276.664591,63.3248612 Z" id="Fill-10" fill="#FEC524" mask="url(#mask-2)"></path>
                <path d="M234.174103,151.610625 L228.674982,151.610625 C226.120952,151.610625 224.051027,149.538794 224.051027,146.982411 L224.051027,140.343105 L238.799406,140.343105 L238.799406,146.982411 C238.799406,149.538794 236.729482,151.610625 234.174103,151.610625" id="Fill-11" fill="#FFE509" mask="url(#mask-2)"></path>
                <path d="M261.159577,114.963788 C261.159577,129.930908 249.038047,142.062252 234.086047,142.062252 C219.132698,142.062252 207.011168,129.930908 207.011168,114.963788 C207.011168,99.9966678 219.132698,87.8639738 234.086047,87.8639738 C249.038047,87.8639738 261.159577,99.9966678 261.159577,114.963788" id="Fill-12" fill="#FFE509" mask="url(#mask-2)"></path>
                <path d="M235.546321,74.8146803 C218.261442,74.8997131 204.467791,89.3566366 204.467791,106.658784 L204.467791,110.297648 C204.469139,110.298997 204.471836,110.300347 204.473185,110.303046 L204.467791,110.303046 L204.467791,153.694063 C204.467791,156.402964 206.661776,158.59897 209.368185,158.59897 C212.074594,158.59897 214.26723,156.402964 214.26723,153.694063 L214.26723,124.630396 C212.628821,124.820708 210.831291,124.506221 208.409412,120.443544 C208.093867,119.911751 207.905079,119.301675 207.936094,118.68485 C208.095215,115.685757 210.572382,113.303489 213.607821,113.303489 C214.05417,113.303489 214.485685,113.360178 214.901018,113.457358 C220.734564,112.939063 225.572927,108.992462 227.371806,103.625948 C231.620882,110.104637 238.939109,114.38462 247.260609,114.38462 C255.398715,114.38462 262.579397,110.289549 266.864882,104.048413 C265.814412,87.6775765 252.185276,74.7336967 235.546321,74.8146803" id="Fill-13" fill="#FD9805" mask="url(#mask-2)"></path>
                <path d="M228.782861,118.63464 C228.782861,119.659083 227.953542,120.489164 226.930042,120.489164 C225.906542,120.489164 225.077224,119.659083 225.077224,118.63464 C225.077224,117.610197 225.906542,116.780115 226.930042,116.780115 C227.953542,116.780115 228.782861,117.610197 228.782861,118.63464" id="Fill-14" fill="#3A3A62" mask="url(#mask-2)"></path>
                <path d="M248.368794,118.63464 C248.368794,119.659083 247.539476,120.489164 246.515976,120.489164 C245.492476,120.489164 244.663158,119.659083 244.663158,118.63464 C244.663158,117.610197 245.492476,116.780115 246.515976,116.780115 C247.539476,116.780115 248.368794,117.610197 248.368794,118.63464" id="Fill-15" fill="#3A3A62" mask="url(#mask-2)"></path>
                <path d="M238.793742,135.435094 L235.062485,135.435094 C233.33103,135.435094 231.927258,134.030028 231.927258,132.296979 L231.927258,129.108925 L241.92897,129.108925 L241.92897,132.296979 C241.92897,134.030028 240.525197,135.435094 238.793742,135.435094" id="Fill-16" fill="#3A3A62" mask="url(#mask-2)"></path>
                <path d="M261.4375,53.3139377 L261.4375,53.3139377 C256.875576,53.3139377 253.17803,49.6129869 253.17803,45.0468612 L253.17803,29.0472 C253.17803,15.7078503 263.983439,4.89248962 277.310515,4.89248962 L299.363636,4.89248962 C299.363636,2.19033661 301.552227,-0.000269945355 304.251894,-0.000269945355 C308.255545,-0.000269945355 311.5,3.24717268 311.5,7.25451148 L311.5,16.0547301 C311.5,22.5617628 306.228773,27.8378448 299.727727,27.8378448 L282.339015,27.8378448 L272.056818,38.1295115 L270.959152,37.0308339 C269.102288,35.1722601 266.131576,35.0480852 264.129076,36.7460415 C262.351773,38.2509869 261.833955,40.7776754 262.873636,42.8616536 L264.977273,47.0714514 L261.4375,53.3139377 Z" id="Fill-17" fill="#FD9805" mask="url(#mask-2)"></path>
                <path d="M278.587261,146.47019 L278.587261,132.972922 L293.512291,127.225786 C296.42367,126.105513 299.720715,126.826267 301.898518,129.060064 L310.61917,137.996605 C311.59817,138.999452 311.472761,140.636671 310.35217,141.478901 C309.592973,142.048485 308.565427,142.098425 307.754988,141.605775 L305.063412,139.973955 C304.182852,139.439463 303.055518,139.609529 302.379927,140.386972 C300.678139,142.345425 297.658882,145.746737 297.297488,145.626611 C296.791806,145.457895 287.015291,143.602021 287.015291,143.602021 L278.587261,146.47019 Z" id="Fill-18" fill="#FEC524" mask="url(#mask-2)"></path>
                <path d="M373.490792,159.88175 L363.07105,155.136111 C360.813686,154.108969 358.434959,156.317122 359.292595,158.64945 L354.458277,159.497078 C348.414368,160.555264 343.73108,165.372439 342.838383,171.447559 L342.493171,173.793384 C342.269323,175.311827 342.932777,176.822171 344.200353,177.681947 C345.694474,178.696942 347.680792,178.582215 349.049505,177.402554 L350.106717,176.491488 C354.425914,172.766242 360.259459,171.320685 365.819262,172.596177 L368.981459,173.32233 L373.490792,159.88175 Z" id="Fill-19" fill="#FEC524" mask="url(#mask-2)"></path>
                <polygon id="Fill-20" fill="#FEC524" mask="url(#mask-2)" points="399.364845 114.118859 420.260967 109.490646 413.487527 78.8504984 392.591406 83.4800612"></polygon>
                <path d="M373.490792,159.88175 L382.656444,115.008734 C382.582277,107.32339 384.969095,99.8148596 389.463595,93.583171 L393.455111,88.0465918 L399.376308,96.0761164 L413.761944,79.6566902 L433.584671,91.3534224 L448.257535,168.271652 L405.433702,169.194865" id="Fill-21" fill="#FFE509" mask="url(#mask-2)"></path>
                <path d="M444.631324,171.752462 L444.631324,171.752462 C461.881142,171.752462 475.866279,157.755796 475.866279,140.488741 L475.866279,106.078807 C475.866279,88.8131016 461.881142,74.8150852 444.631324,74.8150852 C427.380158,74.8150852 413.39637,88.8131016 413.39637,106.078807 L413.39637,140.488741 C413.39637,157.755796 427.380158,171.752462 444.631324,171.752462" id="Fill-22" fill="#FD9805" mask="url(#mask-2)"></path>
                <path d="M400.672471,224.054375 L491.824653,224.054375 L491.824653,174.140129 C491.824653,156.424965 477.475426,142.062522 459.776562,142.062522 L432.719214,142.062522 C415.02035,142.062522 400.672471,156.424965 400.672471,174.140129 L400.672471,224.054375 Z" id="Fill-23" fill="#FEC524" mask="url(#mask-2)"></path>
                <path d="M417.038627,224.054375 L475.456339,224.054375 L475.456339,166.662643 C475.456339,153.077643 464.452703,142.062522 450.878855,142.062522 L441.617461,142.062522 C428.042264,142.062522 417.038627,153.077643 417.038627,166.662643 L417.038627,224.054375 Z" id="Fill-24" fill="#FEC524" mask="url(#mask-2)"></path>
                <path d="M475.456744,178.104411 L475.456744,207.672876 L440.393441,207.672876 L440.393441,224.05451 L475.456744,224.05451 L478.478698,224.05451 C485.849517,224.05451 491.824653,218.07387 491.824653,210.697614 L491.824653,207.672876 L491.824653,178.104411 L475.456744,178.104411 Z" id="Fill-25" fill="#FFE509" mask="url(#mask-2)"></path>
                <path d="M400.672471,178.104411 L400.672471,207.672876 L365.609168,207.672876 L365.609168,224.05451 L400.672471,224.05451 L403.694426,224.05451 C411.065244,224.05451 417.039032,218.07387 417.039032,210.697614 L417.039032,207.672876 L417.039032,178.104411 L400.672471,178.104411 Z" id="Fill-26" fill="#FFE509" mask="url(#mask-2)"></path>
                <path d="M402.474047,81.5527863 L390.823138,84.1321142 C387.526092,84.8636661 384.260062,82.779688 383.530532,79.479606 L382.291274,73.8755404 L381.377002,74.0766497 C380.932002,74.1751798 380.531502,73.7864585 380.615108,73.3369995 L381.33385,69.5442672 L379.094017,59.4118683 L383.068002,53.3772399 L406.790547,48.1214038 L413.762214,79.6577699 L402.474047,81.5527863 Z" id="Fill-27" fill="#FEC524" mask="url(#mask-2)"></path>
                <path d="M446.158888,151.610625 L451.658009,151.610625 C454.212039,151.610625 456.281964,149.538794 456.281964,146.982411 L456.281964,140.343105 L441.534933,140.343105 L441.534933,146.982411 C441.534933,149.538794 443.604858,151.610625 446.158888,151.610625" id="Fill-28" fill="#FFE509" mask="url(#mask-2)"></path>
                <path d="M419.173414,114.963788 C419.173414,129.930908 431.294944,142.062252 446.248292,142.062252 C461.200292,142.062252 473.321823,129.930908 473.321823,114.963788 C473.321823,99.9966678 461.200292,87.8639738 446.248292,87.8639738 C431.294944,87.8639738 419.173414,99.9966678 419.173414,114.963788" id="Fill-29" fill="#FFE509" mask="url(#mask-2)"></path>
                <path d="M444.78667,74.8146803 C462.071548,74.8997131 475.8652,89.3566366 475.8652,106.658784 L475.8652,110.297648 L475.859806,110.303046 L475.8652,110.303046 L475.8652,153.694063 C475.8652,156.402964 473.672564,158.59897 470.966155,158.59897 C468.259745,158.59897 466.065761,156.402964 466.065761,153.694063 L466.065761,124.630396 C467.70417,124.820708 469.503048,124.506221 471.923579,120.443544 C472.239124,119.911751 472.427912,119.301675 472.396897,118.68485 C472.239124,115.685757 469.760609,113.303489 466.726518,113.303489 C466.278821,113.303489 465.847306,113.360178 465.433321,113.457358 C459.598427,112.939063 454.760064,108.992462 452.961185,103.625948 C448.712109,110.104637 441.393882,114.38462 433.07373,114.38462 C424.934276,114.38462 417.753594,110.289549 413.468109,104.048413 C414.518579,87.6775765 428.147715,74.7336967 444.78667,74.8146803" id="Fill-30" fill="#FD9805" mask="url(#mask-2)"></path>
                <path d="M451.55013,118.63464 C451.55013,119.659083 452.379448,120.489164 453.402948,120.489164 C454.426448,120.489164 455.255767,119.659083 455.255767,118.63464 C455.255767,117.610197 454.426448,116.780115 453.402948,116.780115 C452.379448,116.780115 451.55013,117.610197 451.55013,118.63464" id="Fill-31" fill="#3A3A62" mask="url(#mask-2)"></path>
                <path d="M431.965545,118.63464 C431.965545,119.659083 432.794864,120.489164 433.818364,120.489164 C434.841864,120.489164 435.671182,119.659083 435.671182,118.63464 C435.671182,117.610197 434.841864,116.780115 433.818364,116.780115 C432.794864,116.780115 431.965545,117.610197 431.965545,118.63464" id="Fill-32" fill="#3A3A62" mask="url(#mask-2)"></path>
                <path d="M441.540597,135.435094 L445.270506,135.435094 C447.001961,135.435094 448.405733,134.030028 448.405733,132.296979 L448.405733,129.108925 L438.404021,129.108925 L438.404021,132.296979 C438.404021,134.030028 439.809142,135.435094 441.540597,135.435094" id="Fill-33" fill="#3A3A62" mask="url(#mask-2)"></path>
                <path d="M412.01215,71.7421623 L412.01215,71.7421623 C415.355044,71.0011623 417.466771,67.6889328 416.726453,64.3429601 L414.133317,52.6151842 C411.973044,42.8364137 402.300362,36.6641131 392.530589,38.8263754 L376.364953,42.4085503 C375.928044,40.4271514 373.968695,39.1759546 371.98912,39.6146158 C369.056165,40.2651842 367.203347,43.1724956 367.853317,46.1095011 L369.280014,52.5598454 C370.334529,57.3297798 375.052877,60.3410202 379.818423,59.2855339 L392.562953,56.4632552 L401.767711,62.3359164 L402.394756,61.3533153 C403.453317,59.6891022 405.610892,59.116818 407.354483,60.0346322 C408.901195,60.8498672 409.690059,62.6180093 409.265286,64.3146158 L408.406302,67.7415721 L412.01215,71.7421623 Z" id="Fill-34" fill="#FD9805" mask="url(#mask-2)"></path>
                <path d="M431.447997,165.962134 L428.533921,152.783402 L412.720239,150.401134 C409.637603,149.936828 406.573845,151.354042 404.928694,154.004905 L398.342694,164.615107 C397.602376,165.808266 398.079739,167.379348 399.356755,167.95838 C400.219785,168.351151 401.233845,168.178386 401.920224,167.521069 L404.195118,165.345309 C404.939482,164.634003 406.077603,164.555719 406.904224,165.168495 C408.988982,166.713932 412.670345,169.379643 412.996679,169.185282 C413.453815,168.911287 422.599239,164.983583 422.599239,164.983583 L431.447997,165.962134 Z" id="Fill-35" fill="#FEC524" mask="url(#mask-2)"></path>
                <path d="M116.600518,206.150654 L113.674306,206.953742 L111.638094,199.523496 C111.416942,198.715009 111.892958,197.879528 112.699352,197.658173 C113.508442,197.435468 114.343155,197.911922 114.564306,198.720408 L116.600518,206.150654 Z" id="Fill-36" fill="#FD9805" mask="url(#mask-2)"></path>
                <path d="M125.087747,206.820254 L122.100853,206.285762 L124.637353,192.112281 C124.784338,191.286248 125.573202,190.736909 126.398474,190.88403 C127.223747,191.033849 127.771232,191.82209 127.624247,192.646773 L125.087747,206.820254 Z" id="Fill-37" fill="#FD9805" mask="url(#mask-2)"></path>
                <path d="M121.702106,207.151207 L118.670712,207.03648 L119.2155,192.648392 C119.247864,191.810212 119.951773,191.155595 120.787833,191.187988 C121.625242,191.219032 122.279258,191.924939 122.246894,192.763119 L121.702106,207.151207 Z" id="Fill-38" fill="#FD9805" mask="url(#mask-2)"></path>
                <path d="M616.257576,230.803009 L6.74242424,230.803009 C3.01790909,230.803009 0,227.78232 0,224.054375 L623,224.054375 C623,227.78232 619.982091,230.803009 616.257576,230.803009" id="Fill-39" fill="#FD9805" mask="url(#mask-2)"></path>
                <polygon id="Fill-40" fill="#FEC524" mask="url(#mask-2)" points="10.7878788 246.913617 610.414591 246.913617 610.414591 230.801929 10.7878788 230.801929"></polygon>
                <path d="M409.301965,224.054375 L279.65998,224.054375 L279.65998,152.466216 C279.65998,147.264369 283.872647,143.047823 289.071056,143.047823 L399.892238,143.047823 C405.089298,143.047823 409.301965,147.264369 409.301965,152.466216 L409.301965,224.054375 Z" id="Fill-41" fill="#8D66ED" mask="url(#mask-2)"></path>
                <polygon id="Fill-42" fill="#FFE509" mask="url(#mask-2)" points="188.510091 224.054645 204.876652 224.054645 204.876652 178.104546 188.510091 178.104546"></polygon>
                <path d="M228.231061,224.054375 L133.837121,224.054375 L133.837121,176.784244 C133.837121,171.582397 138.049788,167.36585 143.246848,167.36585 L218.821333,167.36585 C224.018394,167.36585 228.231061,171.582397 228.231061,176.784244 L228.231061,224.054375 Z" id="Fill-43" fill="#8D66ED" mask="url(#mask-2)"></path>
                <path d="M127.431818,224.054375 L110.575758,224.054375 L110.575758,206.668544 C110.575758,205.534774 111.492727,204.618309 112.625455,204.618309 L125.382121,204.618309 C126.514848,204.618309 127.431818,205.534774 127.431818,206.668544 L127.431818,224.054375 Z" id="Fill-44" fill="#FFE509" mask="url(#mask-2)"></path>
                <path d="M434.180567,224.054375 L427.423309,224.054375 C422.122415,224.054375 417.824794,219.752796 417.824794,214.44702 L417.824794,207.647096 L443.779082,207.647096 L443.779082,214.44702 C443.779082,219.752796 439.482809,224.054375 434.180567,224.054375" id="Fill-45" fill="#FFFFFF" mask="url(#mask-2)"></path>
                <path d="M186.25947,198.719328 C186.25947,202.352793 183.315727,205.299246 179.685606,205.299246 C176.055485,205.299246 173.111742,202.352793 173.111742,198.719328 C173.111742,195.085864 176.055485,192.13941 179.685606,192.13941 C183.315727,192.13941 186.25947,195.085864 186.25947,198.719328" id="Fill-46" fill="#FD9805" mask="url(#mask-2)"></path>
                <path d="M351.130217,185.559492 C351.130217,189.192957 348.186474,192.13941 344.556353,192.13941 C340.926232,192.13941 337.982489,189.192957 337.982489,185.559492 C337.982489,181.926028 340.926232,178.979574 344.556353,178.979574 C348.186474,178.979574 351.130217,181.926028 351.130217,185.559492" id="Fill-47" fill="#FD9805" mask="url(#mask-2)"></path>
                <path d="M425.456139,203.672691 C425.406245,203.672691 425.353655,203.667292 425.301064,203.653795 C424.938321,203.568762 424.714473,203.205685 424.800776,202.842609 C425.106882,201.537423 426.029245,200.720838 426.768215,200.066221 C427.501791,199.417002 427.949488,198.989139 427.927912,198.410106 C427.910382,197.929603 427.589442,197.643461 427.023079,197.179155 C426.40817,196.674357 425.64223,196.049434 425.46423,194.888669 C425.243079,193.44986 426.106109,192.434866 426.869352,191.538647 C427.553033,190.73556 428.142321,190.0418 428.043882,189.122636 C427.973761,188.466669 427.594836,188.0658 427.114776,187.559652 C426.557852,186.972521 425.86473,186.240969 425.68673,184.983024 C425.495245,183.635997 425.955079,182.217434 427.054094,180.769177 C427.280639,180.472237 427.704064,180.415549 427.998033,180.639603 C428.2947,180.865008 428.352685,181.287472 428.127488,181.584412 C427.255018,182.735729 426.884185,183.81686 427.02173,184.794062 C427.139048,185.624144 427.581352,186.09115 428.093776,186.63239 C428.642609,187.212773 429.265609,187.87009 429.384276,188.978215 C429.544745,190.476412 428.66823,191.504904 427.895548,192.41327 C427.237488,193.186663 426.668427,193.854778 426.796533,194.68351 C426.894973,195.331379 427.350761,195.703904 427.87667,196.134467 C428.482139,196.629816 429.235942,197.246642 429.276397,198.361516 C429.320897,199.607314 428.440336,200.387456 427.662261,201.077166 C426.973185,201.687243 426.321867,202.264926 426.111503,203.153046 C426.040033,203.463483 425.763594,203.672691 425.456139,203.672691" id="Fill-48" fill="#FFFFFF" mask="url(#mask-2)"></path>
                <path d="M432.874155,203.672691 C432.824261,203.672691 432.77167,203.667292 432.719079,203.653795 C432.356336,203.568762 432.132488,203.205685 432.218791,202.842609 C432.524897,201.537423 433.447261,200.720838 434.187579,200.066221 C434.921155,199.417002 435.368852,198.989139 435.347276,198.410106 C435.329745,197.929603 435.008806,197.643461 434.442442,197.179155 C433.826185,196.675707 433.060245,196.049434 432.882245,194.888669 C432.662442,193.44986 433.525473,192.434866 434.287367,191.538647 C434.971048,190.73556 435.560336,190.0418 435.463245,189.121286 C435.424139,188.750111 435.692488,188.418079 436.061973,188.378937 C436.41123,188.345193 436.765882,188.60704 436.803639,188.978215 C436.962761,190.476412 436.087594,191.504904 435.314912,192.41327 C434.655503,193.186663 434.087791,193.854778 434.214548,194.68486 C434.312988,195.331379 434.768776,195.703904 435.296033,196.134467 C435.901503,196.629816 436.655306,197.246642 436.695761,198.361516 C436.738912,199.607314 435.858352,200.387456 435.080276,201.077166 C434.3912,201.687243 433.739882,202.263576 433.529518,203.153046 C433.458048,203.463483 433.181609,203.672691 432.874155,203.672691" id="Fill-49" fill="#FFFFFF" mask="url(#mask-2)"></path>
            </g>
            <g id="Group-2" fill="#FFE50A">
                <circle id="Oval" cx="167" cy="124" r="27"></circle>
                <circle id="Oval-Copy" cx="96.5" cy="180.5" r="15.5"></circle>
                <circle id="Oval-Copy-4" cx="106" cy="113" r="10"></circle>
                <circle id="Oval-Copy-12" cx="147" cy="48" r="8"></circle>
                <circle id="Oval-Copy-14" cx="48" cy="157" r="8"></circle>
                <circle id="Oval-Copy-15" cx="8" cy="204" r="8"></circle>
                <circle id="Oval-Copy-13" cx="251" cy="10" r="10"></circle>
                <circle id="Oval-Copy-5" cx="209.5" cy="73.5" r="15.5"></circle>
            </g>
            <g id="Group-2-Copy" transform="translate(617.500000, 106.000000) scale(-1, 1) translate(-617.500000, -106.000000) translate(487.000000, 0.000000)" fill="#FFE50A">
                <circle id="Oval" cx="167" cy="124" r="27"></circle>
                <circle id="Oval-Copy" cx="96.5" cy="180.5" r="15.5"></circle>
                <circle id="Oval-Copy-4" cx="106" cy="113" r="10"></circle>
                <circle id="Oval-Copy-12" cx="147" cy="48" r="8"></circle>
                <circle id="Oval-Copy-14" cx="48" cy="157" r="8"></circle>
                <circle id="Oval-Copy-15" cx="8" cy="204" r="8"></circle>
                <circle id="Oval-Copy-13" cx="251" cy="10" r="10"></circle>
                <circle id="Oval-Copy-5" cx="209.5" cy="73.5" r="15.5"></circle>
            </g>
        </g>
    </g>
</svg>