<svg xmlns="http://www.w3.org/2000/svg" xmlns:xlink="http://www.w3.org/1999/xlink" viewBox="0 0 360.49 186"><defs><style>.cls-1{fill:#3a3a99;}.cls-2{fill:url(#linear-gradient);}.cls-3{fill:url(#linear-gradient-2);}.cls-4{fill:url(#linear-gradient-3);}.cls-5{fill:url(#linear-gradient-4);}.cls-6{fill:url(#linear-gradient-5);}.cls-7{fill:url(#linear-gradient-6);}.cls-8{fill:#fd9805;}.cls-9{fill:#fec524;}.cls-10{fill:#ffe50a;}.cls-11{opacity:0.1;isolation:isolate;}</style><linearGradient id="linear-gradient" x1="380.92" y1="245.47" x2="-346.08" y2="-58.53" gradientUnits="userSpaceOnUse"><stop offset="0" stop-color="#38ffbf" stop-opacity="0"/><stop offset="0.09" stop-color="#38ffbf" stop-opacity="0.05"/><stop offset="0.25" stop-color="#37ffbf" stop-opacity="0.17"/><stop offset="0.46" stop-color="#35ffbe" stop-opacity="0.38"/><stop offset="0.72" stop-color="#33ffbe" stop-opacity="0.66"/><stop offset="1" stop-color="#30ffbd"/></linearGradient><linearGradient id="linear-gradient-2" x1="144.51" y1="22.47" x2="125.11" y2="14.36" xlink:href="#linear-gradient"/><linearGradient id="linear-gradient-3" x1="176.56" y1="84.68" x2="157.15" y2="76.56" xlink:href="#linear-gradient"/><linearGradient id="linear-gradient-4" x1="233.75" y1="30.32" x2="214.35" y2="22.21" xlink:href="#linear-gradient"/><linearGradient id="linear-gradient-5" x1="60.44" y1="30.32" x2="41.04" y2="22.21" xlink:href="#linear-gradient"/><linearGradient id="linear-gradient-6" x1="336.11" y1="91.93" x2="316.7" y2="83.81" xlink:href="#linear-gradient"/></defs><title>Asset 6</title><g id="Layer_2" data-name="Layer 2"><g id="Layer_1-2" data-name="Layer 1"><rect class="cls-1" x="0.25" width="360" height="186" transform="translate(360.49 186) rotate(180)"/><path class="cls-2" d="M360.49,137.12a181.59,181.59,0,0,1-59.78,22c-11.86,2.1-30.75,4.21-56.36,1-58.11-7.26-79-32.86-123.49-46.81-25.55-8-65.1-14.14-120.87.34V186H360.49Z"/><circle class="cls-3" cx="139.04" cy="20.18" r="4.81"/><circle class="cls-4" cx="171.09" cy="82.39" r="4.81"/><circle class="cls-5" cx="228.29" cy="28.03" r="4.81"/><circle class="cls-6" cx="54.98" cy="28.03" r="4.81"/><circle class="cls-7" cx="330.64" cy="89.64" r="4.81"/><path class="cls-8" d="M138.65,108.18a5.33,5.33,0,0,0-5.28,5.28,5.27,5.27,0,0,0,5.28,5.28,5.33,5.33,0,0,0,5.28-5.28A5.21,5.21,0,0,0,138.65,108.18Zm64.37,0a5.33,5.33,0,0,0-5.28,5.28,5.27,5.27,0,0,0,5.28,5.28,5.33,5.33,0,0,0,5.28-5.28A5.21,5.21,0,0,0,203,108.18Z"/><path class="cls-9" d="M275.48,108.7,273.41,92a8.32,8.32,0,0,1-8.16-7.3l-120.71,15a8.32,8.32,0,0,1-6.13,9.07l2.07,16.68a8.32,8.32,0,0,1,8.16,7.3h0a8.32,8.32,0,0,1-6.13,9.07l2.07,16.68a8.32,8.32,0,0,1,8.16,7.3h0l120.71-15h0a8.32,8.32,0,0,1,6.13-9.07l-2.07-16.68a8.32,8.32,0,0,1-8.16-7.3h0A8.32,8.32,0,0,1,275.48,108.7Z"/><rect class="cls-10" x="157.65" y="102.7" width="83.04" height="47.57" transform="translate(-14.08 25.52) rotate(-7.08)"/><polygon class="cls-8" points="197.31 111.53 202.44 122.5 214.46 121 205.61 129.27 210.75 140.24 200.15 134.38 191.31 142.65 193.6 130.77 183 124.91 195.02 123.42 197.31 111.53"/><path class="cls-11" d="M144.16,155l100.71-54.84-4-7.39,5.85-4.3L246,87.12,144.54,99.72a8.32,8.32,0,0,1-6.13,9.07l2.07,16.68a8.32,8.32,0,0,1,8.16,7.3h0a8.32,8.32,0,0,1-6.13,9.07Z"/><path class="cls-9" d="M219.1,56.61l-8-14.76a8.32,8.32,0,0,1-10.27-3.8L94,96.23a8.33,8.33,0,0,1-2.38,10.69l8,14.76a8.32,8.32,0,0,1,10.27,3.8h0a8.33,8.33,0,0,1-2.38,10.69l8,14.76a8.32,8.32,0,0,1,10.27,3.8h0L232.64,96.54h0A8.33,8.33,0,0,1,235,85.86L227,71.1a8.32,8.32,0,0,1-10.27-3.8h0A8.33,8.33,0,0,1,219.1,56.61Z"/><path class="cls-8" d="M185.81,53.07a2.72,2.72,0,0,1-.36-.51l-2.58-4.75a2.7,2.7,0,0,1,4.74-2.58L190.19,50a2.7,2.7,0,0,1-4.39,3.09Z"/><path class="cls-8" d="M207.15,92.27a2.72,2.72,0,0,1-.36-.51L201.46,82a2.7,2.7,0,1,1,4.74-2.58l5.34,9.8a2.7,2.7,0,0,1-4.39,3.09Zm-10.67-19.6a2.72,2.72,0,0,1-.36-.51l-5.34-9.8a2.7,2.7,0,1,1,4.74-2.58l5.34,9.8a2.7,2.7,0,0,1-4.39,3.09Z"/><path class="cls-8" d="M215.07,106.81a2.72,2.72,0,0,1-.36-.51l-2.58-4.75A2.7,2.7,0,0,1,216.88,99l2.58,4.75a2.7,2.7,0,0,1-4.39,3.09Z"/><rect class="cls-10" x="113.09" y="77.35" width="83.04" height="47.57" transform="translate(-29.54 86.25) rotate(-28.57)"/><polygon class="cls-8" points="147.4 87.89 156.19 96.21 166.82 90.42 161.62 101.35 170.41 109.67 158.41 108.11 153.21 119.04 150.99 107.14 138.99 105.58 149.62 99.79 147.4 87.89"/><path class="cls-8" d="M246.32,94.07a2.69,2.69,0,0,1-.66-1.47L245,87.24a2.7,2.7,0,1,1,5.36-.67l.67,5.36a2.7,2.7,0,0,1-4.7,2.13Z"/><path class="cls-8" d="M251.82,138.36a2.69,2.69,0,0,1-.66-1.47l-1.38-11.07a2.7,2.7,0,1,1,5.36-.67l1.38,11.07a2.7,2.7,0,0,1-4.7,2.13Zm-2.75-22.15a2.69,2.69,0,0,1-.66-1.47L247,103.68a2.7,2.7,0,1,1,5.36-.67l1.38,11.07a2.7,2.7,0,0,1-4.7,2.13Z"/><path class="cls-8" d="M253.87,154.8a2.69,2.69,0,0,1-.66-1.47l-.67-5.36a2.7,2.7,0,1,1,5.36-.67l.67,5.36a2.7,2.7,0,0,1-4.7,2.13Z"/><path id="_Path_" data-name="&lt;Path&gt;" class="cls-8" d="M125.16,56.9a5.43,5.43,0,1,1-5.43-5.43,5.43,5.43,0,0,1,5.43,5.43"/><path id="_Path_2" data-name="&lt;Path&gt;" class="cls-8" d="M269.44,48.9A5.43,5.43,0,1,1,264,43.47a5.43,5.43,0,0,1,5.43,5.43"/></g></g></svg>