<svg width="213" height="31" viewBox="0 0 213 31" xmlns="http://www.w3.org/2000/svg"><title>Group 4@2x</title><desc>Created with Sketch.</desc><g fill="#01FAC0"><path d="M3.022 30.384h-2.121c-.441 0-.661-.22-.661-.661v-29.026c0-.44.22-.661.661-.661h2.121c.439 0 .66.221.66.661v12.413c0 .283.156.425.471.425h11.69c.314 0 .471-.142.471-.425v-12.413c0-.44.219-.661.659-.661h2.122c.439 0 .66.221.66.661v29.026c0 .441-.221.661-.66.661h-2.122c-.44 0-.659-.22-.659-.661v-12.743c0-.283-.157-.425-.471-.425h-11.69c-.315 0-.471.142-.471.425v12.743c0 .441-.221.661-.66.661z"/><path d="M36.112 3.576l-4.855 16.33h9.899l-4.855-16.33h-.189zm-8.532 26.807h-2.357c-.409 0-.551-.22-.424-.661l8.815-29.026c.125-.44.424-.661.896-.661h3.394c.471 0 .77.221.896.661l8.815 29.026c.125.441-.016.661-.424.661h-2.404c-.347 0-.566-.22-.66-.661l-2.215-6.891h-11.407l-2.215 6.891c-.126.441-.362.661-.707.661z"/><path d="M64.819 30.384h-5.656c-2.168 0-3.874-.614-5.114-1.841-1.242-1.227-1.862-2.941-1.862-5.144v-16.377c0-2.202.62-3.917 1.862-5.144 1.241-1.227 2.946-1.841 5.114-1.841h5.656c2.167 0 3.873.614 5.113 1.841 1.243 1.227 1.863 2.942 1.863 5.144v2.313c0 .441-.22.661-.66.661h-2.121c-.44 0-.66-.22-.66-.661v-2.171c0-2.737-1.32-4.106-3.96-4.106h-4.855c-2.609 0-3.912 1.369-3.912 4.106v16.094c0 2.737 1.304 4.106 3.912 4.106h4.855c2.64 0 3.96-1.369 3.96-4.106v-2.171c0-.441.22-.661.66-.661h2.121c.44 0 .66.22.66.661v2.313c0 2.203-.62 3.917-1.863 5.144-1.241 1.227-2.946 1.841-5.113 1.841"/><path d="M80.939 30.384h-2.121c-.441 0-.661-.22-.661-.661v-29.026c0-.44.22-.661.661-.661h2.121c.439 0 .66.221.66.661v16.283h.141c.219-.661.565-1.305 1.037-1.935l10.558-14.348c.284-.44.692-.661 1.227-.661h2.545c.534 0 .613.236.236.708l-9.333 12.649 10.653 16.236c.345.504.204.755-.425.755h-1.932c-.66 0-1.116-.22-1.368-.661l-9.049-13.829-4.289 5.144v8.684c0 .441-.221.661-.66.661"/><path d="M109.079 1.028v28.365c0 .661-.33.991-.99.991h-4.007c-.66 0-.99-.33-.99-.991v-28.365c0-.661.33-.991.99-.991h4.007c.66 0 .99.33.99.991"/><path d="M120.345 30.384h-3.911c-.661 0-.99-.33-.99-.991v-28.365c0-.661.329-.991.99-.991h3.534c.661 0 1.1.221 1.321.661l9.522 17.887h.187v-17.557c0-.661.331-.991.99-.991h3.913c.66 0 .989.33.989.991v28.365c0 .661-.329.991-.989.991h-3.441c-.692 0-1.196-.314-1.509-.944l-9.426-17.557h-.189v17.51c0 .661-.331.991-.991.991"/><path d="M151.266 25.193h3.347c1.005 0 1.721-.212 2.145-.637.424-.425.637-1.14.637-2.147v-14.395c0-1.007-.213-1.723-.637-2.147-.424-.425-1.14-.637-2.145-.637h-3.347c-1.005 0-1.713.212-2.12.637-.409.425-.614 1.14-.614 2.147v14.395c0 1.007.205 1.723.614 2.147.407.425 1.115.637 2.12.637m4.338 5.192h-5.28c-2.482 0-4.399-.661-5.751-1.982-1.351-1.321-2.027-3.225-2.027-5.711v-14.961c0-2.485.676-4.389 2.027-5.711 1.352-1.321 3.269-1.982 5.751-1.982h5.28c2.481 0 4.399.661 5.75 1.982 1.352 1.321 2.028 3.225 2.028 5.711v14.961c0 2.485-.676 4.389-2.028 5.711-1.351 1.321-3.269 1.982-5.75 1.982"/><path d="M184.545.037h3.96c.691 0 1.037.314 1.037.944v21.71c0 2.454-.683 4.351-2.05 5.687-1.367 1.338-3.276 2.006-5.727 2.006h-5.185c-2.483 0-4.4-.661-5.751-1.982s-2.027-3.224-2.027-5.711v-21.663c0-.661.33-.991.991-.991h4.006c.66 0 .99.33.99.991v21.38c0 1.007.212 1.723.636 2.147.424.425 1.123.637 2.098.637h3.252c1.006 0 1.721-.212 2.145-.637.424-.425.636-1.14.636-2.147v-21.38c0-.661.33-.991.99-.991"/><path d="M204.814 30.384h-3.96c-.692 0-1.037-.33-1.037-.991v-23.645c0-.346-.174-.519-.519-.519h-5.374c-.66 0-.99-.33-.99-.991v-3.209c0-.661.33-.991.99-.991h17.818c.66 0 .99.33.99.991v3.209c0 .661-.33.991-.99.991h-5.374c-.377 0-.566.173-.566.519v23.645c0 .661-.33.991-.99.991"/></g></svg>