<?xml version="1.0" encoding="UTF-8"?>
<svg width="24px" height="24px" viewBox="0 0 24 24" version="1.1" xmlns="http://www.w3.org/2000/svg" xmlns:xlink="http://www.w3.org/1999/xlink">
    <!-- Generator: Sketch 42 (36781) - http://www.bohemiancoding.com/sketch -->
    <title>Group 4@2x</title>
    <desc>Created with Sketch.</desc>
    <defs></defs>
    <g id="Page-1" stroke="none" stroke-width="1" fill="none" fill-rule="evenodd">
        <g id="ComingSoon" transform="translate(-500.000000, -1265.000000)">
            <g id="Heart-02" transform="translate(504.000000, 1268.000000)"></g>
            <g id="Group-4" transform="translate(500.000000, 1265.000000)">
                <rect id="Rectangle-3-Copy" x="0" y="0" width="24" height="24"></rect>
                <path d="M19.6716818,6.0930489 C19.1900039,4.74229617 18.1027947,3.69485404 16.8017318,3.25155471 C15.1039683,2.67309072 13.4840485,3.1406246 12.3326578,4.16014509 C12.1402976,4.33047385 11.8519174,4.33874138 11.6593266,4.1687047 C10.8491765,3.45343218 9.80568589,3.02801629 8.66576087,3.02801629 C6.08895512,3.02801629 4,5.22054774 4,7.94093753 C4.00000015,9.16587503 4.42613693,10.3526909 5.12705691,11.1329932 L11.7300483,17.5727285 C11.8910324,17.7626218 12.1729453,17.7615725 12.3326578,17.5704871 L18.7628041,11.1329932 C19.8651529,9.99453101 20.3507641,7.99737726 19.6716818,6.0930489 Z" id="Shape" fill="#8B8AAF" fill-rule="nonzero"></path>
            </g>
        </g>
    </g>
</svg>