<svg width="36" height="36" viewBox="0 0 36 36" xmlns="http://www.w3.org/2000/svg"><title>Slack Selected@2x</title><desc>Created with Sketch.</desc><g fill="none"><path d="M35.286 23.003c-2.763 9.547-12.742 15.046-22.289 12.283s-15.046-12.743-12.283-22.289c2.763-9.547 12.742-15.046 22.289-12.283s15.046 12.743 12.282 22.289z" fill="#494976"/><g fill="#00FFC2"><path d="M16.718 18.117l2.142-.718.694 2.069-2.142.718z"/><path d="M25.491 16.573c-1.656-5.52-4.043-6.803-9.562-5.147-5.519 1.656-6.803 4.043-5.147 9.562 1.656 5.519 4.043 6.803 9.562 5.147 5.519-1.656 6.803-4.043 5.147-9.562zm-2.785 3.581l-1.04.347.359 1.078c.141.437-.09.911-.526 1.053-.09.025-.193.051-.282.039-.334-.013-.655-.231-.77-.565l-.359-1.078-2.143.719.359 1.078c.141.437-.09.911-.526 1.052-.09.026-.193.052-.282.039-.334-.013-.655-.231-.77-.564l-.359-1.078-1.04.346c-.09.026-.193.052-.282.039-.334-.013-.655-.231-.77-.564-.141-.437.09-.912.526-1.053l1.04-.347-.693-2.066-1.04.347c-.09.026-.193.051-.282.039-.334-.013-.655-.231-.77-.565-.141-.436.09-.911.526-1.052l1.04-.347-.359-1.078c-.141-.437.09-.911.526-1.052.436-.142.911.09 1.052.526l.359 1.078 2.143-.719-.359-1.078c-.141-.436.09-.911.526-1.052.436-.141.911.09 1.052.526l.359 1.078 1.04-.347c.436-.141.911.09 1.052.526.141.436-.09.911-.526 1.052l-1.04.347.693 2.066 1.04-.347c.436-.141.911.09 1.052.526.141.437-.09.911-.526 1.052z"/></g></g></svg>