<svg width="36" height="36" viewBox="0 0 36 36" xmlns="http://www.w3.org/2000/svg"><title>Linkedin Normal@2x</title><desc>Created with Sketch.</desc><g fill="none"><path d="M35.286 23.003c-2.763 9.547-12.742 15.046-22.289 12.283s-15.046-12.743-12.282-22.289c2.763-9.547 12.742-15.046 22.289-12.283s15.046 12.743 12.282 22.289z" fill="#494976"/><path d="M24.776 10h-11.52c-1.246 0-2.257 1.01-2.257 2.256v11.52c0 1.246 1.01 2.257 2.257 2.257h11.52c1.246 0 2.257-1.011 2.257-2.257v-11.52c0-1.246-1.01-2.256-2.257-2.256zm-8.431 12.811l-.081.182-.181.081h-1.854l-.181-.081-.081-.182v-6.507l.081-.181.181-.081h1.854l.181.081.081.181v6.507zm-.302-7.877c-.242.242-.537.363-.887.363-.349 0-.645-.121-.886-.363-.242-.242-.363-.537-.363-.886 0-.336.121-.625.363-.867.255-.255.551-.383.886-.383.336 0 .631.128.887.383.242.242.363.531.363.867 0 .349-.121.645-.363.886zm8.18 7.877c0 .067-.027.128-.081.182-.054.054-.114.081-.181.081h-1.894l-.181-.081-.081-.182v-3.969c0-.336-.06-.598-.181-.786-.148-.161-.39-.242-.725-.242-.43 0-.739.127-.927.383-.175.255-.262.618-.262 1.088v3.525c0 .067-.027.128-.081.182-.054.054-.114.081-.181.081h-1.854l-.181-.081-.081-.182v-6.507l.081-.181.181-.081h1.793l.161.04.081.141v.101l.02.041v.161c.443-.43 1.054-.645 1.833-.645.873 0 1.545.208 2.015.625.484.443.725 1.081.725 1.914v4.392z" fill="#fff"/></g></svg>