<?xml version="1.0" encoding="UTF-8"?>
<svg width="36px" height="36px" viewBox="0 0 36 36" version="1.1" xmlns="http://www.w3.org/2000/svg" xmlns:xlink="http://www.w3.org/1999/xlink">
    <!-- Generator: Sketch 42 (36781) - http://www.bohemiancoding.com/sketch -->
    <title>Group 13@2x</title>
    <desc>Created with Sketch.</desc>
    <defs></defs>
    <g id="Page-1" stroke="none" stroke-width="1" fill="none" fill-rule="evenodd">
        <g id="ComingSoon" transform="translate(-1361.000000, -2071.000000)">
            <g id="Group-13" transform="translate(1361.000000, 2071.000000)">
                <path d="M35.2857548,23.00323 L35.2857548,23.00323 C32.5225712,32.550105 22.5433232,38.0491284 12.9966923,35.2859448 L12.9966923,35.2859448 C3.44993945,32.5227612 -2.04908405,22.543269 0.71422165,12.9968823 L0.71422165,12.9968823 C3.47740525,3.45000726 13.4565312,-2.04901614 23.0032841,0.714167455 L23.0032841,0.714167455 C32.5499149,3.47735106 38.0490604,13.4568433 35.2857548,23.00323 Z" id="Shape-Copy-21" fill="#494976"></path>
                <path d="M23.0597333,14.8111164 C23.0598104,15.1846781 22.8342956,15.5214957 22.4883626,15.664487 C22.1424296,15.8074784 21.7442172,15.7284784 21.4794402,15.4643304 C21.2146633,15.2001824 21.1354752,14.8029159 21.278807,14.4578046 C21.4221389,14.1126933 21.7597584,13.8877141 22.1342095,13.887791 C22.6453186,13.8878959 23.0596282,14.3012213 23.0597333,14.8111164 Z M26,18.9809976 L25.9998095,18.9926271 L25.9472381,22.3410356 C25.9188264,24.8521326 23.8852662,26.8808625 21.3681905,26.9092067 L18,26.9619952 L17.9883429,26.9617672 L14.6319619,26.9094727 C12.1148478,26.8811309 10.0812207,24.8524355 10.0526857,22.3413017 L10,18.9809976 L10.0002286,18.9693682 L10.0526476,15.6208456 C10.0812631,13.1097456 12.1148436,11.0810968 14.6319238,11.0526746 L18,11 L18.0116571,11.000228 L21.3680381,11.0525226 C23.8850799,11.0809471 25.9185935,13.1096305 25.9470857,15.6206936 L26,18.9809976 Z M24.510019,18.9809976 L24.4576762,15.6441805 C24.4383447,13.937095 23.0559116,12.5579288 21.3447619,12.5386223 L18,12.4865178 L14.6552381,12.5386223 C12.9440925,12.5579682 11.5616605,13.9370997 11.5422476,15.6441805 L11.490019,18.9809976 L11.5422476,22.3178147 C11.5616001,24.024921 12.9440671,25.4040873 14.6552381,25.4233729 L18,25.4754774 L21.3447619,25.4233729 C23.0559371,25.4041267 24.4384051,24.0249256 24.4576762,22.3178147 L24.510019,18.9809976 Z M22.1081905,18.9809976 C22.1081905,20.6386776 21.1072486,22.133131 19.5721041,22.7674941 C18.0369596,23.4018572 16.2699343,23.0512025 15.0949922,21.8790403 C13.92005,20.7068782 13.5685768,18.9440468 14.2044645,17.4125546 C14.8403523,15.8810624 16.3383732,14.8825119 18,14.8825273 C20.267844,14.8850825 22.1056502,16.7185404 22.1081905,18.9809976 L22.1081905,18.9809976 Z M20.6184,18.9809976 C20.6184,17.9244504 19.9804339,16.9719383 19.001986,16.5676188 C18.023538,16.1632992 16.8972982,16.3867965 16.1484331,17.1338936 C15.3995681,17.8809908 15.175555,19.0045588 15.5808515,19.9806767 C15.9861479,20.9567947 16.9409372,21.5932315 18,21.5932162 C19.4454148,21.5915406 20.6167245,20.4229792 20.6183619,18.9809976 L20.6184,18.9809976 Z" id="Shape-Copy-28" fill="#00FFC2" fill-rule="nonzero"></path>
            </g>
        </g>
    </g>
</svg>