<svg width="36" height="36" viewBox="0 0 36 36" xmlns="http://www.w3.org/2000/svg"><title>Twitter Normal@2x</title><desc>Created with Sketch.</desc><g fill="none"><path d="M35.286 23.003c-2.763 9.547-12.742 15.046-22.289 12.283s-15.046-12.743-12.283-22.289c2.763-9.547 12.742-15.046 22.289-12.283s15.046 12.743 12.282 22.289z" fill="#494976"/><path d="M24.402 15.51v.439c0 1.62-.35 3.184-1.049 4.691-.699 1.507-1.779 2.784-3.24 3.83-1.461 1.046-3.152 1.569-5.072 1.569-1.858 0-3.538-.529-5.041-1.586.167.022.428.034.783.034 1.566 0 2.933-.506 4.102-1.519-.71 0-1.346-.231-1.91-.692-.563-.461-.96-1.052-1.19-1.772.146.045.355.067.626.067.313 0 .605-.034.877-.101-.751-.18-1.378-.596-1.879-1.249-.501-.652-.751-1.395-.751-2.228v-.067c.48.292.97.438 1.471.438-.981-.675-1.471-1.653-1.471-2.936 0-.585.156-1.181.47-1.789 1.732 2.34 3.987 3.578 6.763 3.712-.063-.27-.094-.54-.094-.81 0-.967.318-1.8.955-2.497.637-.698 1.414-1.046 2.333-1.046.96 0 1.764.371 2.411 1.114.814-.18 1.513-.461 2.098-.844-.25.833-.73 1.485-1.44 1.958.731-.113 1.357-.304 1.879-.574-.438.72-.981 1.338-1.628 1.856z" fill="#fff"/></g></svg>