<?xml version="1.0" encoding="UTF-8"?>
<svg width="36px" height="36px" viewBox="0 0 36 36" version="1.1" xmlns="http://www.w3.org/2000/svg" xmlns:xlink="http://www.w3.org/1999/xlink">
    <!-- Generator: Sketch 42 (36781) - http://www.bohemiancoding.com/sketch -->
    <title>Slack Selected@2x</title>
    <desc>Created with Sketch.</desc>
    <defs></defs>
    <g id="Page-1" stroke="none" stroke-width="1" fill="none" fill-rule="evenodd">
        <path d="M35.2858234,23.00323 L35.2858234,23.00323 C32.5225177,32.550105 22.5433918,38.0491284 12.9967609,35.2859448 L12.9967609,35.2859448 C3.450008,32.5227612 -2.0490155,22.543269 0.714168102,12.9968823 L0.714290202,12.9968823 C3.4774738,3.45000726 13.4565998,-2.04901614 23.0033527,0.714167455 L23.0033527,0.714167455 C32.5499836,3.47735106 38.0491291,13.4568433 35.2858234,23.00323 Z" id="Shape-Copy-15" fill="#494976"></path>
        <g id="Group-14-Copy" transform="translate(10.000000, 10.000000)" fill="#00FFC2">
            <rect id="Rectangle-path" transform="translate(8.136436, 8.793148) rotate(-18.518298) translate(-8.136436, -8.793148) " x="7.00697622" y="7.70219294" width="2.25892026" height="2.18191106"></rect>
            <path d="M15.4909668,6.5732422 C13.8352051,1.053711 11.447876,-0.2294922 5.928833,1.4262695 C0.40979,3.0820312 -0.8737793,5.4692383 0.7819824,10.9882812 C2.4377441,16.5073241 4.8250732,17.7910156 10.3441162,16.1352539 C15.8631592,14.4794922 17.1467285,12.0922852 15.4909668,6.5732422 Z M12.7058105,10.1538086 L11.6661376,10.5004883 L12.0255126,11.5786133 C12.166748,12.0151367 11.9356688,12.4897461 11.4992675,12.6313477 C11.4094237,12.6567383 11.3067626,12.6826172 11.2169189,12.6699219 C10.8831787,12.6567383 10.5622558,12.4384766 10.4467773,12.1049805 L10.0874023,11.0268555 L7.9439697,11.7456055 L8.3033447,12.8237305 C8.4445801,13.2602539 8.2135009,13.7348633 7.7770996,13.8759766 C7.6872558,13.9018555 7.5845947,13.9277344 7.494751,13.9145508 C7.1610108,13.9018555 6.8400879,13.6835938 6.7246094,13.3500977 L6.3652344,12.2719727 L5.3255615,12.6181641 C5.2357177,12.644043 5.1330566,12.6699219 5.0432129,12.6567383 C4.7094727,12.644043 4.3886719,12.4257813 4.2730713,12.0922852 C4.131958,11.6557618 4.3629151,11.1806641 4.7993164,11.0395508 L5.8389893,10.6928711 L5.1458741,8.6264649 L4.1063233,8.9731446 C4.0164795,8.9990235 3.9136963,9.0244141 3.8238526,9.0117188 C3.4902344,8.9990235 3.1693116,8.7807618 3.0538331,8.4467774 C2.9125977,8.0107422 3.1436769,7.5356446 3.5800782,7.3945313 L4.619629,7.0478516 L4.260254,5.9697266 C4.1191407,5.5332032 4.3500978,5.0585938 4.7864991,4.9174805 C5.2229005,4.7758789 5.697754,5.0073243 5.8389893,5.4433594 L6.1983643,6.5214844 L8.3417969,5.8027344 L7.9824219,4.7246094 C7.8413086,4.2885742 8.0722657,3.8134766 8.508667,3.6723633 C8.9450683,3.53125 9.420044,3.7622071 9.5611572,4.1987305 L9.9205322,5.2768555 L10.9602051,4.9301758 C11.3966065,4.7890625 11.87146,5.0200196 12.0126953,5.456543 C12.1538086,5.8925782 11.9228515,6.3676758 11.4864502,6.5087891 L10.4467773,6.8554688 L11.1398925,8.921875 L12.1795654,8.5751953 C12.6159668,8.434082 13.0908203,8.6650391 13.2320556,9.1015625 C13.3731689,9.5380859 13.1422119,10.0126953 12.7058105,10.1538086 Z" id="Shape"></path>
        </g>
    </g>
</svg>