<svg width="36" height="36" viewBox="0 0 36 36" xmlns="http://www.w3.org/2000/svg"><title>Group 13@2x</title><desc>Created with Sketch.</desc><g fill="none"><path d="M35.286 23.003c-2.763 9.547-12.742 15.046-22.289 12.283s-15.046-12.743-12.282-22.289c2.763-9.547 12.742-15.046 22.289-12.283s15.046 12.743 12.282 22.289z" fill="#494976"/><path d="M23.06 13.811c0 .374-.225.71-.571.853-.346.143-.744.064-1.009-.2-.265-.264-.344-.661-.201-1.007.143-.345.481-.57.855-.57.511 0 .925.413.926.923zm2.94 4.17v.012l-.053 3.348c-.028 2.511-2.062 4.54-4.579 4.568l-3.368.053h-.012l-3.356-.052c-2.517-.028-4.551-2.057-4.579-4.568l-.053-3.36v-.012l.052-3.349c.029-2.511 2.062-4.54 4.579-4.568l3.368-.053h.012l3.356.052c2.517.028 4.551 2.057 4.579 4.568l.053 3.36zm-1.49 0l-.052-3.337c-.019-1.707-1.402-3.086-3.113-3.106l-3.345-.052-3.345.052c-1.711.019-3.094 1.398-3.113 3.106l-.052 3.337.052 3.337c.019 1.707 1.402 3.086 3.113 3.106l3.345.052 3.345-.052c1.711-.019 3.094-1.398 3.113-3.106l.052-3.337zm-2.402 0c0 1.658-1.001 3.152-2.536 3.786-1.535.634-3.302.284-4.477-.888-1.175-1.172-1.526-2.935-.891-4.466.636-1.531 2.134-2.53 3.796-2.53 2.268.003 4.106 1.836 4.108 4.098zm-1.49 0c0-1.057-.638-2.009-1.616-2.413-.978-.404-2.105-.181-2.854.566-.749.747-.973 1.871-.568 2.847s1.36 1.613 2.419 1.613c1.445-.002 2.617-1.17 2.618-2.612z" fill="#00FFC2" fill-rule="nonzero"/></g></svg>