<svg width="162" height="64" viewBox="0 0 162 64" xmlns="http://www.w3.org/2000/svg"><title>Page 1 Copy@2x</title><desc>Created with Sketch.</desc><path d="M13.565 9.056v29.865h-4.536v6.152h14.843v-6.152h-4.511v-29.865h-5.797v2.556-2.556zm130.706 0l-7.466 7.451h14.933l-7.467-7.451zm-61.317-.056v6.287c7.951 1.304 13.997 8.134 13.997 16.456 0 8.319-6.046 15.122-13.997 16.417v6.344c11.362-1.359 20.224-11.063 20.224-22.76 0-11.687-8.862-21.386-20.224-22.744zm-5.259.169c-11.351 1.362-20.213 11.062-20.213 22.748 0 11.687 8.862 21.39 20.213 22.746v-6.275c-7.943-1.3-14.001-8.145-14.001-16.471 0-8.322 6.058-15.111 14.001-16.411v-6.337zm-36.485 9.185c-6.285 0-11.485 5.109-11.485 11.383v15.329h5.876v-15.329c0-3.128 2.472-5.597 5.609-5.597 3.128 0 5.603 2.468 5.603 5.597v15.329h5.822v-15.329c0-6.273-5.136-11.383-11.425-11.383zm66.888.123v15.321c0 6.287 5.142 11.39 11.427 11.39 6.295 0 11.488-5.106 11.488-11.39v-15.321h-5.88v15.321c0 3.131-2.469 5.595-5.608 5.595-3.132 0-5.601-2.472-5.601-5.595v-15.321h-5.826zm28.761.022v6.121h4.51v29.868h5.8v-29.868h4.534v-6.121h-14.843zm-127.859 28.535l7.468 7.454 7.456-7.454h-14.924z" fill="#00FFC2"/></svg>