<svg width="59" height="23" viewBox="0 0 59 23" xmlns="http://www.w3.org/2000/svg"><title>Page 1@2x</title><desc>Created with Sketch.</desc><path d="M4.695 3.021v11.089h-1.684v2.284h5.511v-2.284h-1.675v-11.089h-2.152v.949-.949zm48.532 0l-2.772 2.767h5.545l-2.773-2.767zm-22.767-.021v2.335c2.952.484 5.197 3.02 5.197 6.11 0 3.089-2.245 5.615-5.197 6.096v2.355c4.219-.505 7.509-4.108 7.509-8.451 0-4.34-3.291-7.941-7.509-8.445zm-1.953.063c-4.215.506-7.505 4.107-7.505 8.447 0 4.34 3.291 7.942 7.505 8.446v-2.33c-2.949-.483-5.199-3.024-5.199-6.116 0-3.09 2.249-5.611 5.199-6.093v-2.353zm-13.547 3.41c-2.334 0-4.264 1.897-4.264 4.227v5.692h2.182v-5.692c0-1.162.918-2.078 2.083-2.078 1.162 0 2.081.917 2.081 2.078v5.692h2.162v-5.692c0-2.329-1.907-4.227-4.242-4.227zm24.836.046v5.689c0 2.334 1.909 4.229 4.243 4.229 2.337 0 4.266-1.896 4.266-4.229v-5.689h-2.183v5.689c0 1.163-.917 2.077-2.082 2.077-1.163 0-2.08-.918-2.08-2.077v-5.689h-2.163zm10.679.008v2.273h1.675v11.09h2.154v-11.09h1.683v-2.273h-5.511zm-47.475 10.595l2.773 2.768 2.769-2.768h-5.541z" fill="#00FFC2"/></svg>