<svg xmlns="http://www.w3.org/2000/svg" xmlns:xlink="http://www.w3.org/1999/xlink" viewBox="0 0 761 196"><defs><style>.cls-1{fill:none;}.cls-2{clip-path:url(#clip-path);}.cls-3{clip-path:url(#clip-path-2);}.cls-4{fill:#00ffc2;opacity:0.15;}.cls-5{fill:#3a3a99;}.cls-6{fill:url(#linear-gradient);}.cls-7{opacity:0.85;}.cls-8{fill:#fd9805;}.cls-9{fill:#fec524;}.cls-10{fill:#ffe50a;}.cls-11{fill:#3a3a62;}.cls-12{opacity:0.43;fill:url(#linear-gradient-2);}.cls-13{fill:url(#linear-gradient-3);}.cls-14{fill:url(#linear-gradient-4);}.cls-15{fill:url(#linear-gradient-5);}.cls-16{fill:url(#linear-gradient-6);}.cls-17{fill:url(#linear-gradient-7);}.cls-18{fill:url(#linear-gradient-8);}.cls-19{fill:url(#linear-gradient-9);}.cls-20{fill:url(#linear-gradient-10);}.cls-21{fill:url(#linear-gradient-11);}.cls-22{fill:url(#linear-gradient-12);}</style><clipPath id="clip-path" transform="translate(-535 -2625)"><rect class="cls-1" x="540" y="2630" width="751" height="186"/></clipPath><clipPath id="clip-path-2" transform="translate(-535 -2625)"><rect class="cls-1" width="1440" height="4454"/></clipPath><linearGradient id="linear-gradient" x1="1323.09" y1="2955.81" x2="-130.48" y2="2347.99" gradientUnits="userSpaceOnUse"><stop offset="0" stop-color="#38ffbf" stop-opacity="0"/><stop offset="0.09" stop-color="#38ffbf" stop-opacity="0.05"/><stop offset="0.25" stop-color="#37ffbf" stop-opacity="0.17"/><stop offset="0.46" stop-color="#35ffbe" stop-opacity="0.38"/><stop offset="0.72" stop-color="#33ffbe" stop-opacity="0.66"/><stop offset="1" stop-color="#30ffbd"/></linearGradient><linearGradient id="linear-gradient-2" x1="578.15" y1="43.97" x2="577.52" y2="95.38" gradientUnits="userSpaceOnUse"><stop offset="0" stop-color="#ee85ff"/><stop offset="1" stop-color="#ffe829"/></linearGradient><linearGradient id="linear-gradient-3" x1="46.78" y1="36.13" x2="27.37" y2="28.02" xlink:href="#linear-gradient"/><linearGradient id="linear-gradient-4" x1="155.97" y1="25.99" x2="136.56" y2="17.88" xlink:href="#linear-gradient"/><linearGradient id="linear-gradient-5" x1="316.23" y1="131.06" x2="296.83" y2="122.95" xlink:href="#linear-gradient"/><linearGradient id="linear-gradient-6" x1="373.04" y1="69.18" x2="353.64" y2="61.07" xlink:href="#linear-gradient"/><linearGradient id="linear-gradient-7" x1="462.29" y1="87.01" x2="442.88" y2="78.9" xlink:href="#linear-gradient"/><linearGradient id="linear-gradient-8" x1="523.56" y1="25.99" x2="504.16" y2="17.88" xlink:href="#linear-gradient"/><linearGradient id="linear-gradient-9" x1="679.19" y1="69.18" x2="659.79" y2="61.07" xlink:href="#linear-gradient"/><linearGradient id="linear-gradient-10" x1="721.31" y1="35.51" x2="701.91" y2="27.4" xlink:href="#linear-gradient"/><linearGradient id="linear-gradient-11" x1="70.1" y1="91.82" x2="50.69" y2="83.71" xlink:href="#linear-gradient"/><linearGradient id="linear-gradient-12" x1="263.29" y1="25.99" x2="243.88" y2="17.88" xlink:href="#linear-gradient"/></defs><title>Asset 10</title><g id="Layer_2" data-name="Layer 2"><g id="Layer_1-2" data-name="Layer 1"><g class="cls-2"><g class="cls-3"><rect class="cls-4" width="761" height="196"/></g></g><rect class="cls-5" x="540" y="2630" width="751" height="186" transform="translate(1296 2821) rotate(180)"/><path class="cls-6" d="M1291,2767.12c-22.58-19-58.94-43.67-107.18-50.84-36.07-5.36-81.21,8-170,35-76.89,23.36-115.74,39.19-180.49,42.05-19.53.86-34.65,1.81-55-1.87-63-11.39-81.1-39.53-127.2-52.72-24.32-7-60.77-11-111.13,4.93V2816h751Z" transform="translate(-535 -2625)"/><g class="cls-7"><rect class="cls-8" x="670.12" y="2681.71" width="57.51" height="89.15" rx="28.75" ry="28.75" transform="translate(862.74 2827.58) rotate(-180)"/><path class="cls-9" d="M670.15,2745.89h64.4a0,0,0,0,1,0,0v46.35A23.76,23.76,0,0,1,710.78,2816H693.91a23.76,23.76,0,0,1-23.76-23.76v-46.35A0,0,0,0,1,670.15,2745.89Z" transform="translate(869.69 2936.89) rotate(180)"/><path class="cls-9" d="M681.71,2745.89H723a0,0,0,0,1,0,0v49.48A20.64,20.64,0,0,1,702.35,2816h0a20.64,20.64,0,0,1-20.64-20.64v-49.48A0,0,0,0,1,681.71,2745.89Z" transform="translate(869.69 2936.89) rotate(180)"/><path class="cls-10" d="M702.81,2742h0a6.79,6.79,0,0,1,6.79,6.79v3.57a0,0,0,0,1,0,0H696a0,0,0,0,1,0,0v-3.57A6.79,6.79,0,0,1,702.81,2742Z" transform="translate(870.62 2869.33) rotate(180)"/><circle class="cls-10" cx="165.36" cy="93.64" r="24.92"/><path class="cls-8" d="M699,2681.72c15.91.08,28.61,13.37,28.61,29.29v3.35h0v39.91a4.51,4.51,0,0,1-4.51,4.51h0a4.51,4.51,0,0,1-4.51-4.51v-26.73c1.51.17,3.16-.11,5.39-3.85a2.89,2.89,0,0,0,.44-1.62,5.21,5.21,0,0,0-6.41-4.81,13.36,13.36,0,0,1-11.48-9,21.88,21.88,0,0,1-36.36.39A28.75,28.75,0,0,1,699,2681.72Z" transform="translate(-535 -2625)"/><rect class="cls-10" x="722.98" y="2776.71" width="11.56" height="39.29" transform="translate(922.53 2967.71) rotate(180)"/><rect class="cls-10" x="670.15" y="2776.71" width="11.56" height="39.29" transform="translate(816.86 2967.71) rotate(180)"/><circle class="cls-11" cx="171.95" cy="97.02" r="1.71"/><circle class="cls-11" cx="153.92" cy="97.02" r="1.71"/><path class="cls-11" d="M697.74,2731.65h0a4.6,4.6,0,0,1,4.6,4.6v1.22a0,0,0,0,1,0,0h-9.21a0,0,0,0,1,0,0v-1.22A4.6,4.6,0,0,1,697.74,2731.65Z" transform="translate(860.49 2844.12) rotate(-180)"/></g><g class="cls-7"><rect class="cls-8" x="231.02" y="56.71" width="57.51" height="89.15" rx="28.75" ry="28.75"/><path class="cls-9" d="M247.86,120.89h16.87a23.76,23.76,0,0,1,23.76,23.76V191a0,0,0,0,1,0,0h-64.4a0,0,0,0,1,0,0V144.65A23.76,23.76,0,0,1,247.86,120.89Z"/><path class="cls-9" d="M256.29,120.89h0a20.64,20.64,0,0,1,20.64,20.64V191a0,0,0,0,1,0,0H235.66a0,0,0,0,1,0,0V141.52A20.64,20.64,0,0,1,256.29,120.89Z"/><path class="cls-10" d="M249,117h13.58a0,0,0,0,1,0,0v3.57a6.79,6.79,0,0,1-6.79,6.79h0a6.79,6.79,0,0,1-6.79-6.79V117A0,0,0,0,1,249,117Z"/><circle class="cls-10" cx="258.28" cy="93.64" r="24.92"/><path class="cls-8" d="M794.62,2681.72c-15.91.08-28.61,13.37-28.61,29.29v3.35h0v39.91a4.51,4.51,0,0,0,4.51,4.51h0a4.51,4.51,0,0,0,4.51-4.51v-26.73c-1.51.17-3.16-.11-5.39-3.85a2.89,2.89,0,0,1-.44-1.62,5.21,5.21,0,0,1,6.41-4.81,13.36,13.36,0,0,0,11.48-9,21.88,21.88,0,0,0,36.36.39A28.75,28.75,0,0,0,794.62,2681.72Z" transform="translate(-535 -2625)"/><rect class="cls-10" x="224.09" y="151.71" width="11.56" height="39.29"/><rect class="cls-10" x="276.93" y="151.71" width="11.56" height="39.29"/><circle class="cls-11" cx="251.69" cy="97.02" r="1.71"/><circle class="cls-11" cx="269.72" cy="97.02" r="1.71"/><path class="cls-11" d="M256.29,106.65h9.21a0,0,0,0,1,0,0v1.22a4.6,4.6,0,0,1-4.6,4.6h0a4.6,4.6,0,0,1-4.6-4.6v-1.22A0,0,0,0,1,256.29,106.65Z"/></g><path class="cls-8" d="M1093.57,2668.63h38.51a7.7,7.7,0,0,1,7.7,7.7v38.51l-27,15.4-27-15.4v-38.51A7.7,7.7,0,0,1,1093.57,2668.63Z" transform="translate(-535 -2625)"/><polygon class="cls-12" points="589.37 43.63 566.27 43.63 566.27 98.64 577.82 105.24 589.37 98.64 589.37 43.63"/><path class="cls-10" d="M1151,2743.55a5.59,5.59,0,0,0-4.44-3.75l-20-3.08-8.71-18.67a5.55,5.55,0,0,0-10.07,0l-8.71,18.67-20,3.08a5.6,5.6,0,0,0-3.14,9.43l14.68,15.14-3.41,21a5.6,5.6,0,0,0,2.28,5.47,5.53,5.53,0,0,0,5.89.33l17.47-9.71,17.47,9.71a5.57,5.57,0,0,0,8.17-5.8l-3.41-21,14.69-15.14A5.65,5.65,0,0,0,1151,2743.55Z" transform="translate(-535 -2625)"/><path class="cls-9" d="M1112.82,2749.49a7.7,7.7,0,1,1-7.7,7.7A7.7,7.7,0,0,1,1112.82,2749.49Z" transform="translate(-535 -2625)"/><path class="cls-9" d="M1132.07,2668.63h-38.51a7.7,7.7,0,0,0-7.7,7.7h53.91A7.7,7.7,0,0,0,1132.07,2668.63Z" transform="translate(-535 -2625)"/><rect class="cls-8" x="566.27" y="43.63" width="23.1" height="7.7"/><rect class="cls-8" x="179.31" y="23.7" width="71.64" height="111.07" rx="35.82" ry="35.82"/><path class="cls-9" d="M194.45,103.65h32.7a23.76,23.76,0,0,1,23.76,23.76V191a0,0,0,0,1,0,0H170.69a0,0,0,0,1,0,0V127.42A23.76,23.76,0,0,1,194.45,103.65Z"/><path class="cls-9" d="M208.86,103.65h3.89a23.76,23.76,0,0,1,23.76,23.76V191a0,0,0,0,1,0,0H185.09a0,0,0,0,1,0,0V127.42A23.76,23.76,0,0,1,208.86,103.65Z"/><path class="cls-10" d="M201.77,98.79h16.91a0,0,0,0,1,0,0v4.45a8.46,8.46,0,0,1-8.46,8.46h0a8.46,8.46,0,0,1-8.46-8.46V98.79A0,0,0,0,1,201.77,98.79Z"/><circle class="cls-10" cx="213.28" cy="69.71" r="31.05"/><path class="cls-8" d="M750,2648.7c-19.82.1-35.64,16.66-35.64,36.49v4.17h0v49.72a5.62,5.62,0,0,0,5.62,5.62h0a5.62,5.62,0,0,0,5.62-5.62v-33.3c-1.88.22-3.94-.14-6.72-4.8a3.6,3.6,0,0,1-.54-2,6.49,6.49,0,0,1,8-6,16.64,16.64,0,0,0,14.3-11.27,27.26,27.26,0,0,0,45.29.48A35.82,35.82,0,0,0,750,2648.7Z" transform="translate(-535 -2625)"/><rect class="cls-10" x="170.69" y="142.05" width="14.41" height="48.95"/><rect class="cls-10" x="236.51" y="142.05" width="14.41" height="48.95"/><circle class="cls-11" cx="205.07" cy="73.91" r="2.13"/><circle class="cls-11" cx="227.53" cy="73.91" r="2.13"/><path class="cls-11" d="M210.8,85.91h11.47a0,0,0,0,1,0,0v1.51a5.74,5.74,0,0,1-5.74,5.74h0a5.74,5.74,0,0,1-5.74-5.74V85.91A0,0,0,0,1,210.8,85.91Z"/><circle class="cls-13" cx="41.31" cy="33.85" r="4.81"/><circle class="cls-14" cx="150.5" cy="23.7" r="4.81"/><circle class="cls-15" cx="310.76" cy="128.78" r="4.81"/><circle class="cls-16" cx="367.57" cy="66.89" r="4.81"/><circle class="cls-17" cx="456.82" cy="84.73" r="4.81"/><circle class="cls-18" cx="518.09" cy="23.7" r="4.81"/><circle class="cls-19" cx="673.72" cy="66.89" r="4.81"/><circle class="cls-20" cx="715.84" cy="33.23" r="4.81"/><circle class="cls-21" cx="64.63" cy="89.54" r="4.81"/><circle class="cls-22" cx="257.82" cy="23.7" r="4.81"/><path id="_Path_" data-name="&lt;Path&gt;" class="cls-8" d="M841,2663.66a5.43,5.43,0,1,1-5.43-5.43,5.43,5.43,0,0,1,5.43,5.43" transform="translate(-535 -2625)"/><path id="_Path_2" data-name="&lt;Path&gt;" class="cls-8" d="M876.25,2712.74a5.43,5.43,0,1,1-5.43-5.43,5.43,5.43,0,0,1,5.43,5.43" transform="translate(-535 -2625)"/><path id="_Path_3" data-name="&lt;Path&gt;" class="cls-8" d="M856,2770.87a5.43,5.43,0,1,1-5.43-5.43,5.43,5.43,0,0,1,5.43,5.43" transform="translate(-535 -2625)"/><path id="_Path_4" data-name="&lt;Path&gt;" class="cls-8" d="M690.93,2663.66a5.43,5.43,0,1,1-5.43-5.43,5.43,5.43,0,0,1,5.43,5.43" transform="translate(-535 -2625)"/><path id="_Path_5" data-name="&lt;Path&gt;" class="cls-8" d="M649.17,2710.91a5.43,5.43,0,1,1-5.43-5.43,5.43,5.43,0,0,1,5.43,5.43" transform="translate(-535 -2625)"/></g></g></svg>