<?xml version="1.0" encoding="utf-8"?>
<!-- Generator: Adobe Illustrator 21.1.0, SVG Export Plug-In . SVG Version: 6.00 Build 0)  -->
<svg version="1.1" id="Layer_1" xmlns="http://www.w3.org/2000/svg" xmlns:xlink="http://www.w3.org/1999/xlink" x="0px" y="0px"
	 viewBox="0 0 751 186" style="enable-background:new 0 0 751 186;" xml:space="preserve">
<style type="text/css">
	.st0{clip-path:url(#SVGID_2_);}
	.st1{clip-path:url(#SVGID_4_);}
	.st2{opacity:0.15;fill:#00FFC2;enable-background:new    ;}
	.st3{fill:#3A3A99;}
	.st4{fill:url(#SVGID_5_);}
	.st5{opacity:0.85;}
	.st6{fill:#FD9805;}
	.st7{fill:#FEC524;}
	.st8{fill:#FFE50A;}
	.st9{fill:#3A3A62;}
	.st10{opacity:0.43;fill:url(#SVGID_6_);enable-background:new    ;}
	.st11{fill:url(#SVGID_7_);}
	.st12{fill:url(#SVGID_8_);}
	.st13{fill:url(#SVGID_9_);}
	.st14{fill:url(#SVGID_10_);}
	.st15{fill:url(#SVGID_11_);}
	.st16{fill:url(#SVGID_12_);}
	.st17{fill:url(#SVGID_13_);}
	.st18{fill:url(#SVGID_14_);}
	.st19{fill:url(#SVGID_15_);}
	.st20{fill:url(#SVGID_16_);}
</style>
<title>Asset 10</title>
<g>
	<g>
		<g id="Layer_2">
			<defs>
				<rect id="SVGID_1_" x="0" width="751" height="186"/>
			</defs>
			<clipPath id="SVGID_2_">
				<use xlink:href="#SVGID_1_"  style="overflow:visible;"/>
			</clipPath>
			<g id="Layer_1-2" class="st0">
				<g>
					<defs>
						<rect id="SVGID_3_" x="-540" y="-2630" width="1440" height="4454"/>
					</defs>
					<clipPath id="SVGID_4_">
						<use xlink:href="#SVGID_3_"  style="overflow:visible;"/>
					</clipPath>
					<g class="st1">
						<rect x="-5" y="-5" class="st2" width="761" height="196"/>
					</g>
				</g>
				<rect x="0" class="st3" width="751" height="186"/>
				
					<linearGradient id="SVGID_5_" gradientUnits="userSpaceOnUse" x1="1318.0907" y1="-2762.8086" x2="-135.4793" y2="-2154.9888" gradientTransform="matrix(1 0 0 -1 -535 -2437)">
					<stop  offset="0" style="stop-color:#38FFBF;stop-opacity:0"/>
					<stop  offset="9.000000e-02" style="stop-color:#38FFBF;stop-opacity:5.000000e-02"/>
					<stop  offset="0.25" style="stop-color:#37FFBF;stop-opacity:0.17"/>
					<stop  offset="0.46" style="stop-color:#35FFBE;stop-opacity:0.38"/>
					<stop  offset="0.72" style="stop-color:#33FFBE;stop-opacity:0.66"/>
					<stop  offset="1" style="stop-color:#30FFBD"/>
				</linearGradient>
				<path class="st4" d="M751,137.1c-22.6-19-58.9-43.7-107.2-50.8c-36.1-5.4-81.2,8-170,35c-76.9,23.4-115.7,39.2-180.5,42.1
					c-19.5,0.9-34.7,1.8-55-1.9c-63-11.4-81.1-39.5-127.2-52.7c-24.3-7-60.8-11-111.1,4.9V186h751V137.1z"/>
				<g class="st5">
					<path class="st6" d="M158.9,140.9L158.9,140.9c-15.9,0-28.8-12.9-28.8-28.8V80.5c0-15.9,12.9-28.8,28.8-28.8h0
						c15.9,0,28.8,12.9,28.8,28.8v31.6C187.6,128,174.7,140.9,158.9,140.9z"/>
					<path class="st7" d="M194.5,186h-64.4l0,0v-46.4c0-13.1,10.6-23.8,23.8-23.8c0,0,0,0,0,0h16.9c13.1,0,23.8,10.6,23.8,23.8l0,0
						L194.5,186L194.5,186z"/>
					<path class="st7" d="M183,186h-41.3l0,0v-49.5c0-11.4,9.3-20.6,20.6-20.6c0,0,0,0,0,0l0,0c11.4,0,20.6,9.2,20.6,20.6L183,186
						L183,186z"/>
					<path class="st8" d="M162.8,122.3L162.8,122.3c-3.8,0-6.8-3-6.8-6.8l0,0V112l0,0h13.6l0,0v3.6
						C169.6,119.3,166.6,122.3,162.8,122.3C162.8,122.3,162.8,122.3,162.8,122.3z"/>
					<circle class="st8" cx="160.4" cy="88.6" r="24.9"/>
					<path class="st6" d="M159,51.7c15.9,0.1,28.6,13.4,28.6,29.3v3.4l0,0v39.9c0,2.5-2,4.5-4.5,4.5l0,0l0,0c-2.5,0-4.5-2-4.5-4.5
						l0,0V97.5c1.5,0.2,3.2-0.1,5.4-3.9c0.3-0.5,0.5-1,0.4-1.6c-0.1-2.9-2.6-5.1-5.5-4.9c-0.3,0-0.6,0.1-0.9,0.1
						c-5.3-0.5-9.8-4-11.5-9c-6.6,10.1-20.2,12.9-30.3,6.3c-2.4-1.6-4.5-3.6-6.1-5.9C131.1,63.5,143.8,51.6,159,51.7z"/>
					<rect x="183" y="146.7" class="st8" width="11.6" height="39.3"/>
					<rect x="130.2" y="146.7" class="st8" width="11.6" height="39.3"/>
					<circle class="st9" cx="167" cy="92" r="1.7"/>
					<circle class="st9" cx="148.9" cy="92" r="1.7"/>
					<path class="st9" d="M157.8,107.5L157.8,107.5c-2.5,0-4.6-2.1-4.6-4.6l0,0v-1.2l0,0h9.2l0,0v1.2
						C162.4,105.4,160.3,107.5,157.8,107.5C157.8,107.5,157.8,107.5,157.8,107.5z"/>
				</g>
				<g class="st5">
					<path class="st6" d="M254.8,51.7L254.8,51.7c15.9,0,28.8,12.9,28.8,28.8v31.7c0,15.9-12.9,28.8-28.8,28.8h0
						c-15.9,0-28.8-12.9-28.8-28.8V80.5C226,64.6,238.9,51.7,254.8,51.7z"/>
					<path class="st7" d="M242.9,115.9h16.9c13.1,0,23.8,10.6,23.8,23.8l0,0V186l0,0h-64.4l0,0v-46.4
						C219.1,126.5,229.7,115.9,242.9,115.9C242.9,115.9,242.9,115.9,242.9,115.9z"/>
					<path class="st7" d="M251.3,115.9L251.3,115.9c11.4,0,20.6,9.2,20.6,20.6V186l0,0h-41.3l0,0v-49.5
						C230.7,125.1,239.9,115.9,251.3,115.9z"/>
					<path class="st8" d="M244,112h13.6l0,0v3.6c0,3.8-3,6.8-6.8,6.8l0,0c-3.8,0-6.8-3-6.8-6.8V112L244,112z"/>
					<circle class="st8" cx="253.3" cy="88.6" r="24.9"/>
					<path class="st6" d="M254.6,51.7C238.7,51.8,226,65.1,226,81v3.4l0,0v39.9c0,2.5,2,4.5,4.5,4.5l0,0l0,0c2.5,0,4.5-2,4.5-4.5
						l0,0V97.5c-1.5,0.2-3.2-0.1-5.4-3.9c-0.3-0.5-0.5-1-0.4-1.6c0.1-2.9,2.6-5.1,5.5-4.9c0.3,0,0.6,0.1,0.9,0.1
						c5.3-0.5,9.8-4,11.5-9c6.6,10.1,20.2,12.9,30.3,6.3c2.4-1.6,4.5-3.6,6.1-5.9C282.5,63.5,269.8,51.6,254.6,51.7z"/>
					<rect x="219.1" y="146.7" class="st8" width="11.6" height="39.3"/>
					<rect x="271.9" y="146.7" class="st8" width="11.6" height="39.3"/>
					<circle class="st9" cx="246.7" cy="92" r="1.7"/>
					<circle class="st9" cx="264.7" cy="92" r="1.7"/>
					<path class="st9" d="M251.3,101.7h9.2l0,0v1.2c0,2.5-2.1,4.6-4.6,4.6l0,0l0,0c-2.5,0-4.6-2.1-4.6-4.6c0,0,0,0,0,0L251.3,101.7
						L251.3,101.7z"/>
				</g>
				<path class="st6" d="M553.6,38.6h38.5c4.3,0,7.7,3.4,7.7,7.7v38.5l-27,15.4l-27-15.4V46.3C545.8,42.1,549.2,38.6,553.6,38.6
					C553.5,38.6,553.5,38.6,553.6,38.6z"/>
				
					<linearGradient id="SVGID_6_" gradientUnits="userSpaceOnUse" x1="573.153" y1="149.03" x2="572.5229" y2="97.62" gradientTransform="matrix(1 0 0 -1 0 188)">
					<stop  offset="0" style="stop-color:#EE85FF"/>
					<stop  offset="1" style="stop-color:#FFE829"/>
				</linearGradient>
				<polygon class="st10" points="584.4,38.6 561.3,38.6 561.3,93.6 572.8,100.2 584.4,93.6 				"/>
				<path class="st8" d="M611,113.6c-0.7-2-2.4-3.4-4.4-3.8l-20-3.1l-8.7-18.7c-1.3-2.8-4.6-4-7.4-2.7c-1.2,0.6-2.1,1.5-2.7,2.7
					l-8.7,18.7l-20,3.1c-3.1,0.5-5.1,3.4-4.7,6.4c0.2,1.1,0.7,2.2,1.5,3l14.7,15.1l-3.4,21c-0.3,2.1,0.5,4.2,2.3,5.5
					c1.7,1.2,4,1.4,5.9,0.3l17.5-9.7l17.5,9.7c2.7,1.5,6.1,0.5,7.6-2.2c0.6-1.1,0.8-2.4,0.6-3.6l-3.4-21l14.7-15.1
					C611.2,117.7,611.7,115.5,611,113.6z"/>
				<path class="st7" d="M572.8,119.5c4.3,0,7.7,3.4,7.7,7.7s-3.4,7.7-7.7,7.7c-4.3,0-7.7-3.4-7.7-7.7l0,0
					C565.1,122.9,568.6,119.5,572.8,119.5z"/>
				<path class="st7" d="M592.1,38.6h-38.5c-4.3,0-7.7,3.4-7.7,7.7h53.9C599.8,42.1,596.3,38.6,592.1,38.6L592.1,38.6z"/>
				<rect x="561.3" y="38.6" class="st6" width="23.1" height="7.7"/>
				<path class="st6" d="M210.1,18.7L210.1,18.7c19.8,0,35.8,16,35.8,35.8V94c0,19.8-16,35.8-35.8,35.8l0,0
					c-19.8,0-35.8-16-35.8-35.8V54.5C174.3,34.7,190.3,18.7,210.1,18.7z"/>
				<path class="st7" d="M189.5,98.7h32.7c13.1,0,23.8,10.6,23.8,23.8V186l0,0h-80.2l0,0v-63.6C165.7,109.3,176.3,98.7,189.5,98.7
					C189.4,98.7,189.4,98.7,189.5,98.7z"/>
				<path class="st7" d="M203.9,98.7h3.9c13.1,0,23.8,10.6,23.8,23.8V186l0,0h-51.4l0,0v-63.6C180.1,109.3,190.7,98.7,203.9,98.7
					C203.8,98.7,203.9,98.7,203.9,98.7z"/>
				<path class="st8" d="M196.8,93.8h16.9l0,0v4.4c0,4.7-3.8,8.5-8.5,8.5l0,0l0,0c-4.7,0-8.5-3.8-8.5-8.5c0,0,0,0,0,0L196.8,93.8
					L196.8,93.8z"/>
				<circle class="st8" cx="208.3" cy="64.7" r="31.1"/>
				<path class="st6" d="M210,18.7c-19.8,0.1-35.6,16.7-35.6,36.5v4.2l0,0v49.7c0,3.1,2.5,5.6,5.6,5.6c0,0,0,0,0,0l0,0
					c3.1,0,5.6-2.5,5.6-5.6l0,0V75.8c-1.9,0.2-3.9-0.1-6.7-4.8c-0.4-0.6-0.6-1.3-0.5-2c0.2-3.6,3.2-6.3,6.8-6.2
					c0.4,0,0.8,0.1,1.2,0.2c6.6-0.6,12.2-5,14.3-11.3c8.2,12.6,25.1,16.1,37.7,7.9c3-1.9,5.5-4.5,7.6-7.4
					C244.7,33.3,228.9,18.6,210,18.7z"/>
				<rect x="165.7" y="137.1" class="st8" width="14.4" height="48.9"/>
				<rect x="231.5" y="137.1" class="st8" width="14.4" height="48.9"/>
				<circle class="st9" cx="200.1" cy="68.9" r="2.1"/>
				<circle class="st9" cx="222.5" cy="68.9" r="2.1"/>
				<path class="st9" d="M205.8,80.9h11.5l0,0v1.5c0,3.2-2.6,5.7-5.7,5.7l0,0l0,0c-3.2,0-5.7-2.6-5.7-5.7l0,0L205.8,80.9L205.8,80.9
					z"/>
				
					<linearGradient id="SVGID_7_" gradientUnits="userSpaceOnUse" x1="41.7781" y1="156.8653" x2="22.3681" y2="164.9753" gradientTransform="matrix(1 0 0 -1 0 188)">
					<stop  offset="0" style="stop-color:#38FFBF;stop-opacity:0"/>
					<stop  offset="9.000000e-02" style="stop-color:#38FFBF;stop-opacity:5.000000e-02"/>
					<stop  offset="0.25" style="stop-color:#37FFBF;stop-opacity:0.17"/>
					<stop  offset="0.46" style="stop-color:#35FFBE;stop-opacity:0.38"/>
					<stop  offset="0.72" style="stop-color:#33FFBE;stop-opacity:0.66"/>
					<stop  offset="1" style="stop-color:#30FFBD"/>
				</linearGradient>
				<circle class="st11" cx="36.3" cy="28.8" r="4.8"/>
				
					<linearGradient id="SVGID_8_" gradientUnits="userSpaceOnUse" x1="150.9717" y1="167.0138" x2="131.5617" y2="175.1238" gradientTransform="matrix(1 0 0 -1 0 188)">
					<stop  offset="0" style="stop-color:#38FFBF;stop-opacity:0"/>
					<stop  offset="9.000000e-02" style="stop-color:#38FFBF;stop-opacity:5.000000e-02"/>
					<stop  offset="0.25" style="stop-color:#37FFBF;stop-opacity:0.17"/>
					<stop  offset="0.46" style="stop-color:#35FFBE;stop-opacity:0.38"/>
					<stop  offset="0.72" style="stop-color:#33FFBE;stop-opacity:0.66"/>
					<stop  offset="1" style="stop-color:#30FFBD"/>
				</linearGradient>
				<circle class="st12" cx="145.5" cy="18.7" r="4.8"/>
				
					<linearGradient id="SVGID_9_" gradientUnits="userSpaceOnUse" x1="311.2277" y1="61.9343" x2="291.8277" y2="70.0443" gradientTransform="matrix(1 0 0 -1 0 188)">
					<stop  offset="0" style="stop-color:#38FFBF;stop-opacity:0"/>
					<stop  offset="9.000000e-02" style="stop-color:#38FFBF;stop-opacity:5.000000e-02"/>
					<stop  offset="0.25" style="stop-color:#37FFBF;stop-opacity:0.17"/>
					<stop  offset="0.46" style="stop-color:#35FFBE;stop-opacity:0.38"/>
					<stop  offset="0.72" style="stop-color:#33FFBE;stop-opacity:0.66"/>
					<stop  offset="1" style="stop-color:#30FFBD"/>
				</linearGradient>
				<circle class="st13" cx="305.8" cy="123.8" r="4.8"/>
				
					<linearGradient id="SVGID_10_" gradientUnits="userSpaceOnUse" x1="368.0413" y1="123.8228" x2="348.6413" y2="131.9328" gradientTransform="matrix(1 0 0 -1 0 188)">
					<stop  offset="0" style="stop-color:#38FFBF;stop-opacity:0"/>
					<stop  offset="9.000000e-02" style="stop-color:#38FFBF;stop-opacity:5.000000e-02"/>
					<stop  offset="0.25" style="stop-color:#37FFBF;stop-opacity:0.17"/>
					<stop  offset="0.46" style="stop-color:#35FFBE;stop-opacity:0.38"/>
					<stop  offset="0.72" style="stop-color:#33FFBE;stop-opacity:0.66"/>
					<stop  offset="1" style="stop-color:#30FFBD"/>
				</linearGradient>
				<circle class="st14" cx="362.6" cy="61.9" r="4.8"/>
				
					<linearGradient id="SVGID_11_" gradientUnits="userSpaceOnUse" x1="457.2881" y1="105.9853" x2="437.8781" y2="114.0953" gradientTransform="matrix(1 0 0 -1 0 188)">
					<stop  offset="0" style="stop-color:#38FFBF;stop-opacity:0"/>
					<stop  offset="9.000000e-02" style="stop-color:#38FFBF;stop-opacity:5.000000e-02"/>
					<stop  offset="0.25" style="stop-color:#37FFBF;stop-opacity:0.17"/>
					<stop  offset="0.46" style="stop-color:#35FFBE;stop-opacity:0.38"/>
					<stop  offset="0.72" style="stop-color:#33FFBE;stop-opacity:0.66"/>
					<stop  offset="1" style="stop-color:#30FFBD"/>
				</linearGradient>
				<circle class="st15" cx="451.8" cy="79.7" r="4.8"/>
				
					<linearGradient id="SVGID_12_" gradientUnits="userSpaceOnUse" x1="518.5612" y1="167.0128" x2="499.1613" y2="175.1228" gradientTransform="matrix(1 0 0 -1 0 188)">
					<stop  offset="0" style="stop-color:#38FFBF;stop-opacity:0"/>
					<stop  offset="9.000000e-02" style="stop-color:#38FFBF;stop-opacity:5.000000e-02"/>
					<stop  offset="0.25" style="stop-color:#37FFBF;stop-opacity:0.17"/>
					<stop  offset="0.46" style="stop-color:#35FFBE;stop-opacity:0.38"/>
					<stop  offset="0.72" style="stop-color:#33FFBE;stop-opacity:0.66"/>
					<stop  offset="1" style="stop-color:#30FFBD"/>
				</linearGradient>
				<circle class="st16" cx="513.1" cy="18.7" r="4.8"/>
				
					<linearGradient id="SVGID_13_" gradientUnits="userSpaceOnUse" x1="674.1912" y1="123.8228" x2="654.7912" y2="131.9328" gradientTransform="matrix(1 0 0 -1 0 188)">
					<stop  offset="0" style="stop-color:#38FFBF;stop-opacity:0"/>
					<stop  offset="9.000000e-02" style="stop-color:#38FFBF;stop-opacity:5.000000e-02"/>
					<stop  offset="0.25" style="stop-color:#37FFBF;stop-opacity:0.17"/>
					<stop  offset="0.46" style="stop-color:#35FFBE;stop-opacity:0.38"/>
					<stop  offset="0.72" style="stop-color:#33FFBE;stop-opacity:0.66"/>
					<stop  offset="1" style="stop-color:#30FFBD"/>
				</linearGradient>
				<circle class="st17" cx="668.7" cy="61.9" r="4.8"/>
				
					<linearGradient id="SVGID_14_" gradientUnits="userSpaceOnUse" x1="716.3077" y1="157.4843" x2="696.9077" y2="165.5943" gradientTransform="matrix(1 0 0 -1 0 188)">
					<stop  offset="0" style="stop-color:#38FFBF;stop-opacity:0"/>
					<stop  offset="9.000000e-02" style="stop-color:#38FFBF;stop-opacity:5.000000e-02"/>
					<stop  offset="0.25" style="stop-color:#37FFBF;stop-opacity:0.17"/>
					<stop  offset="0.46" style="stop-color:#35FFBE;stop-opacity:0.38"/>
					<stop  offset="0.72" style="stop-color:#33FFBE;stop-opacity:0.66"/>
					<stop  offset="1" style="stop-color:#30FFBD"/>
				</linearGradient>
				<circle class="st18" cx="710.8" cy="28.2" r="4.8"/>
				
					<linearGradient id="SVGID_15_" gradientUnits="userSpaceOnUse" x1="65.0981" y1="101.1753" x2="45.6881" y2="109.2853" gradientTransform="matrix(1 0 0 -1 0 188)">
					<stop  offset="0" style="stop-color:#38FFBF;stop-opacity:0"/>
					<stop  offset="9.000000e-02" style="stop-color:#38FFBF;stop-opacity:5.000000e-02"/>
					<stop  offset="0.25" style="stop-color:#37FFBF;stop-opacity:0.17"/>
					<stop  offset="0.46" style="stop-color:#35FFBE;stop-opacity:0.38"/>
					<stop  offset="0.72" style="stop-color:#33FFBE;stop-opacity:0.66"/>
					<stop  offset="1" style="stop-color:#30FFBD"/>
				</linearGradient>
				<circle class="st19" cx="59.6" cy="84.5" r="4.8"/>
				
					<linearGradient id="SVGID_16_" gradientUnits="userSpaceOnUse" x1="258.2917" y1="167.0138" x2="238.8817" y2="175.1238" gradientTransform="matrix(1 0 0 -1 0 188)">
					<stop  offset="0" style="stop-color:#38FFBF;stop-opacity:0"/>
					<stop  offset="9.000000e-02" style="stop-color:#38FFBF;stop-opacity:5.000000e-02"/>
					<stop  offset="0.25" style="stop-color:#37FFBF;stop-opacity:0.17"/>
					<stop  offset="0.46" style="stop-color:#35FFBE;stop-opacity:0.38"/>
					<stop  offset="0.72" style="stop-color:#33FFBE;stop-opacity:0.66"/>
					<stop  offset="1" style="stop-color:#30FFBD"/>
				</linearGradient>
				<circle class="st20" cx="252.8" cy="18.7" r="4.8"/>
				<path id="_Path_" class="st6" d="M301,33.7c0,3-2.4,5.4-5.4,5.4c-3,0-5.4-2.4-5.4-5.4c0-3,2.4-5.4,5.4-5.4h0
					C298.6,28.2,301,30.7,301,33.7"/>
				<path id="_Path_2" class="st6" d="M336.3,82.7c0,3-2.4,5.4-5.4,5.4c-3,0-5.4-2.4-5.4-5.4c0-3,2.4-5.4,5.4-5.4h0
					C333.8,77.3,336.2,79.7,336.3,82.7"/>
				<path id="_Path_3" class="st6" d="M316,140.9c0,3-2.4,5.4-5.4,5.4c-3,0-5.4-2.4-5.4-5.4c0-3,2.4-5.4,5.4-5.4h0
					C313.6,135.4,316,137.9,316,140.9"/>
				<path id="_Path_4" class="st6" d="M150.9,33.7c0,3-2.4,5.4-5.4,5.4c-3,0-5.4-2.4-5.4-5.4c0-3,2.4-5.4,5.4-5.4h0
					C148.5,28.2,150.9,30.7,150.9,33.7"/>
				<path id="_Path_5" class="st6" d="M109.2,80.9c0,3-2.4,5.4-5.4,5.4c-3,0-5.4-2.4-5.4-5.4c0-3,2.4-5.4,5.4-5.4h0
					C106.7,75.5,109.2,77.9,109.2,80.9"/>
			</g>
		</g>
	</g>
</g>
</svg>
