<svg xmlns="http://www.w3.org/2000/svg" width="115" height="115" viewBox="-3388.362 3573.45 115 115" enable-background="new -3388.362 3573.45 115 115"><linearGradient id="a" gradientUnits="userSpaceOnUse" x1="-3332.905" y1="3598.778" x2="-3331.263" y2="3653.789"><stop offset="0" stop-color="#38FFBF" stop-opacity="0"/><stop offset=".684" stop-color="#35FFBE" stop-opacity=".684"/><stop offset="1" stop-color="#30FFBD"/></linearGradient><path fill="url(#a)" d="M-3313.202 3643.921l-38.241 3.447v-58.16h38.241z"/><linearGradient id="b" gradientUnits="userSpaceOnUse" x1="-3358.541" y1="3602.617" x2="-3356.793" y2="3661.196"><stop offset="0" stop-color="#38FFBF" stop-opacity="0"/><stop offset=".684" stop-color="#35FFBE" stop-opacity=".684"/><stop offset="1" stop-color="#30FFBD"/></linearGradient><path fill="url(#b)" d="M-3345.121 3653.369l-25.803-6.026v-55.136l25.803.435z"/><linearGradient id="c" gradientUnits="userSpaceOnUse" x1="2270.083" y1="-1742.499" x2="2335.939" y2="-1742.499" gradientTransform="matrix(-.966 -.259 .259 -.966 -647.708 2546.468)"><stop offset="0" stop-color="#38FFBF" stop-opacity="0"/><stop offset=".684" stop-color="#35FFBE" stop-opacity=".684"/><stop offset="1" stop-color="#30FFBD"/></linearGradient><circle fill="url(#c)" cx="-3323.737" cy="3632.301" r="32.928"/><path d="M-3342.395 3594.092h-.679c-.19 0-.345-.156-.345-.345v-.631c0-.19.155-.345.345-.345h.679c.19 0 .345.155.345.345v.631c0 .189-.155.345-.345.345zm0 5.272h-.679c-.19 0-.345-.155-.345-.345v-.631c0-.19.155-.345.345-.345h.679c.19 0 .345.156.345.345v.631c0 .189-.155.345-.345.345zm0 5.157h-.679c-.19 0-.345-.155-.345-.345v-.631c0-.19.155-.345.345-.345h.679c.19 0 .345.156.345.345v.631c0 .19-.155.345-.345.345zm0 4.739h-.679c-.19 0-.345-.155-.345-.345v-.631c0-.19.155-.345.345-.345h.679c.19 0 .345.156.345.345v.631c0 .19-.155.345-.345.345zm0 4.518h-.679c-.19 0-.345-.155-.345-.345v-.631c0-.19.155-.345.345-.345h.679c.19 0 .345.155.345.345v.631c0 .19-.155.345-.345.345zm0 5.273h-.679c-.19 0-.345-.156-.345-.345v-.631c0-.19.155-.345.345-.345h.679c.19 0 .345.155.345.345v.631c0 .189-.155.345-.345.345zm0 5.157h-.679c-.19 0-.345-.156-.345-.345v-.631c0-.19.155-.345.345-.345h.679c.19 0 .345.155.345.345v.631c0 .189-.155.345-.345.345zm-5.983-30.116h-.679c-.19 0-.345-.156-.345-.345v-.631c0-.19.155-.345.345-.345h.679c.19 0 .345.155.345.345v.631c0 .189-.155.345-.345.345zm0 5.272h-.679c-.19 0-.345-.155-.345-.345v-.631c0-.19.155-.345.345-.345h.679c.19 0 .345.156.345.345v.631c0 .189-.155.345-.345.345zm0 5.157h-.679c-.19 0-.345-.155-.345-.345v-.631c0-.19.155-.345.345-.345h.679c.19 0 .345.156.345.345v.631c0 .19-.155.345-.345.345zm0 4.739h-.679c-.19 0-.345-.155-.345-.345v-.631c0-.19.155-.345.345-.345h.679c.19 0 .345.156.345.345v.631c0 .19-.155.345-.345.345zm0 4.518h-.679c-.19 0-.345-.155-.345-.345v-.631c0-.19.155-.345.345-.345h.679c.19 0 .345.155.345.345v.631c0 .19-.155.345-.345.345zm0 5.273h-.679c-.19 0-.345-.156-.345-.345v-.631c0-.19.155-.345.345-.345h.679c.19 0 .345.155.345.345v.631c0 .189-.155.345-.345.345zm0 5.157h-.679c-.19 0-.345-.156-.345-.345v-.631c0-.19.155-.345.345-.345h.679c.19 0 .345.155.345.345v.631c0 .189-.155.345-.345.345zm0 4.739h-.679c-.19 0-.345-.156-.345-.345v-.631c0-.19.155-.345.345-.345h.679c.19 0 .345.155.345.345v.631c0 .19-.155.345-.345.345z" fill="#00FFC2"/><linearGradient id="d" gradientUnits="userSpaceOnUse" x1="-3362.283" y1="3651.285" x2="-3358.2" y2="3664.869"><stop offset="0" stop-color="#388EBF"/><stop offset="1" stop-color="#30F2BB"/></linearGradient><path fill="url(#d)" d="M-3354.57 3653.369v15.152h-9.62l-3.126-13.348-.481-1.804z"/><linearGradient id="e" gradientUnits="userSpaceOnUse" x1="-3351.443" y1="3639.661" x2="-3318.013" y2="3639.661"><stop offset="0" stop-color="#388EBF"/><stop offset="1" stop-color="#30F2BB"/></linearGradient><path fill="url(#e)" d="M-3318.013 3668.521l-33.43-15.152v-27.417l33.43-15.152z"/><linearGradient id="f" gradientUnits="userSpaceOnUse" x1="-3315.988" y1="3616.865" x2="-3315.321" y2="3656.865"><stop offset="0" stop-color="#388EBF"/><stop offset="1" stop-color="#30F2BB"/></linearGradient><path fill="url(#f)" d="M-3318.013 3610.8h4.81v57.721h-4.81z"/><linearGradient id="g" gradientUnits="userSpaceOnUse" x1="-3370.924" y1="3639.721" x2="-3351.443" y2="3639.721"><stop offset="0" stop-color="#388EBF"/><stop offset="1" stop-color="#30F2BB"/></linearGradient><path fill="url(#g)" d="M-3368.519 3625.952c-1.323 0-2.405 1.082-2.405 2.405v22.728c0 1.323 1.082 2.405 2.405 2.405h17.076v-27.538h-17.076z"/><linearGradient id="h" gradientUnits="userSpaceOnUse" x1="-3358.778" y1="3661.667" x2="-3354.57" y2="3661.667"><stop offset="0" stop-color="#388EBF"/><stop offset="1" stop-color="#30F2BB"/></linearGradient><path fill="url(#h)" d="M-3354.57 3660.224h-2.766c-.721 0-1.443.601-1.443 1.443 0 .722.601 1.443 1.443 1.443h2.766v-2.886z"/><linearGradient id="i" gradientUnits="userSpaceOnUse" x1="-3358.778" y1="3657.458" x2="-3354.57" y2="3657.458"><stop offset="0" stop-color="#388EBF"/><stop offset="1" stop-color="#30F2BB"/></linearGradient><path fill="url(#i)" d="M-3354.57 3656.015h-2.766c-.721 0-1.443.601-1.443 1.443 0 .721.601 1.443 1.443 1.443h2.766v-2.886z"/><linearGradient id="j" gradientUnits="userSpaceOnUse" x1="-3358.778" y1="3665.876" x2="-3354.57" y2="3665.876"><stop offset="0" stop-color="#388EBF"/><stop offset="1" stop-color="#30F2BB"/></linearGradient><path fill="url(#j)" d="M-3354.57 3664.433h-2.766c-.721 0-1.443.601-1.443 1.443 0 .721.601 1.443 1.443 1.443h2.766v-2.886z"/></svg>