<?xml version="1.0" encoding="utf-8"?>
<!-- Generator: Adobe Illustrator 19.2.1, SVG Export Plug-In . SVG Version: 6.00 Build 0)  -->
<svg version="1.1"
	 id="svg10502" inkscape:version="0.91 r13725" sodipodi:docname="Theme.svg" xmlns:cc="http://creativecommons.org/ns#" xmlns:dc="http://purl.org/dc/elements/1.1/" xmlns:inkscape="http://www.inkscape.org/namespaces/inkscape" xmlns:rdf="http://www.w3.org/1999/02/22-rdf-syntax-ns#" xmlns:sodipodi="http://sodipodi.sourceforge.net/DTD/sodipodi-0.dtd" xmlns:svg="http://www.w3.org/2000/svg"
	 xmlns="http://www.w3.org/2000/svg" xmlns:xlink="http://www.w3.org/1999/xlink" x="0px" y="0px" width="115px" height="115px"
	 viewBox="-3388.362 3838.445 115 115" enable-background="new -3388.362 3838.445 115 115" xml:space="preserve">
<g>
	
		<linearGradient id="SVGID_2_" gradientUnits="userSpaceOnUse" x1="-1108.5341" y1="6563.3984" x2="-1126.691" y2="6603.9849" gradientTransform="matrix(0.0368 0.9993 -0.9993 0.0368 3264.9001 4774.8813)">
		<stop  offset="0" style="stop-color:#38FFBF;stop-opacity:0"/>
		<stop  offset="0.6845" style="stop-color:#35FFBE;stop-opacity:0.6845"/>
		<stop  offset="1" style="stop-color:#30FFBD"/>
	</linearGradient>
	<circle opacity="0.34" fill="url(#SVGID_2_)" cx="-3355.924" cy="3900.234" r="21.102"/>
	
		<linearGradient id="SVGID_4_" gradientUnits="userSpaceOnUse" x1="1540.0411" y1="3204.3298" x2="1527.5726" y2="3232.2007" gradientTransform="matrix(-0.9231 -0.3845 0.3845 -0.9231 -3127.1868 7463.8892)">
		<stop  offset="0" style="stop-color:#38FFBF;stop-opacity:0"/>
		<stop  offset="0.6845" style="stop-color:#35FFBE;stop-opacity:0.6845"/>
		<stop  offset="1" style="stop-color:#30FFBD"/>
	</linearGradient>
	<circle opacity="0.34" fill="url(#SVGID_4_)" cx="-3305.597" cy="3903.061" r="14.491"/>
	<linearGradient id="SVGID_5_" gradientUnits="userSpaceOnUse" x1="-3331.6467" y1="3850.854" x2="-3329.5459" y2="3921.229">
		<stop  offset="0" style="stop-color:#38FFBF;stop-opacity:0"/>
		<stop  offset="0.6845" style="stop-color:#35FFBE;stop-opacity:0.6845"/>
		<stop  offset="1" style="stop-color:#30FFBD"/>
	</linearGradient>
	<polygon fill="url(#SVGID_5_)" points="-3312.033,3908.146 -3349.78,3912.849 -3349.78,3838.445 -3312.033,3838.445 	"/>
	<g>
		<g>
			<linearGradient id="SVGID_6_" gradientUnits="userSpaceOnUse" x1="-3330.8997" y1="3916.7727" x2="-3330.5554" y2="3877.7258">
				<stop  offset="0" style="stop-color:#388EBF"/>
				<stop  offset="1" style="stop-color:#30F2BB"/>
			</linearGradient>
			<path fill="url(#SVGID_6_)" d="M-3311.944,3912.529c0.006,0.791-0.462,1.503-1.18,1.836c-4.515,2.094-10.792,3.395-17.738,3.395
				s-13.223-1.3-17.738-3.395c-0.718-0.333-1.186-1.045-1.18-1.836c0.142-19.011,3.619-35.602,18.918-35.602
				C-3315.563,3876.927-3312.086,3893.518-3311.944,3912.529z"/>
			<linearGradient id="SVGID_7_" gradientUnits="userSpaceOnUse" x1="-3352.7722" y1="3922.7385" x2="-3308.9521" y2="3922.7385">
				<stop  offset="0" style="stop-color:#388EBF"/>
				<stop  offset="1" style="stop-color:#30F2BB"/>
			</linearGradient>
			<path fill="url(#SVGID_7_)" d="M-3323.891,3915.606v-4.818h-13.943v4.818c0,1.286-0.823,2.428-2.043,2.834l-9.491,3.164
				c-2.033,0.678-3.405,2.581-3.405,4.724v6.37c0,1.1,0.892,1.992,1.992,1.992h39.836c1.1,0,1.992-0.892,1.992-1.992v-6.37
				c0-2.143-1.371-4.046-3.405-4.724l-9.491-3.164C-3323.068,3918.033-3323.891,3916.892-3323.891,3915.606z"/>
			<linearGradient id="SVGID_9_" gradientUnits="userSpaceOnUse" x1="-3331.0952" y1="3919.1216" x2="-3330.6897" y2="3937.1643">
				<stop  offset="0" style="stop-color:#388EBF"/>
				<stop  offset="1" style="stop-color:#30F2BB"/>
			</linearGradient>
			<path fill="url(#SVGID_9_)" d="M-3312.357,3921.604l-7.755-2.585c-3.691,5.008-7.999,7.806-10.75,8.7
				c-2.751-0.894-7.059-3.692-10.75-8.7l-7.755,2.585c-2.033,0.678-3.405,2.581-3.405,4.724v6.37c0,1.1,0.892,1.992,1.992,1.992
				h39.836c1.1,0,1.992-0.892,1.992-1.992v-6.37C-3308.952,3924.184-3310.323,3922.281-3312.357,3921.604z"/>
			<g>
				<linearGradient id="SVGID_10_" gradientUnits="userSpaceOnUse" x1="-3349.2888" y1="3934.1995" x2="-3347.9712" y2="3924.063">
					<stop  offset="0" style="stop-color:#388EBF"/>
					<stop  offset="1" style="stop-color:#30F2BB"/>
				</linearGradient>
				<path fill="url(#SVGID_10_)" d="M-3345.972,3928.543l-5.525-5.525c-0.797,0.892-1.276,2.055-1.276,3.309v6.37
					c0,1.1,0.892,1.992,1.992,1.992h5.976v-3.33C-3344.805,3930.303-3345.224,3929.29-3345.972,3928.543z"/>
				<linearGradient id="SVGID_11_" gradientUnits="userSpaceOnUse" x1="-3313.8254" y1="3938.8098" x2="-3312.5076" y2="3928.6733">
					<stop  offset="0" style="stop-color:#388EBF"/>
					<stop  offset="1" style="stop-color:#30F2BB"/>
				</linearGradient>
				<path fill="url(#SVGID_11_)" d="M-3315.752,3928.543l5.525-5.525c0.797,0.892,1.276,2.055,1.276,3.309v6.37
					c0,1.1-0.892,1.992-1.992,1.992h-5.975v-3.33C-3316.919,3930.303-3316.5,3929.29-3315.752,3928.543z"/>
				<linearGradient id="SVGID_12_" gradientUnits="userSpaceOnUse" x1="-3317.136" y1="3924.2668" x2="-3343.1865" y2="3924.4695">
					<stop  offset="0" style="stop-color:#388EBF"/>
					<stop  offset="1" style="stop-color:#30F2BB"/>
				</linearGradient>
				<path fill="url(#SVGID_12_)" d="M-3343.215,3920.2c4,5.427,8.686,8.421,11.738,9.413l0.615,0.2l0.616-0.2
					c3.052-0.991,7.737-3.985,11.738-9.412l0.357-0.528l-1.96-0.653c-3.691,5.007-7.999,7.806-10.75,8.699
					c-2.751-0.894-7.059-3.692-10.75-8.699l-1.96,0.653L-3343.215,3920.2z"/>
			</g>
			<linearGradient id="SVGID_13_" gradientUnits="userSpaceOnUse" x1="-3330.8418" y1="3888.0161" x2="-3331.0139" y2="3914.5061">
				<stop  offset="0" style="stop-color:#388EBF"/>
				<stop  offset="1" style="stop-color:#30F2BB"/>
			</linearGradient>
			<path fill="url(#SVGID_13_)" d="M-3343.809,3888.878v4.294c0,1.784,0.068,3.568,0.205,5.347l0.574,7.461
				c0.137,1.783,1.066,3.411,2.531,4.437l6.014,4.21c1.061,0.743,2.325,1.142,3.621,1.142h0.003c1.295,0,2.56-0.399,3.621-1.142
				l6.014-4.21c1.465-1.026,2.394-2.654,2.531-4.437l0.574-7.461c0.137-1.779,0.205-3.562,0.205-5.347v-4.294H-3343.809z"/>
			<linearGradient id="SVGID_14_" gradientUnits="userSpaceOnUse" x1="-3331.0857" y1="3916.771" x2="-3330.7417" y2="3877.7241">
				<stop  offset="0" style="stop-color:#388EBF"/>
				<stop  offset="1" style="stop-color:#30F2BB"/>
			</linearGradient>
			<path fill="url(#SVGID_14_)" d="M-3344.805,3887.882v6.971c11.799,0,20.781-4.108,22.285-5.015
				c1.617,4.019,4.53,5.015,4.53,5.015h1.071v-6.971H-3344.805z"/>
			
				<ellipse transform="matrix(0.2235 -0.9747 0.9747 0.2235 -6390.4297 -223.2761)" fill="#3A3A62" cx="-3335.353" cy="3899.29" rx="1.108" ry="1.108"/>
			
				<ellipse transform="matrix(0.2235 -0.9747 0.9747 0.2235 -6382.9648 -214.1004)" fill="#3A3A62" cx="-3325.862" cy="3899.192" rx="1.108" ry="1.108"/>
		</g>
		<linearGradient id="SVGID_15_" gradientUnits="userSpaceOnUse" x1="-3331.6577" y1="3853.8901" x2="-3330.3245" y2="3934.5569">
			<stop  offset="0" style="stop-color:#38FFBF;stop-opacity:0"/>
			<stop  offset="0.6845" style="stop-color:#35FFBE;stop-opacity:0.6845"/>
			<stop  offset="1" style="stop-color:#30FFBD"/>
		</linearGradient>
		<path fill="url(#SVGID_15_)" d="M-3330.862,3863.135c-21.475,0-38.883,17.409-38.883,38.883c0,21.475,17.409,38.884,38.883,38.884
			s38.883-17.409,38.883-38.884C-3291.979,3880.544-3309.388,3863.135-3330.862,3863.135z M-3330.862,3932.361
			c-16.757,0-30.342-13.584-30.342-30.342s13.584-30.342,30.342-30.342s30.342,13.584,30.342,30.342
			S-3314.105,3932.361-3330.862,3932.361z"/>
		<linearGradient id="SVGID_16_" gradientUnits="userSpaceOnUse" x1="-3377.1711" y1="3901.8574" x2="-3365.3752" y2="3901.2021">
			<stop  offset="0" style="stop-color:#388EBF"/>
			<stop  offset="1" style="stop-color:#30F2BB"/>
		</linearGradient>
		<rect x="-3377.031" y="3900.234" fill="url(#SVGID_16_)" width="7.285" height="2.826"/>
		<linearGradient id="SVGID_17_" gradientUnits="userSpaceOnUse" x1="-3292.1194" y1="3901.8574" x2="-3280.3235" y2="3901.2021">
			<stop  offset="0" style="stop-color:#388EBF"/>
			<stop  offset="1" style="stop-color:#30F2BB"/>
		</linearGradient>
		<rect x="-3291.979" y="3900.234" fill="url(#SVGID_17_)" width="7.285" height="2.826"/>
		
			<linearGradient id="SVGID_18_" gradientUnits="userSpaceOnUse" x1="-1046.7209" y1="6594.1201" x2="-1034.9252" y2="6593.4648" gradientTransform="matrix(4.489700e-11 1 -1 4.489700e-11 3263.0476 4902.0596)">
			<stop  offset="0" style="stop-color:#388EBF"/>
			<stop  offset="1" style="stop-color:#30F2BB"/>
		</linearGradient>
		<polygon fill="url(#SVGID_18_)" points="-3332.276,3862.764 -3332.276,3855.479 -3329.449,3855.479 -3329.449,3862.764 		"/>
		
			<linearGradient id="SVGID_19_" gradientUnits="userSpaceOnUse" x1="-961.6693" y1="6594.1201" x2="-949.8735" y2="6593.4648" gradientTransform="matrix(4.489700e-11 1 -1 4.489700e-11 3263.0476 4902.0596)">
			<stop  offset="0" style="stop-color:#388EBF"/>
			<stop  offset="1" style="stop-color:#30F2BB"/>
		</linearGradient>
		<polygon fill="url(#SVGID_19_)" points="-3332.276,3947.815 -3332.276,3940.531 -3329.449,3940.531 -3329.449,3947.815 		"/>
	</g>
	<g>
		<path fill="#00FFC2" d="M-3300.866,3862.487h-0.679c-0.19,0-0.345-0.156-0.345-0.345v-0.631c0-0.19,0.156-0.345,0.345-0.345h0.679
			c0.19,0,0.345,0.156,0.345,0.345l0,0.631C-3300.521,3862.332-3300.676,3862.487-3300.866,3862.487z"/>
		<path fill="#00FFC2" d="M-3300.866,3867.76h-0.679c-0.19,0-0.345-0.155-0.345-0.345v-0.631c0-0.19,0.156-0.345,0.345-0.345h0.679
			c0.19,0,0.345,0.155,0.345,0.345l0,0.631C-3300.521,3867.604-3300.676,3867.76-3300.866,3867.76z"/>
		<path fill="#00FFC2" d="M-3300.866,3872.917h-0.679c-0.19,0-0.345-0.155-0.345-0.345v-0.631c0-0.19,0.156-0.345,0.345-0.345h0.679
			c0.19,0,0.345,0.155,0.345,0.345l0,0.631C-3300.521,3872.762-3300.676,3872.917-3300.866,3872.917z"/>
		<path fill="#00FFC2" d="M-3300.866,3877.656h-0.679c-0.19,0-0.345-0.155-0.345-0.345v-0.631c0-0.19,0.156-0.345,0.345-0.345h0.679
			c0.19,0,0.345,0.155,0.345,0.345l0,0.631C-3300.521,3877.501-3300.676,3877.656-3300.866,3877.656z"/>
		<path fill="#00FFC2" d="M-3300.866,3882.174h-0.679c-0.19,0-0.345-0.156-0.345-0.345v-0.631c0-0.19,0.156-0.345,0.345-0.345h0.679
			c0.19,0,0.345,0.155,0.345,0.345l0,0.631C-3300.521,3882.018-3300.676,3882.174-3300.866,3882.174z"/>
		<path fill="#00FFC2" d="M-3300.866,3887.446h-0.679c-0.19,0-0.345-0.155-0.345-0.345v-0.631c0-0.19,0.156-0.345,0.345-0.345h0.679
			c0.19,0,0.345,0.156,0.345,0.345l0,0.631C-3300.521,3887.291-3300.676,3887.446-3300.866,3887.446z"/>
		<path fill="#00FFC2" d="M-3300.866,3892.604h-0.679c-0.19,0-0.345-0.155-0.345-0.345v-0.631c0-0.19,0.156-0.345,0.345-0.345h0.679
			c0.19,0,0.345,0.156,0.345,0.345l0,0.631C-3300.521,3892.448-3300.676,3892.604-3300.866,3892.604z"/>
		<path fill="#00FFC2" d="M-3306.849,3862.487h-0.679c-0.19,0-0.345-0.156-0.345-0.345v-0.631c0-0.19,0.156-0.345,0.345-0.345h0.679
			c0.19,0,0.345,0.156,0.345,0.345v0.631C-3306.504,3862.332-3306.659,3862.487-3306.849,3862.487z"/>
		<path fill="#00FFC2" d="M-3306.849,3867.76h-0.679c-0.19,0-0.345-0.155-0.345-0.345v-0.631c0-0.19,0.156-0.345,0.345-0.345h0.679
			c0.19,0,0.345,0.155,0.345,0.345v0.631C-3306.504,3867.604-3306.659,3867.76-3306.849,3867.76z"/>
		<path fill="#00FFC2" d="M-3306.849,3872.917h-0.679c-0.19,0-0.345-0.155-0.345-0.345v-0.631c0-0.19,0.156-0.345,0.345-0.345h0.679
			c0.19,0,0.345,0.155,0.345,0.345v0.631C-3306.504,3872.762-3306.659,3872.917-3306.849,3872.917z"/>
		<path fill="#00FFC2" d="M-3306.849,3877.656h-0.679c-0.19,0-0.345-0.155-0.345-0.345v-0.631c0-0.19,0.156-0.345,0.345-0.345h0.679
			c0.19,0,0.345,0.155,0.345,0.345v0.631C-3306.504,3877.501-3306.659,3877.656-3306.849,3877.656z"/>
		<path fill="#00FFC2" d="M-3306.849,3882.174h-0.679c-0.19,0-0.345-0.156-0.345-0.345v-0.631c0-0.19,0.156-0.345,0.345-0.345h0.679
			c0.19,0,0.345,0.155,0.345,0.345v0.631C-3306.504,3882.018-3306.659,3882.174-3306.849,3882.174z"/>
		<path fill="#00FFC2" d="M-3306.849,3887.446h-0.679c-0.19,0-0.345-0.155-0.345-0.345v-0.631c0-0.19,0.156-0.345,0.345-0.345h0.679
			c0.19,0,0.345,0.156,0.345,0.345v0.631C-3306.504,3887.291-3306.659,3887.446-3306.849,3887.446z"/>
		<path fill="#00FFC2" d="M-3306.849,3892.604h-0.679c-0.19,0-0.345-0.155-0.345-0.345v-0.631c0-0.19,0.156-0.345,0.345-0.345h0.679
			c0.19,0,0.345,0.156,0.345,0.345v0.631C-3306.504,3892.448-3306.659,3892.604-3306.849,3892.604z"/>
		<path fill="#00FFC2" d="M-3306.849,3897.343h-0.679c-0.19,0-0.345-0.155-0.345-0.345v-0.631c0-0.19,0.156-0.345,0.345-0.345h0.679
			c0.19,0,0.345,0.156,0.345,0.345v0.631C-3306.504,3897.188-3306.659,3897.343-3306.849,3897.343z"/>
	</g>
</g>
</svg>
