<svg xmlns="http://www.w3.org/2000/svg" width="115" height="115" viewBox="-3263.862 3707.445 115 115" enable-background="new -3263.862 3707.445 115 115"><linearGradient id="a" gradientUnits="userSpaceOnUse" x1="2118.336" y1="-1840.101" x2="2192.225" y2="-1840.101" gradientTransform="matrix(-.966 -.259 .259 -.966 -647.708 2546.468)"><stop offset="0" stop-color="#38FFBF" stop-opacity="0"/><stop offset=".684" stop-color="#35FFBE" stop-opacity=".684"/><stop offset="1" stop-color="#30FFBD"/></linearGradient><circle opacity=".58" fill="url(#a)" cx="-3206.362" cy="3764.866" r="36.944"/><g opacity=".75"><linearGradient id="b" gradientUnits="userSpaceOnUse" x1="-3200.115" y1="3747.955" x2="-3200.863" y2="3786.102"><stop offset="0" stop-color="#388EBF"/><stop offset="1" stop-color="#30F2BB"/></linearGradient><path fill="url(#b)" d="M-3206.362 3765.432l12.885-14.369-12.885-26.107z"/><linearGradient id="c" gradientUnits="userSpaceOnUse" x1="-3219.247" y1="3745.194" x2="-3206.362" y2="3745.194"><stop offset="0" stop-color="#388EBF"/><stop offset="1" stop-color="#30F2BB"/></linearGradient><path fill="url(#c)" d="M-3219.247 3751.063l12.885-26.107v40.476z"/><linearGradient id="d" gradientUnits="userSpaceOnUse" x1="-3226.957" y1="3747.429" x2="-3227.706" y2="3785.575"><stop offset="0" stop-color="#388EBF"/><stop offset="1" stop-color="#30F2BB"/></linearGradient><path fill="url(#d)" d="M-3248.059 3755.25l28.812-4.187 12.885 14.369z"/><linearGradient id="e" gradientUnits="userSpaceOnUse" x1="-3248.059" y1="3765.411" x2="-3206.362" y2="3765.411"><stop offset="0" stop-color="#388EBF"/><stop offset="1" stop-color="#30F2BB"/></linearGradient><path fill="url(#e)" d="M-3227.211 3775.572l20.849-10.14-41.697-10.182z"/><linearGradient id="f" gradientUnits="userSpaceOnUse" x1="-3218.517" y1="3747.594" x2="-3219.265" y2="3785.741"><stop offset="0" stop-color="#388EBF"/><stop offset="1" stop-color="#30F2BB"/></linearGradient><path fill="url(#f)" d="M-3232.132 3804.268l4.921-28.696 20.849-10.14z"/><linearGradient id="g" gradientUnits="userSpaceOnUse" x1="-3232.132" y1="3784.85" x2="-3206.362" y2="3784.85"><stop offset="0" stop-color="#388EBF"/><stop offset="1" stop-color="#30F2BB"/></linearGradient><path fill="url(#g)" d="M-3206.362 3790.719l-25.77 13.549 25.77-38.836z"/><linearGradient id="h" gradientUnits="userSpaceOnUse" x1="-3192.757" y1="3748.099" x2="-3193.505" y2="3786.246"><stop offset="0" stop-color="#388EBF"/><stop offset="1" stop-color="#30F2BB"/></linearGradient><path fill="url(#h)" d="M-3180.592 3804.268l-25.77-13.549v-25.287z"/><linearGradient id="i" gradientUnits="userSpaceOnUse" x1="-3206.362" y1="3784.85" x2="-3180.592" y2="3784.85"><stop offset="0" stop-color="#388EBF"/><stop offset="1" stop-color="#30F2BB"/></linearGradient><path fill="url(#i)" d="M-3185.514 3775.572l-20.848-10.14 25.77 38.836z"/><linearGradient id="j" gradientUnits="userSpaceOnUse" x1="-3185.277" y1="3748.246" x2="-3186.025" y2="3786.393"><stop offset="0" stop-color="#388EBF"/><stop offset="1" stop-color="#30F2BB"/></linearGradient><path fill="url(#j)" d="M-3164.666 3755.25l-41.696 10.182 20.848 10.14z"/><linearGradient id="k" gradientUnits="userSpaceOnUse" x1="-3206.362" y1="3758.248" x2="-3164.666" y2="3758.248"><stop offset="0" stop-color="#388EBF"/><stop offset="1" stop-color="#30F2BB"/></linearGradient><path fill="url(#k)" d="M-3193.477 3751.063l-12.885 14.369 41.696-10.182z"/></g><g fill="#00FFC2"><path d="M-3227.296 3721.997h-.762c-.213 0-.387-.174-.387-.387v-.708c0-.213.174-.387.387-.387h.762c.213 0 .387.174.387.387v.708c.001.213-.174.387-.387.387zM-3227.296 3727.912h-.762c-.213 0-.387-.174-.387-.387v-.708c0-.213.174-.387.387-.387h.762c.213 0 .387.174.387.387v.708c.001.213-.174.387-.387.387zM-3227.296 3733.699h-.762c-.213 0-.387-.174-.387-.387v-.708c0-.213.174-.387.387-.387h.762c.213 0 .387.174.387.387v.708c.001.213-.174.387-.387.387zM-3227.296 3739.016h-.762c-.213 0-.387-.174-.387-.387v-.708c0-.213.174-.387.387-.387h.762c.213 0 .387.174.387.387v.708c.001.213-.174.387-.387.387zM-3227.296 3744.085h-.762c-.213 0-.387-.174-.387-.387v-.708c0-.213.174-.387.387-.387h.762c.213 0 .387.174.387.387v.708c.001.212-.174.387-.387.387zM-3227.296 3750h-.762c-.213 0-.387-.174-.387-.387v-.708c0-.213.174-.387.387-.387h.762c.213 0 .387.174.387.387v.708c.001.213-.174.387-.387.387zM-3227.296 3755.787h-.762c-.213 0-.387-.174-.387-.387v-.708c0-.213.174-.387.387-.387h.762c.213 0 .387.174.387.387v.708c.001.212-.174.387-.387.387zM-3234.009 3721.997h-.762c-.213 0-.387-.174-.387-.387v-.708c0-.213.174-.387.387-.387h.762c.213 0 .387.174.387.387v.708c.001.213-.174.387-.387.387zM-3234.009 3727.912h-.762c-.213 0-.387-.174-.387-.387v-.708c0-.213.174-.387.387-.387h.762c.213 0 .387.174.387.387v.708c.001.213-.174.387-.387.387zM-3234.009 3733.699h-.762c-.213 0-.387-.174-.387-.387v-.708c0-.213.174-.387.387-.387h.762c.213 0 .387.174.387.387v.708c.001.213-.174.387-.387.387zM-3234.009 3739.016h-.762c-.213 0-.387-.174-.387-.387v-.708c0-.213.174-.387.387-.387h.762c.213 0 .387.174.387.387v.708c.001.213-.174.387-.387.387zM-3234.009 3744.085h-.762c-.213 0-.387-.174-.387-.387v-.708c0-.213.174-.387.387-.387h.762c.213 0 .387.174.387.387v.708c.001.212-.174.387-.387.387zM-3234.009 3750h-.762c-.213 0-.387-.174-.387-.387v-.708c0-.213.174-.387.387-.387h.762c.213 0 .387.174.387.387v.708c.001.213-.174.387-.387.387zM-3234.009 3755.787h-.762c-.213 0-.387-.174-.387-.387v-.708c0-.213.174-.387.387-.387h.762c.213 0 .387.174.387.387v.708c.001.212-.174.387-.387.387zM-3234.009 3761.104h-.762c-.213 0-.387-.174-.387-.387v-.708c0-.213.174-.387.387-.387h.762c.213 0 .387.174.387.387v.708c.001.212-.174.387-.387.387z"/></g><path fill="#00FFC2" d="M-3206.362 3753.166c-7.589 0-13.741 6.152-13.741 13.741 0 5.251 2.948 9.811 7.277 12.124l4.452-8.336c-1.36-.724-2.296-2.139-2.296-3.787 0-2.379 1.928-4.307 4.307-4.307s4.307 1.928 4.307 4.307c0 1.678-.969 3.116-2.37 3.827l4.282 8.414c4.46-2.271 7.522-6.894 7.522-12.241.001-7.59-6.151-13.742-13.74-13.742z"/><linearGradient id="l" gradientUnits="userSpaceOnUse" x1="-3206.94" y1="3717.817" x2="-3205.194" y2="3776.315"><stop offset="0" stop-color="#38FFBF" stop-opacity="0"/><stop offset=".684" stop-color="#35FFBE" stop-opacity=".684"/><stop offset="1" stop-color="#30FFBD"/></linearGradient><path fill="url(#l)" d="M-3192.621 3766.907l-7.287-.692-7.662-5.84-7.15 8.757-5.383-2.225v-59.462h27.482z"/></svg>