<?xml version="1.0" encoding="utf-8"?>
<!-- Generator: Adobe Illustrator 19.2.1, SVG Export Plug-In . SVG Version: 6.00 Build 0)  -->
<svg version="1.1"
	 id="svg10502" inkscape:version="0.91 r13725" sodipodi:docname="Theme.svg" xmlns:cc="http://creativecommons.org/ns#" xmlns:dc="http://purl.org/dc/elements/1.1/" xmlns:inkscape="http://www.inkscape.org/namespaces/inkscape" xmlns:rdf="http://www.w3.org/1999/02/22-rdf-syntax-ns#" xmlns:sodipodi="http://sodipodi.sourceforge.net/DTD/sodipodi-0.dtd" xmlns:svg="http://www.w3.org/2000/svg"
	 xmlns="http://www.w3.org/2000/svg" xmlns:xlink="http://www.w3.org/1999/xlink" x="0px" y="0px" width="115px" height="115px"
	 viewBox="-3388.362 3573.45 115 115" enable-background="new -3388.362 3573.45 115 115" xml:space="preserve">
<g>
	<g>
		<linearGradient id="SVGID_2_" gradientUnits="userSpaceOnUse" x1="-3332.905" y1="3598.7778" x2="-3331.2629" y2="3653.7886">
			<stop  offset="0" style="stop-color:#38FFBF;stop-opacity:0"/>
			<stop  offset="0.6845" style="stop-color:#35FFBE;stop-opacity:0.6845"/>
			<stop  offset="1" style="stop-color:#30FFBD"/>
		</linearGradient>
		<polygon fill="url(#SVGID_2_)" points="-3313.202,3643.921 -3351.443,3647.368 -3351.443,3589.208 -3313.202,3589.208 		"/>
		<linearGradient id="SVGID_4_" gradientUnits="userSpaceOnUse" x1="-3358.5413" y1="3602.6167" x2="-3356.7927" y2="3661.196">
			<stop  offset="0" style="stop-color:#38FFBF;stop-opacity:0"/>
			<stop  offset="0.6845" style="stop-color:#35FFBE;stop-opacity:0.6845"/>
			<stop  offset="1" style="stop-color:#30FFBD"/>
		</linearGradient>
		<polygon fill="url(#SVGID_4_)" points="-3345.121,3653.369 -3370.924,3647.343 -3370.924,3592.207 -3345.121,3592.642 		"/>
		
			<linearGradient id="SVGID_5_" gradientUnits="userSpaceOnUse" x1="2270.0828" y1="-1742.4994" x2="2335.9395" y2="-1742.4994" gradientTransform="matrix(-0.9658 -0.2593 0.2593 -0.9658 -647.708 2546.4685)">
			<stop  offset="0" style="stop-color:#38FFBF;stop-opacity:0"/>
			<stop  offset="0.6845" style="stop-color:#35FFBE;stop-opacity:0.6845"/>
			<stop  offset="1" style="stop-color:#30FFBD"/>
		</linearGradient>
		<circle fill="url(#SVGID_5_)" cx="-3323.737" cy="3632.301" r="32.928"/>
		<g>
			<path fill="#00FFC2" d="M-3342.395,3594.092h-0.679c-0.19,0-0.345-0.156-0.345-0.345v-0.631c0-0.19,0.155-0.345,0.345-0.345
				h0.679c0.19,0,0.345,0.155,0.345,0.345v0.631C-3342.05,3593.936-3342.205,3594.092-3342.395,3594.092z"/>
			<path fill="#00FFC2" d="M-3342.395,3599.364h-0.679c-0.19,0-0.345-0.155-0.345-0.345v-0.631c0-0.19,0.155-0.345,0.345-0.345
				h0.679c0.19,0,0.345,0.156,0.345,0.345v0.631C-3342.05,3599.208-3342.205,3599.364-3342.395,3599.364z"/>
			<path fill="#00FFC2" d="M-3342.395,3604.521h-0.679c-0.19,0-0.345-0.155-0.345-0.345v-0.631c0-0.19,0.155-0.345,0.345-0.345
				h0.679c0.19,0,0.345,0.156,0.345,0.345v0.631C-3342.05,3604.366-3342.205,3604.521-3342.395,3604.521z"/>
			<path fill="#00FFC2" d="M-3342.395,3609.26h-0.679c-0.19,0-0.345-0.155-0.345-0.345v-0.631c0-0.19,0.155-0.345,0.345-0.345h0.679
				c0.19,0,0.345,0.156,0.345,0.345v0.631C-3342.05,3609.105-3342.205,3609.26-3342.395,3609.26z"/>
			<path fill="#00FFC2" d="M-3342.395,3613.778h-0.679c-0.19,0-0.345-0.155-0.345-0.345v-0.631c0-0.19,0.155-0.345,0.345-0.345
				h0.679c0.19,0,0.345,0.155,0.345,0.345v0.631C-3342.05,3613.623-3342.205,3613.778-3342.395,3613.778z"/>
			<path fill="#00FFC2" d="M-3342.395,3619.051h-0.679c-0.19,0-0.345-0.156-0.345-0.345v-0.631c0-0.19,0.155-0.345,0.345-0.345
				h0.679c0.19,0,0.345,0.155,0.345,0.345v0.631C-3342.05,3618.895-3342.205,3619.051-3342.395,3619.051z"/>
			<path fill="#00FFC2" d="M-3342.395,3624.208h-0.679c-0.19,0-0.345-0.156-0.345-0.345v-0.631c0-0.19,0.155-0.345,0.345-0.345
				h0.679c0.19,0,0.345,0.155,0.345,0.345v0.631C-3342.05,3624.052-3342.205,3624.208-3342.395,3624.208z"/>
			<path fill="#00FFC2" d="M-3348.378,3594.092h-0.679c-0.19,0-0.345-0.156-0.345-0.345v-0.631c0-0.19,0.155-0.345,0.345-0.345
				h0.679c0.19,0,0.345,0.155,0.345,0.345v0.631C-3348.033,3593.936-3348.188,3594.092-3348.378,3594.092z"/>
			<path fill="#00FFC2" d="M-3348.378,3599.364h-0.679c-0.19,0-0.345-0.155-0.345-0.345v-0.631c0-0.19,0.155-0.345,0.345-0.345
				h0.679c0.19,0,0.345,0.156,0.345,0.345v0.631C-3348.033,3599.208-3348.188,3599.364-3348.378,3599.364z"/>
			<path fill="#00FFC2" d="M-3348.378,3604.521h-0.679c-0.19,0-0.345-0.155-0.345-0.345v-0.631c0-0.19,0.155-0.345,0.345-0.345
				h0.679c0.19,0,0.345,0.156,0.345,0.345v0.631C-3348.033,3604.366-3348.188,3604.521-3348.378,3604.521z"/>
			<path fill="#00FFC2" d="M-3348.378,3609.26h-0.679c-0.19,0-0.345-0.155-0.345-0.345v-0.631c0-0.19,0.155-0.345,0.345-0.345h0.679
				c0.19,0,0.345,0.156,0.345,0.345v0.631C-3348.033,3609.105-3348.188,3609.26-3348.378,3609.26z"/>
			<path fill="#00FFC2" d="M-3348.378,3613.778h-0.679c-0.19,0-0.345-0.155-0.345-0.345v-0.631c0-0.19,0.155-0.345,0.345-0.345
				h0.679c0.19,0,0.345,0.155,0.345,0.345v0.631C-3348.033,3613.623-3348.188,3613.778-3348.378,3613.778z"/>
			<path fill="#00FFC2" d="M-3348.378,3619.051h-0.679c-0.19,0-0.345-0.156-0.345-0.345v-0.631c0-0.19,0.155-0.345,0.345-0.345
				h0.679c0.19,0,0.345,0.155,0.345,0.345v0.631C-3348.033,3618.895-3348.188,3619.051-3348.378,3619.051z"/>
			<path fill="#00FFC2" d="M-3348.378,3624.208h-0.679c-0.19,0-0.345-0.156-0.345-0.345v-0.631c0-0.19,0.155-0.345,0.345-0.345
				h0.679c0.19,0,0.345,0.155,0.345,0.345v0.631C-3348.033,3624.052-3348.188,3624.208-3348.378,3624.208z"/>
			<path fill="#00FFC2" d="M-3348.378,3628.947h-0.679c-0.19,0-0.345-0.156-0.345-0.345v-0.631c0-0.19,0.155-0.345,0.345-0.345
				h0.679c0.19,0,0.345,0.155,0.345,0.345v0.631C-3348.033,3628.792-3348.188,3628.947-3348.378,3628.947z"/>
		</g>
	</g>
	<g>
		<linearGradient id="SVGID_6_" gradientUnits="userSpaceOnUse" x1="-3362.2834" y1="3651.2854" x2="-3358.2002" y2="3664.8689">
			<stop  offset="0" style="stop-color:#388EBF"/>
			<stop  offset="1" style="stop-color:#30F2BB"/>
		</linearGradient>
		<polygon fill="url(#SVGID_6_)" points="-3354.57,3653.369 -3354.57,3668.521 -3364.19,3668.521 -3367.316,3655.173 
			-3367.797,3653.369 		"/>
		<linearGradient id="SVGID_7_" gradientUnits="userSpaceOnUse" x1="-3351.4429" y1="3639.6606" x2="-3318.0127" y2="3639.6606">
			<stop  offset="0" style="stop-color:#388EBF"/>
			<stop  offset="1" style="stop-color:#30F2BB"/>
		</linearGradient>
		<polygon fill="url(#SVGID_7_)" points="-3318.013,3668.521 -3351.443,3653.369 -3351.443,3625.952 -3318.013,3610.8 		"/>
		<linearGradient id="SVGID_9_" gradientUnits="userSpaceOnUse" x1="-3315.9875" y1="3616.8655" x2="-3315.3208" y2="3656.8655">
			<stop  offset="0" style="stop-color:#388EBF"/>
			<stop  offset="1" style="stop-color:#30F2BB"/>
		</linearGradient>
		<rect x="-3318.013" y="3610.8" fill="url(#SVGID_9_)" width="4.81" height="57.721"/>
		<linearGradient id="SVGID_10_" gradientUnits="userSpaceOnUse" x1="-3370.9238" y1="3639.7207" x2="-3351.4429" y2="3639.7207">
			<stop  offset="0" style="stop-color:#388EBF"/>
			<stop  offset="1" style="stop-color:#30F2BB"/>
		</linearGradient>
		<path fill="url(#SVGID_10_)" d="M-3368.519,3625.952c-1.323,0-2.405,1.082-2.405,2.405v22.728c0,1.323,1.082,2.405,2.405,2.405
			h17.076v-27.538H-3368.519z"/>
		<g>
			<linearGradient id="SVGID_11_" gradientUnits="userSpaceOnUse" x1="-3358.7783" y1="3661.6667" x2="-3354.5696" y2="3661.6667">
				<stop  offset="0" style="stop-color:#388EBF"/>
				<stop  offset="1" style="stop-color:#30F2BB"/>
			</linearGradient>
			<path fill="url(#SVGID_11_)" d="M-3354.57,3660.224h-2.766c-0.721,0-1.443,0.601-1.443,1.443l0,0
				c0,0.722,0.601,1.443,1.443,1.443h2.766V3660.224z"/>
			<linearGradient id="SVGID_12_" gradientUnits="userSpaceOnUse" x1="-3358.7783" y1="3657.458" x2="-3354.5696" y2="3657.458">
				<stop  offset="0" style="stop-color:#388EBF"/>
				<stop  offset="1" style="stop-color:#30F2BB"/>
			</linearGradient>
			<path fill="url(#SVGID_12_)" d="M-3354.57,3656.015h-2.766c-0.721,0-1.443,0.601-1.443,1.443l0,0
				c0,0.721,0.601,1.443,1.443,1.443h2.766V3656.015z"/>
			<linearGradient id="SVGID_13_" gradientUnits="userSpaceOnUse" x1="-3358.7783" y1="3665.8757" x2="-3354.5696" y2="3665.8757">
				<stop  offset="0" style="stop-color:#388EBF"/>
				<stop  offset="1" style="stop-color:#30F2BB"/>
			</linearGradient>
			<path fill="url(#SVGID_13_)" d="M-3354.57,3664.433h-2.766c-0.721,0-1.443,0.601-1.443,1.443l0,0
				c0,0.721,0.601,1.443,1.443,1.443h2.766V3664.433z"/>
		</g>
	</g>
</g>
</svg>
