<?xml version="1.0" encoding="utf-8"?>
<!-- Generator: Adobe Illustrator 19.2.1, SVG Export Plug-In . SVG Version: 6.00 Build 0)  -->
<svg version="1.1"
	 id="svg10502" inkscape:version="0.91 r13725" sodipodi:docname="Theme.svg" xmlns:cc="http://creativecommons.org/ns#" xmlns:dc="http://purl.org/dc/elements/1.1/" xmlns:inkscape="http://www.inkscape.org/namespaces/inkscape" xmlns:rdf="http://www.w3.org/1999/02/22-rdf-syntax-ns#" xmlns:sodipodi="http://sodipodi.sourceforge.net/DTD/sodipodi-0.dtd" xmlns:svg="http://www.w3.org/2000/svg"
	 xmlns="http://www.w3.org/2000/svg" xmlns:xlink="http://www.w3.org/1999/xlink" x="0px" y="0px" width="115px" height="115px"
	 viewBox="-3263.862 3707.445 115 115" enable-background="new -3263.862 3707.445 115 115" xml:space="preserve">
<g>
	
		<linearGradient id="SVGID_2_" gradientUnits="userSpaceOnUse" x1="2118.3357" y1="-1840.1011" x2="2192.2246" y2="-1840.1011" gradientTransform="matrix(-0.9658 -0.2593 0.2593 -0.9658 -647.708 2546.4685)">
		<stop  offset="0" style="stop-color:#38FFBF;stop-opacity:0"/>
		<stop  offset="0.6845" style="stop-color:#35FFBE;stop-opacity:0.6845"/>
		<stop  offset="1" style="stop-color:#30FFBD"/>
	</linearGradient>
	<circle opacity="0.58" fill="url(#SVGID_2_)" cx="-3206.362" cy="3764.866" r="36.944"/>
	<g opacity="0.75">
		<linearGradient id="SVGID_4_" gradientUnits="userSpaceOnUse" x1="-3200.1147" y1="3747.9551" x2="-3200.8628" y2="3786.1018">
			<stop  offset="0" style="stop-color:#388EBF"/>
			<stop  offset="1" style="stop-color:#30F2BB"/>
		</linearGradient>
		<polygon fill="url(#SVGID_4_)" points="-3206.362,3765.432 -3193.477,3751.063 -3206.362,3724.956 		"/>
		<linearGradient id="SVGID_5_" gradientUnits="userSpaceOnUse" x1="-3219.2473" y1="3745.1941" x2="-3206.3623" y2="3745.1941">
			<stop  offset="0" style="stop-color:#388EBF"/>
			<stop  offset="1" style="stop-color:#30F2BB"/>
		</linearGradient>
		<polygon fill="url(#SVGID_5_)" points="-3219.247,3751.063 -3206.362,3724.956 -3206.362,3765.432 		"/>
		<linearGradient id="SVGID_6_" gradientUnits="userSpaceOnUse" x1="-3226.9575" y1="3747.4287" x2="-3227.7056" y2="3785.5754">
			<stop  offset="0" style="stop-color:#388EBF"/>
			<stop  offset="1" style="stop-color:#30F2BB"/>
		</linearGradient>
		<polygon fill="url(#SVGID_6_)" points="-3248.059,3755.25 -3219.247,3751.063 -3206.362,3765.432 		"/>
		<linearGradient id="SVGID_7_" gradientUnits="userSpaceOnUse" x1="-3248.0591" y1="3765.4111" x2="-3206.3623" y2="3765.4111">
			<stop  offset="0" style="stop-color:#388EBF"/>
			<stop  offset="1" style="stop-color:#30F2BB"/>
		</linearGradient>
		<polygon fill="url(#SVGID_7_)" points="-3227.211,3775.572 -3206.362,3765.432 -3248.059,3755.25 		"/>
		<linearGradient id="SVGID_9_" gradientUnits="userSpaceOnUse" x1="-3218.5168" y1="3747.5942" x2="-3219.2649" y2="3785.741">
			<stop  offset="0" style="stop-color:#388EBF"/>
			<stop  offset="1" style="stop-color:#30F2BB"/>
		</linearGradient>
		<polygon fill="url(#SVGID_9_)" points="-3232.132,3804.268 -3227.211,3775.572 -3206.362,3765.432 		"/>
		<linearGradient id="SVGID_10_" gradientUnits="userSpaceOnUse" x1="-3232.1323" y1="3784.8501" x2="-3206.3623" y2="3784.8501">
			<stop  offset="0" style="stop-color:#388EBF"/>
			<stop  offset="1" style="stop-color:#30F2BB"/>
		</linearGradient>
		<polygon fill="url(#SVGID_10_)" points="-3206.362,3790.719 -3232.132,3804.268 -3206.362,3765.432 		"/>
		<linearGradient id="SVGID_11_" gradientUnits="userSpaceOnUse" x1="-3192.7566" y1="3748.0994" x2="-3193.5046" y2="3786.2461">
			<stop  offset="0" style="stop-color:#388EBF"/>
			<stop  offset="1" style="stop-color:#30F2BB"/>
		</linearGradient>
		<polygon fill="url(#SVGID_11_)" points="-3180.592,3804.268 -3206.362,3790.719 -3206.362,3765.432 		"/>
		<linearGradient id="SVGID_12_" gradientUnits="userSpaceOnUse" x1="-3206.3623" y1="3784.8501" x2="-3180.5923" y2="3784.8501">
			<stop  offset="0" style="stop-color:#388EBF"/>
			<stop  offset="1" style="stop-color:#30F2BB"/>
		</linearGradient>
		<polygon fill="url(#SVGID_12_)" points="-3185.514,3775.572 -3206.362,3765.432 -3180.592,3804.268 		"/>
		<linearGradient id="SVGID_13_" gradientUnits="userSpaceOnUse" x1="-3185.2769" y1="3748.2458" x2="-3186.0247" y2="3786.3926">
			<stop  offset="0" style="stop-color:#388EBF"/>
			<stop  offset="1" style="stop-color:#30F2BB"/>
		</linearGradient>
		<polygon fill="url(#SVGID_13_)" points="-3164.666,3755.25 -3206.362,3765.432 -3185.514,3775.572 		"/>
		<linearGradient id="SVGID_14_" gradientUnits="userSpaceOnUse" x1="-3206.3623" y1="3758.248" x2="-3164.6655" y2="3758.248">
			<stop  offset="0" style="stop-color:#388EBF"/>
			<stop  offset="1" style="stop-color:#30F2BB"/>
		</linearGradient>
		<polygon fill="url(#SVGID_14_)" points="-3193.477,3751.063 -3206.362,3765.432 -3164.666,3755.25 		"/>
	</g>
	<g>
		<path fill="#00FFC2" d="M-3227.296,3721.997h-0.762c-0.213,0-0.387-0.174-0.387-0.387v-0.708c0-0.213,0.174-0.387,0.387-0.387
			h0.762c0.213,0,0.387,0.174,0.387,0.387v0.708C-3226.908,3721.823-3227.083,3721.997-3227.296,3721.997z"/>
		<path fill="#00FFC2" d="M-3227.296,3727.912h-0.762c-0.213,0-0.387-0.174-0.387-0.387v-0.708c0-0.213,0.174-0.387,0.387-0.387
			h0.762c0.213,0,0.387,0.174,0.387,0.387v0.708C-3226.908,3727.738-3227.083,3727.912-3227.296,3727.912z"/>
		<path fill="#00FFC2" d="M-3227.296,3733.699h-0.762c-0.213,0-0.387-0.174-0.387-0.387v-0.708c0-0.213,0.174-0.387,0.387-0.387
			h0.762c0.213,0,0.387,0.174,0.387,0.387v0.708C-3226.908,3733.525-3227.083,3733.699-3227.296,3733.699z"/>
		<path fill="#00FFC2" d="M-3227.296,3739.016h-0.762c-0.213,0-0.387-0.174-0.387-0.387v-0.708c0-0.213,0.174-0.387,0.387-0.387
			h0.762c0.213,0,0.387,0.174,0.387,0.387v0.708C-3226.908,3738.842-3227.083,3739.016-3227.296,3739.016z"/>
		<path fill="#00FFC2" d="M-3227.296,3744.085h-0.762c-0.213,0-0.387-0.174-0.387-0.387v-0.708c0-0.213,0.174-0.387,0.387-0.387
			h0.762c0.213,0,0.387,0.174,0.387,0.387v0.708C-3226.908,3743.91-3227.083,3744.085-3227.296,3744.085z"/>
		<path fill="#00FFC2" d="M-3227.296,3750h-0.762c-0.213,0-0.387-0.174-0.387-0.387v-0.708c0-0.213,0.174-0.387,0.387-0.387h0.762
			c0.213,0,0.387,0.174,0.387,0.387v0.708C-3226.908,3749.826-3227.083,3750-3227.296,3750z"/>
		<path fill="#00FFC2" d="M-3227.296,3755.787h-0.762c-0.213,0-0.387-0.174-0.387-0.387v-0.708c0-0.213,0.174-0.387,0.387-0.387
			h0.762c0.213,0,0.387,0.174,0.387,0.387v0.708C-3226.908,3755.612-3227.083,3755.787-3227.296,3755.787z"/>
		<path fill="#00FFC2" d="M-3234.009,3721.997h-0.762c-0.213,0-0.387-0.174-0.387-0.387v-0.708c0-0.213,0.174-0.387,0.387-0.387
			h0.762c0.213,0,0.387,0.174,0.387,0.387v0.708C-3233.621,3721.823-3233.796,3721.997-3234.009,3721.997z"/>
		<path fill="#00FFC2" d="M-3234.009,3727.912h-0.762c-0.213,0-0.387-0.174-0.387-0.387v-0.708c0-0.213,0.174-0.387,0.387-0.387
			h0.762c0.213,0,0.387,0.174,0.387,0.387v0.708C-3233.621,3727.738-3233.796,3727.912-3234.009,3727.912z"/>
		<path fill="#00FFC2" d="M-3234.009,3733.699h-0.762c-0.213,0-0.387-0.174-0.387-0.387v-0.708c0-0.213,0.174-0.387,0.387-0.387
			h0.762c0.213,0,0.387,0.174,0.387,0.387v0.708C-3233.621,3733.525-3233.796,3733.699-3234.009,3733.699z"/>
		<path fill="#00FFC2" d="M-3234.009,3739.016h-0.762c-0.213,0-0.387-0.174-0.387-0.387v-0.708c0-0.213,0.174-0.387,0.387-0.387
			h0.762c0.213,0,0.387,0.174,0.387,0.387v0.708C-3233.621,3738.842-3233.796,3739.016-3234.009,3739.016z"/>
		<path fill="#00FFC2" d="M-3234.009,3744.085h-0.762c-0.213,0-0.387-0.174-0.387-0.387v-0.708c0-0.213,0.174-0.387,0.387-0.387
			h0.762c0.213,0,0.387,0.174,0.387,0.387v0.708C-3233.621,3743.91-3233.796,3744.085-3234.009,3744.085z"/>
		<path fill="#00FFC2" d="M-3234.009,3750h-0.762c-0.213,0-0.387-0.174-0.387-0.387v-0.708c0-0.213,0.174-0.387,0.387-0.387h0.762
			c0.213,0,0.387,0.174,0.387,0.387v0.708C-3233.621,3749.826-3233.796,3750-3234.009,3750z"/>
		<path fill="#00FFC2" d="M-3234.009,3755.787h-0.762c-0.213,0-0.387-0.174-0.387-0.387v-0.708c0-0.213,0.174-0.387,0.387-0.387
			h0.762c0.213,0,0.387,0.174,0.387,0.387v0.708C-3233.621,3755.612-3233.796,3755.787-3234.009,3755.787z"/>
		<path fill="#00FFC2" d="M-3234.009,3761.104h-0.762c-0.213,0-0.387-0.174-0.387-0.387v-0.708c0-0.213,0.174-0.387,0.387-0.387
			h0.762c0.213,0,0.387,0.174,0.387,0.387v0.708C-3233.621,3760.929-3233.796,3761.104-3234.009,3761.104z"/>
	</g>
	<path fill="#00FFC2" d="M-3206.362,3753.166c-7.589,0-13.741,6.152-13.741,13.741c0,5.251,2.948,9.811,7.277,12.124l4.452-8.336
		c-1.36-0.724-2.296-2.139-2.296-3.787c0-2.379,1.928-4.307,4.307-4.307s4.307,1.928,4.307,4.307c0,1.678-0.969,3.116-2.37,3.827
		l4.282,8.414c4.46-2.271,7.522-6.894,7.522-12.241C-3192.621,3759.318-3198.773,3753.166-3206.362,3753.166z"/>
	<linearGradient id="SVGID_15_" gradientUnits="userSpaceOnUse" x1="-3206.9402" y1="3717.8167" x2="-3205.1938" y2="3776.3152">
		<stop  offset="0" style="stop-color:#38FFBF;stop-opacity:0"/>
		<stop  offset="0.6845" style="stop-color:#35FFBE;stop-opacity:0.6845"/>
		<stop  offset="1" style="stop-color:#30FFBD"/>
	</linearGradient>
	<polygon fill="url(#SVGID_15_)" points="-3192.621,3766.907 -3199.908,3766.215 -3207.57,3760.375 -3214.72,3769.132 
		-3220.103,3766.907 -3220.103,3707.445 -3192.621,3707.445 	"/>
</g>
</svg>
