<?xml version="1.0" encoding="utf-8"?>
<!-- Generator: Adobe Illustrator 19.2.1, SVG Export Plug-In . SVG Version: 6.00 Build 0)  -->
<svg version="1.1"
	 id="svg10502" inkscape:version="0.91 r13725" sodipodi:docname="Theme.svg" xmlns:cc="http://creativecommons.org/ns#" xmlns:dc="http://purl.org/dc/elements/1.1/" xmlns:inkscape="http://www.inkscape.org/namespaces/inkscape" xmlns:rdf="http://www.w3.org/1999/02/22-rdf-syntax-ns#" xmlns:sodipodi="http://sodipodi.sourceforge.net/DTD/sodipodi-0.dtd" xmlns:svg="http://www.w3.org/2000/svg"
	 xmlns="http://www.w3.org/2000/svg" xmlns:xlink="http://www.w3.org/1999/xlink" x="0px" y="0px" width="115px" height="115px"
	 viewBox="0 0 115 115" style="enable-background:new 0 0 115 115;" xml:space="preserve">
<style type="text/css">
	.st0{opacity:0.58;fill:url(#SVGID_1_);enable-background:new    ;}
	.st1{fill:url(#SVGID_2_);}
	.st2{fill:url(#SVGID_3_);}
	.st3{fill:url(#SVGID_4_);}
	.st4{fill:url(#SVGID_5_);}
	.st5{fill:url(#SVGID_6_);}
	.st6{fill:url(#SVGID_7_);}
	.st7{fill:url(#SVGID_8_);}
	.st8{fill:url(#SVGID_9_);}
	.st9{fill:url(#SVGID_10_);}
	.st10{fill:#3A3A62;}
	.st11{fill:url(#SVGID_11_);}
	.st12{fill:url(#SVGID_12_);}
	.st13{fill:url(#SVGID_13_);}
	.st14{fill:url(#SVGID_14_);}
	.st15{opacity:0.39;fill:url(#SVGID_15_);enable-background:new    ;}
	.st16{fill:#00FFC2;}
</style>
<g>
	
		<linearGradient id="SVGID_1_" gradientUnits="userSpaceOnUse" x1="-800.3893" y1="-2069.5457" x2="-734.5173" y2="-2069.5457" gradientTransform="matrix(-0.9658 -0.2593 -0.2593 0.9658 -1227.1823 1870.0315)">
		<stop  offset="0" style="stop-color:#38FFBF;stop-opacity:0"/>
		<stop  offset="0.6845" style="stop-color:#35FFBE;stop-opacity:0.6845"/>
		<stop  offset="1" style="stop-color:#30FFBD"/>
	</linearGradient>
	<circle class="st0" cx="50.7" cy="70.3" r="32.9"/>
	
		<linearGradient id="SVGID_2_" gradientUnits="userSpaceOnUse" x1="48.3915" y1="90.6001" x2="50.4061" y2="23.1121" gradientTransform="matrix(1 0 0 -1 0 116)">
		<stop  offset="0" style="stop-color:#38FFBF;stop-opacity:0"/>
		<stop  offset="0.6845" style="stop-color:#35FFBE;stop-opacity:0.6845"/>
		<stop  offset="1" style="stop-color:#30FFBD"/>
	</linearGradient>
	<polygon class="st1" points="68,80.2 30.2,84.9 30.2,13.5 68,13.5 	"/>
	<g>
		
			<linearGradient id="SVGID_3_" gradientUnits="userSpaceOnUse" x1="49.0642" y1="27.0916" x2="49.4085" y2="66.1384" gradientTransform="matrix(1 0 0 -1 0 116)">
			<stop  offset="0" style="stop-color:#388EBF"/>
			<stop  offset="1" style="stop-color:#30F2BB"/>
		</linearGradient>
		<path class="st2" d="M68,84.7c0,0.8-0.5,1.5-1.2,1.8c-4.5,2.1-10.8,3.4-17.7,3.4s-13.2-1.3-17.7-3.4c-0.7-0.3-1.2-1-1.2-1.8
			c0.1-19,3.6-35.6,18.9-35.6C64.4,49.1,67.9,65.7,68,84.7z"/>
		
			<linearGradient id="SVGID_4_" gradientUnits="userSpaceOnUse" x1="27.1914" y1="21.1255" x2="71.0112" y2="21.1255" gradientTransform="matrix(1 0 0 -1 0 116)">
			<stop  offset="0" style="stop-color:#388EBF"/>
			<stop  offset="1" style="stop-color:#30F2BB"/>
		</linearGradient>
		<path class="st3" d="M56.1,87.7v-4.8H42.1v4.8c0,1.3-0.8,2.4-2,2.8l-9.5,3.2c-2,0.7-3.4,2.6-3.4,4.7v6.4c0,1.1,0.9,2,2,2H69
			c1.1,0,2-0.9,2-2v-6.4c0-2.1-1.4-4-3.4-4.7l-9.5-3.2C56.9,90.2,56.1,89,56.1,87.7z"/>
		
			<linearGradient id="SVGID_5_" gradientUnits="userSpaceOnUse" x1="48.8684" y1="24.7429" x2="49.2739" y2="6.7002" gradientTransform="matrix(1 0 0 -1 0 116)">
			<stop  offset="0" style="stop-color:#388EBF"/>
			<stop  offset="1" style="stop-color:#30F2BB"/>
		</linearGradient>
		<path class="st4" d="M67.6,93.7l-7.8-2.6c-3.7,5-8,7.8-10.8,8.7c-2.8-0.9-7.1-3.7-10.8-8.7l-7.8,2.6c-2,0.7-3.4,2.6-3.4,4.7v6.4
			c0,1.1,0.9,2,2,2H69c1.1,0,2-0.9,2-2v-6.4C71,96.3,69.6,94.4,67.6,93.7z"/>
		
			<linearGradient id="SVGID_6_" gradientUnits="userSpaceOnUse" x1="50.7902" y1="55.8372" x2="50.6183" y2="29.3574" gradientTransform="matrix(1 0 0 -1 0 116)">
			<stop  offset="0" style="stop-color:#388EBF"/>
			<stop  offset="1" style="stop-color:#30F2BB"/>
		</linearGradient>
		<path class="st5" d="M50.7,87.9L50.7,87.9c-6.2,0-11.3-5.1-11.3-11.3V61H62v15.6C62,82.8,57,87.9,50.7,87.9z"/>
		<g>
			
				<linearGradient id="SVGID_7_" gradientUnits="userSpaceOnUse" x1="30.6751" y1="9.6648" x2="31.9928" y2="19.8013" gradientTransform="matrix(1 0 0 -1 0 116)">
				<stop  offset="0" style="stop-color:#388EBF"/>
				<stop  offset="1" style="stop-color:#30F2BB"/>
			</linearGradient>
			<path class="st6" d="M34,100.7l-5.5-5.5c-0.8,0.9-1.3,2.1-1.3,3.3v6.4c0,1.1,0.9,2,2,2h6v-3.3C35.2,102.4,34.7,101.4,34,100.7z"
				/>
			
				<linearGradient id="SVGID_8_" gradientUnits="userSpaceOnUse" x1="66.1386" y1="5.0547" x2="67.4564" y2="15.1909" gradientTransform="matrix(1 0 0 -1 0 116)">
				<stop  offset="0" style="stop-color:#388EBF"/>
				<stop  offset="1" style="stop-color:#30F2BB"/>
			</linearGradient>
			<path class="st7" d="M64.2,100.7l5.5-5.5c0.8,0.9,1.3,2.1,1.3,3.3v6.4c0,1.1-0.9,2-2,2h-6v-3.3C63,102.4,63.5,101.4,64.2,100.7z"
				/>
			
				<linearGradient id="SVGID_9_" gradientUnits="userSpaceOnUse" x1="62.8279" y1="19.5972" x2="36.7773" y2="19.3945" gradientTransform="matrix(1 0 0 -1 0 116)">
				<stop  offset="0" style="stop-color:#388EBF"/>
				<stop  offset="1" style="stop-color:#30F2BB"/>
			</linearGradient>
			<path class="st8" d="M36.7,92.3c4,5.4,8.7,8.4,11.7,9.4l0.6,0.2l0.6-0.2c3.1-1,7.7-4,11.7-9.4l0.4-0.5l-2-0.7
				c-3.7,5-8,7.8-10.8,8.7c-2.8-0.9-7.1-3.7-10.8-8.7l-2,0.7L36.7,92.3z"/>
		</g>
		
			<linearGradient id="SVGID_10_" gradientUnits="userSpaceOnUse" x1="48.8786" y1="27.0933" x2="49.2226" y2="66.1401" gradientTransform="matrix(1 0 0 -1 0 116)">
			<stop  offset="0" style="stop-color:#388EBF"/>
			<stop  offset="1" style="stop-color:#30F2BB"/>
		</linearGradient>
		<path class="st9" d="M35.2,60v7c11.8,0,20.8-4.1,22.3-5c1.6,4,4.5,5,4.5,5H63v-7H35.2z"/>
		
			<ellipse transform="matrix(0.2235 -0.9747 0.9747 0.2235 -31.7313 102.822)" class="st10" cx="48.7" cy="71.3" rx="1.1" ry="1.1"/>
		
			<ellipse transform="matrix(0.2235 -0.9747 0.9747 0.2235 -24.2663 111.9987)" class="st10" cx="58.2" cy="71.2" rx="1.1" ry="1.1"/>
	</g>
	
		<linearGradient id="SVGID_11_" gradientUnits="userSpaceOnUse" x1="81.4795" y1="96.8889" x2="81.4795" y2="50.45" gradientTransform="matrix(1 0 0 -1 0 116)">
		<stop  offset="0" style="stop-color:#38FFBF;stop-opacity:0"/>
		<stop  offset="0.6845" style="stop-color:#35FFBE;stop-opacity:0.6845"/>
		<stop  offset="1" style="stop-color:#30FFBD"/>
	</linearGradient>
	<path class="st11" d="M93.3,41.6H69.6c-0.9,0-1.6,0.7-1.6,1.6v17.3c0,0.9,0.7,1.6,1.6,1.6h4.9v3.5l4.5-3.5h14.2
		c0.9,0,1.6-0.7,1.6-1.6V43.3C94.9,42.4,94.2,41.6,93.3,41.6z"/>
	<g>
		
			<linearGradient id="SVGID_12_" gradientUnits="userSpaceOnUse" x1="75.954" y1="70.9641" x2="76.079" y2="65.7766" gradientTransform="matrix(1 0 0 -1 0 116)">
			<stop  offset="0" style="stop-color:#38FFBF;stop-opacity:0"/>
			<stop  offset="0.6845" style="stop-color:#35FFBE;stop-opacity:0.6845"/>
			<stop  offset="1" style="stop-color:#30FFBD"/>
		</linearGradient>
		<path class="st12" d="M78.9,51.1h-1c0-1-0.8-1.8-1.8-1.8s-1.8,0.8-1.8,1.8h-1c0-1.5,1.2-2.8,2.8-2.8S78.9,49.6,78.9,51.1z"/>
	</g>
	<g>
		
			<linearGradient id="SVGID_13_" gradientUnits="userSpaceOnUse" x1="87.3614" y1="71.239" x2="87.4864" y2="66.0515" gradientTransform="matrix(1 0 0 -1 0 116)">
			<stop  offset="0" style="stop-color:#38FFBF;stop-opacity:0"/>
			<stop  offset="0.6845" style="stop-color:#35FFBE;stop-opacity:0.6845"/>
			<stop  offset="1" style="stop-color:#30FFBD"/>
		</linearGradient>
		<path class="st13" d="M90.3,51.1h-1c0-1-0.8-1.8-1.8-1.8s-1.8,0.8-1.8,1.8h-1c0-1.5,1.2-2.8,2.8-2.8S90.3,49.6,90.3,51.1z"/>
	</g>
	
		<linearGradient id="SVGID_14_" gradientUnits="userSpaceOnUse" x1="82.0781" y1="62.4359" x2="82.1913" y2="57.7291" gradientTransform="matrix(1 0 0 -1 0 116)">
		<stop  offset="0" style="stop-color:#38FFBF;stop-opacity:0"/>
		<stop  offset="0.6845" style="stop-color:#35FFBE;stop-opacity:0.6845"/>
		<stop  offset="1" style="stop-color:#30FFBD"/>
	</linearGradient>
	<path class="st14" d="M82.1,58.3L82.1,58.3c-1.9,0-3.5-1.6-3.5-3.5v-1.2h6.9v1.2C85.6,56.7,84,58.3,82.1,58.3z"/>
	
		<linearGradient id="SVGID_15_" gradientUnits="userSpaceOnUse" x1="-468.2173" y1="6083.8096" x2="-435.7612" y2="6083.8096" gradientTransform="matrix(0.9658 0.2593 0.2593 -0.9658 -1059.9763 6082.8525)">
		<stop  offset="0" style="stop-color:#38FFBF;stop-opacity:0"/>
		<stop  offset="0.6845" style="stop-color:#35FFBE;stop-opacity:0.6845"/>
		<stop  offset="1" style="stop-color:#30FFBD"/>
	</linearGradient>
	<circle class="st15" cx="81" cy="89.9" r="16.2"/>
	<g>
		<path class="st16" d="M32.1,32.1h-0.7c-0.2,0-0.3-0.2-0.3-0.3v-0.6c0-0.2,0.2-0.3,0.3-0.3h0.7c0.2,0,0.3,0.2,0.3,0.3v0.6
			C32.4,31.9,32.3,32.1,32.1,32.1z"/>
		<path class="st16" d="M32.1,37.3h-0.7c-0.2,0-0.3-0.2-0.3-0.3v-0.6c0-0.2,0.2-0.3,0.3-0.3h0.7c0.2,0,0.3,0.2,0.3,0.3V37
			C32.4,37.2,32.3,37.3,32.1,37.3z"/>
		<path class="st16" d="M32.1,42.5h-0.7c-0.2,0-0.3-0.2-0.3-0.3v-0.6c0-0.2,0.2-0.3,0.3-0.3h0.7c0.2,0,0.3,0.2,0.3,0.3v0.6
			C32.4,42.4,32.3,42.5,32.1,42.5z"/>
		<path class="st16" d="M32.1,47.2h-0.7c-0.2,0-0.3-0.2-0.3-0.3v-0.6c0-0.2,0.2-0.3,0.3-0.3h0.7c0.2,0,0.3,0.2,0.3,0.3v0.6
			C32.4,47.1,32.3,47.2,32.1,47.2z"/>
		<path class="st16" d="M32.1,51.8h-0.7c-0.2,0-0.3-0.2-0.3-0.3v-0.6c0-0.2,0.2-0.3,0.3-0.3h0.7c0.2,0,0.3,0.2,0.3,0.3v0.6
			C32.4,51.6,32.3,51.8,32.1,51.8z"/>
		<path class="st16" d="M32.1,57h-0.7c-0.2,0-0.3-0.2-0.3-0.3v-0.6c0-0.2,0.2-0.3,0.3-0.3h0.7c0.2,0,0.3,0.2,0.3,0.3v0.6
			C32.4,56.9,32.3,57,32.1,57z"/>
		<path class="st16" d="M32.1,62.2h-0.7c-0.2,0-0.3-0.2-0.3-0.3v-0.6c0-0.2,0.2-0.3,0.3-0.3h0.7c0.2,0,0.3,0.2,0.3,0.3v0.6
			C32.4,62,32.3,62.2,32.1,62.2z"/>
		<path class="st16" d="M26.1,32.1h-0.7c-0.2,0-0.3-0.2-0.3-0.3v-0.6c0-0.2,0.2-0.3,0.3-0.3h0.7c0.2,0,0.3,0.2,0.3,0.3v0.6
			C26.4,31.9,26.3,32.1,26.1,32.1z"/>
		<path class="st16" d="M26.1,37.3h-0.7c-0.2,0-0.3-0.2-0.3-0.3v-0.6c0-0.2,0.2-0.3,0.3-0.3h0.7c0.2,0,0.3,0.2,0.3,0.3V37
			C26.4,37.2,26.3,37.3,26.1,37.3z"/>
		<path class="st16" d="M26.1,42.5h-0.7c-0.2,0-0.3-0.2-0.3-0.3v-0.6c0-0.2,0.2-0.3,0.3-0.3h0.7c0.2,0,0.3,0.2,0.3,0.3v0.6
			C26.4,42.4,26.3,42.5,26.1,42.5z"/>
		<path class="st16" d="M26.1,47.2h-0.7c-0.2,0-0.3-0.2-0.3-0.3v-0.6c0-0.2,0.2-0.3,0.3-0.3h0.7c0.2,0,0.3,0.2,0.3,0.3v0.6
			C26.4,47.1,26.3,47.2,26.1,47.2z"/>
		<path class="st16" d="M26.1,51.8h-0.7c-0.2,0-0.3-0.2-0.3-0.3v-0.6c0-0.2,0.2-0.3,0.3-0.3h0.7c0.2,0,0.3,0.2,0.3,0.3v0.6
			C26.4,51.6,26.3,51.8,26.1,51.8z"/>
		<path class="st16" d="M26.1,57h-0.7c-0.2,0-0.3-0.2-0.3-0.3v-0.6c0-0.2,0.2-0.3,0.3-0.3h0.7c0.2,0,0.3,0.2,0.3,0.3v0.6
			C26.4,56.9,26.3,57,26.1,57z"/>
		<path class="st16" d="M26.1,62.2h-0.7c-0.2,0-0.3-0.2-0.3-0.3v-0.6c0-0.2,0.2-0.3,0.3-0.3h0.7c0.2,0,0.3,0.2,0.3,0.3v0.6
			C26.4,62,26.3,62.2,26.1,62.2z"/>
		<path class="st16" d="M26.1,66.9h-0.7c-0.2,0-0.3-0.2-0.3-0.3V66c0-0.2,0.2-0.3,0.3-0.3h0.7c0.2,0,0.3,0.2,0.3,0.3v0.6
			C26.4,66.8,26.3,66.9,26.1,66.9z"/>
	</g>
</g>
</svg>
