<svg xmlns="http://www.w3.org/2000/svg" width="115" height="115" viewBox="-3263.862 3838.445 115 115" enable-background="new -3263.862 3838.445 115 115"><linearGradient id="a" gradientUnits="userSpaceOnUse" x1="2084.624" y1="-1974.341" x2="2162.173" y2="-1974.341" gradientTransform="matrix(-.966 -.259 .259 -.966 -647.708 2546.468)"><stop offset="0" stop-color="#38FFBF" stop-opacity="0"/><stop offset=".684" stop-color="#35FFBE" stop-opacity=".684"/><stop offset="1" stop-color="#30FFBD"/></linearGradient><circle opacity=".65" fill="url(#a)" cx="-3210.375" cy="3902.781" r="38.774"/><linearGradient id="b" gradientUnits="userSpaceOnUse" x1="-2407.302" y1="-3106.371" x2="-2359.727" y2="-3106.371" gradientTransform="matrix(.941 -.339 .339 .941 111.38 6005.882)"><stop offset="0" stop-color="#38FFBF" stop-opacity="0"/><stop offset=".684" stop-color="#35FFBE" stop-opacity=".684"/><stop offset="1" stop-color="#30FFBD"/></linearGradient><circle opacity=".65" fill="url(#b)" cx="-3184.843" cy="3892.685" r="23.787"/><linearGradient id="c" gradientUnits="userSpaceOnUse" x1="-3209.608" y1="3931.655" x2="-3209.455" y2="3937.643"><stop offset="0" stop-color="#388EBF"/><stop offset="1" stop-color="#30F2BB"/></linearGradient><path fill="url(#c)" d="M-3206.02 3937.249h-7.082c-1.196 0-2.175-.979-2.175-2.175v-3.154h11.431v3.154c.001 1.184-.978 2.175-2.174 2.175z"/><linearGradient id="d" gradientUnits="userSpaceOnUse" x1="-3209.318" y1="3930.486" x2="-3209.625" y2="3922.501"><stop offset="0" stop-color="#388EBF"/><stop offset="1" stop-color="#30F2BB"/></linearGradient><path fill="url(#d)" d="M-3220.681 3922.333h22.468c.499 0 .903.404.903.903v7.769c0 .499-.404.903-.903.903h-22.468c-.499 0-.903-.405-.903-.903v-7.769c0-.498.404-.903.903-.903z"/><linearGradient id="e" gradientUnits="userSpaceOnUse" x1="-3209.562" y1="3921.676" x2="-3209.562" y2="3892.419"><stop offset="0" stop-color="#388EBF"/><stop offset="1" stop-color="#30F2BB"/></linearGradient><path fill="url(#e)" d="M-3209.557 3876.781c-.717 0-1.53 0-2.213.121-9.051 1.043-16.371 8.321-17.406 17.309-.59 5.281.82 10.223 4.063 14.277 3.075 3.977 4.705 8.28 4.844 12.79l.036 1.19h21.357l.043-1.184c.161-4.498 1.798-8.843 4.732-12.567 2.776-3.466 4.298-7.797 4.286-12.195-.001-10.884-8.857-19.741-19.742-19.741z"/><circle fill="#00FFC2" cx="-3234.052" cy="3895.549" r="1.087"/><circle fill="#00FFC2" cx="-3232.22" cy="3886.188" r="1.087"/><circle fill="#00FFC2" cx="-3226.84" cy="3878.009" r="1.087"/><circle fill="#00FFC2" cx="-3218.959" cy="3872.863" r="1.087"/><circle fill="#00FFC2" cx="-3209.492" cy="3870.996" r="1.087"/><circle fill="#00FFC2" cx="-3200.036" cy="3872.863" r="1.087"/><circle fill="#00FFC2" cx="-3192.088" cy="3878.184" r="1.087"/><circle fill="#00FFC2" cx="-3186.755" cy="3886.144" r="1.087"/><circle fill="#00FFC2" cx="-3184.843" cy="3895.549" r="1.087"/><g fill="#3A3A62"><path d="M-3205.139 3894.394h-.878c-.246 0-.447-.201-.447-.447v-.816c0-.246.201-.447.447-.447h.878c.246 0 .447.201.447.447v.816c-.001.246-.202.447-.447.447zM-3205.139 3901.213h-.878c-.246 0-.447-.201-.447-.447v-.816c0-.246.201-.447.447-.447h.878c.246 0 .447.201.447.447v.816c-.001.246-.202.447-.447.447zM-3205.139 3907.882h-.878c-.246 0-.447-.201-.447-.447v-.816c0-.246.201-.447.447-.447h.878c.246 0 .447.201.447.447v.816c-.001.246-.202.447-.447.447zM-3205.139 3914.011h-.878c-.246 0-.447-.201-.447-.447v-.816c0-.246.201-.447.447-.447h.878c.246 0 .447.201.447.447v.816c-.001.246-.202.447-.447.447zM-3205.139 3919.853h-.878c-.246 0-.447-.201-.447-.447v-.816c0-.245.201-.446.447-.446h.878c.246 0 .447.201.447.446v.816c-.001.246-.202.447-.447.447zM-3212.877 3894.394h-.878c-.246 0-.447-.201-.447-.447v-.816c0-.246.201-.447.447-.447h.878c.246 0 .447.201.447.447v.816c0 .246-.201.447-.447.447zM-3212.877 3901.213h-.878c-.246 0-.447-.201-.447-.447v-.816c0-.246.201-.447.447-.447h.878c.246 0 .447.201.447.447v.816c0 .246-.201.447-.447.447zM-3212.877 3907.882h-.878c-.246 0-.447-.201-.447-.447v-.816c0-.246.201-.447.447-.447h.878c.246 0 .447.201.447.447v.816c0 .246-.201.447-.447.447zM-3212.877 3914.011h-.878c-.246 0-.447-.201-.447-.447v-.816c0-.246.201-.447.447-.447h.878c.246 0 .447.201.447.447v.816c0 .246-.201.447-.447.447zM-3212.877 3919.853h-.878c-.246 0-.447-.201-.447-.447v-.816c0-.245.201-.446.447-.446h.878c.246 0 .447.201.447.446v.816c0 .246-.201.447-.447.447z"/></g><linearGradient id="f" gradientUnits="userSpaceOnUse" x1="-3210.382" y1="3852.886" x2="-3207.992" y2="3932.963"><stop offset="0" stop-color="#38FFBF" stop-opacity="0"/><stop offset=".684" stop-color="#35FFBE" stop-opacity=".684"/><stop offset="1" stop-color="#30FFBD"/></linearGradient><path fill="url(#f)" d="M-3220.242 3838.445h21.366v84.023h-21.366z"/></svg>