<?xml version="1.0" encoding="utf-8"?>
<!-- Generator: Adobe Illustrator 19.2.1, SVG Export Plug-In . SVG Version: 6.00 Build 0)  -->
<svg version="1.1"
	 id="svg10502" inkscape:version="0.91 r13725" sodipodi:docname="Theme.svg" xmlns:cc="http://creativecommons.org/ns#" xmlns:dc="http://purl.org/dc/elements/1.1/" xmlns:inkscape="http://www.inkscape.org/namespaces/inkscape" xmlns:rdf="http://www.w3.org/1999/02/22-rdf-syntax-ns#" xmlns:sodipodi="http://sodipodi.sourceforge.net/DTD/sodipodi-0.dtd" xmlns:svg="http://www.w3.org/2000/svg"
	 xmlns="http://www.w3.org/2000/svg" xmlns:xlink="http://www.w3.org/1999/xlink" x="0px" y="0px" width="115px" height="115px"
	 viewBox="-3263.862 3838.445 115 115" enable-background="new -3263.862 3838.445 115 115" xml:space="preserve">
<g>
	<g>
		
			<linearGradient id="SVGID_2_" gradientUnits="userSpaceOnUse" x1="2084.6243" y1="-1974.3408" x2="2162.1731" y2="-1974.3408" gradientTransform="matrix(-0.9658 -0.2593 0.2593 -0.9658 -647.708 2546.4685)">
			<stop  offset="0" style="stop-color:#38FFBF;stop-opacity:0"/>
			<stop  offset="0.6845" style="stop-color:#35FFBE;stop-opacity:0.6845"/>
			<stop  offset="1" style="stop-color:#30FFBD"/>
		</linearGradient>
		<circle opacity="0.65" fill="url(#SVGID_2_)" cx="-3210.375" cy="3902.781" r="38.774"/>
		
			<linearGradient id="SVGID_4_" gradientUnits="userSpaceOnUse" x1="-2407.302" y1="-3106.3713" x2="-2359.7275" y2="-3106.3713" gradientTransform="matrix(0.9407 -0.3393 0.3393 0.9407 111.38 6005.8818)">
			<stop  offset="0" style="stop-color:#38FFBF;stop-opacity:0"/>
			<stop  offset="0.6845" style="stop-color:#35FFBE;stop-opacity:0.6845"/>
			<stop  offset="1" style="stop-color:#30FFBD"/>
		</linearGradient>
		<circle opacity="0.65" fill="url(#SVGID_4_)" cx="-3184.843" cy="3892.685" r="23.787"/>
		<linearGradient id="SVGID_5_" gradientUnits="userSpaceOnUse" x1="-3209.6084" y1="3931.6545" x2="-3209.4548" y2="3937.6428">
			<stop  offset="0" style="stop-color:#388EBF"/>
			<stop  offset="1" style="stop-color:#30F2BB"/>
		</linearGradient>
		<path fill="url(#SVGID_5_)" d="M-3206.02,3937.249h-7.082c-1.196,0-2.175-0.979-2.175-2.175v-3.154h11.431v3.154
			C-3203.845,3936.258-3204.824,3937.249-3206.02,3937.249z"/>
		<linearGradient id="SVGID_6_" gradientUnits="userSpaceOnUse" x1="-3209.3176" y1="3930.4858" x2="-3209.6248" y2="3922.5015">
			<stop  offset="0" style="stop-color:#388EBF"/>
			<stop  offset="1" style="stop-color:#30F2BB"/>
		</linearGradient>
		<path fill="url(#SVGID_6_)" d="M-3220.681,3922.333h22.468c0.499,0,0.903,0.404,0.903,0.903v7.769
			c0,0.499-0.404,0.903-0.903,0.903h-22.468c-0.499,0-0.903-0.405-0.903-0.903v-7.769
			C-3221.584,3922.738-3221.18,3922.333-3220.681,3922.333z"/>
		<linearGradient id="SVGID_7_" gradientUnits="userSpaceOnUse" x1="-3209.5618" y1="3921.6758" x2="-3209.5618" y2="3892.4192">
			<stop  offset="0" style="stop-color:#388EBF"/>
			<stop  offset="1" style="stop-color:#30F2BB"/>
		</linearGradient>
		<path fill="url(#SVGID_7_)" d="M-3209.557,3876.781c-0.717,0-1.53,0-2.213,0.121c-9.051,1.043-16.371,8.321-17.406,17.309
			c-0.59,5.281,0.82,10.223,4.063,14.277c3.075,3.977,4.705,8.28,4.844,12.79l0.036,1.19h21.357l0.043-1.184
			c0.161-4.498,1.798-8.843,4.732-12.567c2.776-3.466,4.298-7.797,4.286-12.195
			C-3189.816,3885.638-3198.672,3876.781-3209.557,3876.781z"/>
		<circle fill="#00FFC2" cx="-3234.052" cy="3895.549" r="1.087"/>
		<circle fill="#00FFC2" cx="-3232.22" cy="3886.188" r="1.087"/>
		<circle fill="#00FFC2" cx="-3226.84" cy="3878.009" r="1.087"/>
		<circle fill="#00FFC2" cx="-3218.959" cy="3872.863" r="1.087"/>
		<circle fill="#00FFC2" cx="-3209.492" cy="3870.996" r="1.087"/>
		<circle fill="#00FFC2" cx="-3200.036" cy="3872.863" r="1.087"/>
		<circle fill="#00FFC2" cx="-3192.088" cy="3878.184" r="1.087"/>
		<circle fill="#00FFC2" cx="-3186.755" cy="3886.144" r="1.087"/>
		<circle fill="#00FFC2" cx="-3184.843" cy="3895.549" r="1.087"/>
		<g>
			<path fill="#3A3A62" d="M-3205.139,3894.394h-0.878c-0.246,0-0.447-0.201-0.447-0.447v-0.816c0-0.246,0.201-0.447,0.447-0.447
				h0.878c0.246,0,0.447,0.201,0.447,0.447v0.816C-3204.693,3894.193-3204.894,3894.394-3205.139,3894.394z"/>
			<path fill="#3A3A62" d="M-3205.139,3901.213h-0.878c-0.246,0-0.447-0.201-0.447-0.447v-0.816c0-0.246,0.201-0.447,0.447-0.447
				h0.878c0.246,0,0.447,0.201,0.447,0.447v0.816C-3204.693,3901.012-3204.894,3901.213-3205.139,3901.213z"/>
			<path fill="#3A3A62" d="M-3205.139,3907.882h-0.878c-0.246,0-0.447-0.201-0.447-0.447v-0.816c0-0.246,0.201-0.447,0.447-0.447
				h0.878c0.246,0,0.447,0.201,0.447,0.447v0.816C-3204.693,3907.681-3204.894,3907.882-3205.139,3907.882z"/>
			<path fill="#3A3A62" d="M-3205.139,3914.011h-0.878c-0.246,0-0.447-0.201-0.447-0.447v-0.816c0-0.246,0.201-0.447,0.447-0.447
				h0.878c0.246,0,0.447,0.201,0.447,0.447v0.816C-3204.693,3913.81-3204.894,3914.011-3205.139,3914.011z"/>
			<path fill="#3A3A62" d="M-3205.139,3919.853h-0.878c-0.246,0-0.447-0.201-0.447-0.447v-0.816c0-0.245,0.201-0.446,0.447-0.446
				h0.878c0.246,0,0.447,0.201,0.447,0.446v0.816C-3204.693,3919.652-3204.894,3919.853-3205.139,3919.853z"/>
			<path fill="#3A3A62" d="M-3212.877,3894.394h-0.878c-0.246,0-0.447-0.201-0.447-0.447v-0.816c0-0.246,0.201-0.447,0.447-0.447
				h0.878c0.246,0,0.447,0.201,0.447,0.447v0.816C-3212.43,3894.193-3212.631,3894.394-3212.877,3894.394z"/>
			<path fill="#3A3A62" d="M-3212.877,3901.213h-0.878c-0.246,0-0.447-0.201-0.447-0.447v-0.816c0-0.246,0.201-0.447,0.447-0.447
				h0.878c0.246,0,0.447,0.201,0.447,0.447v0.816C-3212.43,3901.012-3212.631,3901.213-3212.877,3901.213z"/>
			<path fill="#3A3A62" d="M-3212.877,3907.882h-0.878c-0.246,0-0.447-0.201-0.447-0.447v-0.816c0-0.246,0.201-0.447,0.447-0.447
				h0.878c0.246,0,0.447,0.201,0.447,0.447v0.816C-3212.43,3907.681-3212.631,3907.882-3212.877,3907.882z"/>
			<path fill="#3A3A62" d="M-3212.877,3914.011h-0.878c-0.246,0-0.447-0.201-0.447-0.447v-0.816c0-0.246,0.201-0.447,0.447-0.447
				h0.878c0.246,0,0.447,0.201,0.447,0.447v0.816C-3212.43,3913.81-3212.631,3914.011-3212.877,3914.011z"/>
			<path fill="#3A3A62" d="M-3212.877,3919.853h-0.878c-0.246,0-0.447-0.201-0.447-0.447v-0.816c0-0.245,0.201-0.446,0.447-0.446
				h0.878c0.246,0,0.447,0.201,0.447,0.446v0.816C-3212.43,3919.652-3212.631,3919.853-3212.877,3919.853z"/>
		</g>
	</g>
	<linearGradient id="SVGID_9_" gradientUnits="userSpaceOnUse" x1="-3210.3818" y1="3852.8862" x2="-3207.9917" y2="3932.9629">
		<stop  offset="0" style="stop-color:#38FFBF;stop-opacity:0"/>
		<stop  offset="0.6845" style="stop-color:#35FFBE;stop-opacity:0.6845"/>
		<stop  offset="1" style="stop-color:#30FFBD"/>
	</linearGradient>
	<rect x="-3220.242" y="3838.445" fill="url(#SVGID_9_)" width="21.366" height="84.023"/>
</g>
</svg>
