<svg xmlns="http://www.w3.org/2000/svg" width="115" height="115" viewBox="-3388.362 3838.445 115 115" enable-background="new -3388.362 3838.445 115 115"><linearGradient id="a" gradientUnits="userSpaceOnUse" x1="-1108.534" y1="6563.398" x2="-1126.691" y2="6603.985" gradientTransform="matrix(.037 .999 -.999 .037 3264.9 4774.881)"><stop offset="0" stop-color="#38FFBF" stop-opacity="0"/><stop offset=".684" stop-color="#35FFBE" stop-opacity=".684"/><stop offset="1" stop-color="#30FFBD"/></linearGradient><circle opacity=".34" fill="url(#a)" cx="-3355.924" cy="3900.234" r="21.102"/><linearGradient id="b" gradientUnits="userSpaceOnUse" x1="1540.041" y1="3204.33" x2="1527.573" y2="3232.201" gradientTransform="matrix(-.923 -.385 .385 -.923 -3127.187 7463.889)"><stop offset="0" stop-color="#38FFBF" stop-opacity="0"/><stop offset=".684" stop-color="#35FFBE" stop-opacity=".684"/><stop offset="1" stop-color="#30FFBD"/></linearGradient><circle opacity=".34" fill="url(#b)" cx="-3305.597" cy="3903.061" r="14.491"/><linearGradient id="c" gradientUnits="userSpaceOnUse" x1="-3331.647" y1="3850.854" x2="-3329.546" y2="3921.229"><stop offset="0" stop-color="#38FFBF" stop-opacity="0"/><stop offset=".684" stop-color="#35FFBE" stop-opacity=".684"/><stop offset="1" stop-color="#30FFBD"/></linearGradient><path fill="url(#c)" d="M-3312.033 3908.146l-37.747 4.703v-74.404h37.747z"/><linearGradient id="d" gradientUnits="userSpaceOnUse" x1="-3330.9" y1="3916.773" x2="-3330.555" y2="3877.726"><stop offset="0" stop-color="#388EBF"/><stop offset="1" stop-color="#30F2BB"/></linearGradient><path fill="url(#d)" d="M-3311.944 3912.529c.006.791-.462 1.503-1.18 1.836-4.515 2.094-10.792 3.395-17.738 3.395s-13.223-1.3-17.738-3.395c-.718-.333-1.186-1.045-1.18-1.836.142-19.011 3.619-35.602 18.918-35.602s18.776 16.591 18.918 35.602z"/><linearGradient id="e" gradientUnits="userSpaceOnUse" x1="-3352.772" y1="3922.738" x2="-3308.952" y2="3922.738"><stop offset="0" stop-color="#388EBF"/><stop offset="1" stop-color="#30F2BB"/></linearGradient><path fill="url(#e)" d="M-3323.891 3915.606v-4.818h-13.943v4.818c0 1.286-.823 2.428-2.043 2.834l-9.491 3.164c-2.033.678-3.405 2.581-3.405 4.724v6.37c0 1.1.892 1.992 1.992 1.992h39.836c1.1 0 1.992-.892 1.992-1.992v-6.37c0-2.143-1.371-4.046-3.405-4.724l-9.491-3.164c-1.219-.407-2.042-1.548-2.042-2.834z"/><linearGradient id="f" gradientUnits="userSpaceOnUse" x1="-3331.095" y1="3919.122" x2="-3330.69" y2="3937.164"><stop offset="0" stop-color="#388EBF"/><stop offset="1" stop-color="#30F2BB"/></linearGradient><path fill="url(#f)" d="M-3312.357 3921.604l-7.755-2.585c-3.691 5.008-7.999 7.806-10.75 8.7-2.751-.894-7.059-3.692-10.75-8.7l-7.755 2.585c-2.033.678-3.405 2.581-3.405 4.724v6.37c0 1.1.892 1.992 1.992 1.992h39.836c1.1 0 1.992-.892 1.992-1.992v-6.37c0-2.144-1.371-4.047-3.405-4.724z"/><linearGradient id="g" gradientUnits="userSpaceOnUse" x1="-3349.289" y1="3934.2" x2="-3347.971" y2="3924.063"><stop offset="0" stop-color="#388EBF"/><stop offset="1" stop-color="#30F2BB"/></linearGradient><path fill="url(#g)" d="M-3345.972 3928.543l-5.525-5.525c-.797.892-1.276 2.055-1.276 3.309v6.37c0 1.1.892 1.992 1.992 1.992h5.976v-3.33c0-1.056-.419-2.069-1.167-2.816z"/><linearGradient id="h" gradientUnits="userSpaceOnUse" x1="-3313.825" y1="3938.81" x2="-3312.508" y2="3928.673"><stop offset="0" stop-color="#388EBF"/><stop offset="1" stop-color="#30F2BB"/></linearGradient><path fill="url(#h)" d="M-3315.752 3928.543l5.525-5.525c.797.892 1.276 2.055 1.276 3.309v6.37c0 1.1-.892 1.992-1.992 1.992h-5.975v-3.33c-.001-1.056.418-2.069 1.166-2.816z"/><linearGradient id="i" gradientUnits="userSpaceOnUse" x1="-3317.136" y1="3924.267" x2="-3343.186" y2="3924.47"><stop offset="0" stop-color="#388EBF"/><stop offset="1" stop-color="#30F2BB"/></linearGradient><path fill="url(#i)" d="M-3343.215 3920.2c4 5.427 8.686 8.421 11.738 9.413l.615.2.616-.2c3.052-.991 7.737-3.985 11.738-9.412l.357-.528-1.96-.653c-3.691 5.007-7.999 7.806-10.75 8.699-2.751-.894-7.059-3.692-10.75-8.699l-1.96.653.356.527z"/><linearGradient id="j" gradientUnits="userSpaceOnUse" x1="-3330.842" y1="3888.016" x2="-3331.014" y2="3914.506"><stop offset="0" stop-color="#388EBF"/><stop offset="1" stop-color="#30F2BB"/></linearGradient><path fill="url(#j)" d="M-3343.809 3888.878v4.294c0 1.784.068 3.568.205 5.347l.574 7.461c.137 1.783 1.066 3.411 2.531 4.437l6.014 4.21c1.061.743 2.325 1.142 3.621 1.142h.003c1.295 0 2.56-.399 3.621-1.142l6.014-4.21c1.465-1.026 2.394-2.654 2.531-4.437l.574-7.461c.137-1.779.205-3.562.205-5.347v-4.294h-25.893z"/><linearGradient id="k" gradientUnits="userSpaceOnUse" x1="-3331.086" y1="3916.771" x2="-3330.742" y2="3877.724"><stop offset="0" stop-color="#388EBF"/><stop offset="1" stop-color="#30F2BB"/></linearGradient><path fill="url(#k)" d="M-3344.805 3887.882v6.971c11.799 0 20.781-4.108 22.285-5.015 1.617 4.019 4.53 5.015 4.53 5.015h1.071v-6.971h-27.886z"/><ellipse transform="matrix(.224 -.975 .975 .224 -6390.43 -223.276)" fill="#3A3A62" cx="-3335.353" cy="3899.29" rx="1.108" ry="1.108"/><ellipse transform="matrix(.224 -.975 .975 .224 -6382.965 -214.1)" fill="#3A3A62" cx="-3325.862" cy="3899.192" rx="1.108" ry="1.108"/><linearGradient id="l" gradientUnits="userSpaceOnUse" x1="-3331.658" y1="3853.89" x2="-3330.325" y2="3934.557"><stop offset="0" stop-color="#38FFBF" stop-opacity="0"/><stop offset=".684" stop-color="#35FFBE" stop-opacity=".684"/><stop offset="1" stop-color="#30FFBD"/></linearGradient><path fill="url(#l)" d="M-3330.862 3863.135c-21.475 0-38.883 17.409-38.883 38.883 0 21.475 17.409 38.884 38.883 38.884s38.883-17.409 38.883-38.884c0-21.474-17.409-38.883-38.883-38.883zm0 69.226c-16.757 0-30.342-13.584-30.342-30.342s13.584-30.342 30.342-30.342 30.342 13.584 30.342 30.342-13.585 30.342-30.342 30.342z"/><linearGradient id="m" gradientUnits="userSpaceOnUse" x1="-3377.171" y1="3901.857" x2="-3365.375" y2="3901.202"><stop offset="0" stop-color="#388EBF"/><stop offset="1" stop-color="#30F2BB"/></linearGradient><path fill="url(#m)" d="M-3377.031 3900.234h7.285v2.826h-7.285z"/><linearGradient id="n" gradientUnits="userSpaceOnUse" x1="-3292.119" y1="3901.857" x2="-3280.323" y2="3901.202"><stop offset="0" stop-color="#388EBF"/><stop offset="1" stop-color="#30F2BB"/></linearGradient><path fill="url(#n)" d="M-3291.979 3900.234h7.285v2.826h-7.285z"/><linearGradient id="o" gradientUnits="userSpaceOnUse" x1="-1046.721" y1="6594.12" x2="-1034.925" y2="6593.465" gradientTransform="matrix(0 1 -1 0 3263.048 4902.06)"><stop offset="0" stop-color="#388EBF"/><stop offset="1" stop-color="#30F2BB"/></linearGradient><path fill="url(#o)" d="M-3332.276 3862.764v-7.285h2.827v7.285z"/><linearGradient id="p" gradientUnits="userSpaceOnUse" x1="-961.669" y1="6594.12" x2="-949.874" y2="6593.465" gradientTransform="matrix(0 1 -1 0 3263.048 4902.06)"><stop offset="0" stop-color="#388EBF"/><stop offset="1" stop-color="#30F2BB"/></linearGradient><path fill="url(#p)" d="M-3332.276 3947.815v-7.284h2.827v7.284z"/><g fill="#00FFC2"><path d="M-3300.866 3862.487h-.679c-.19 0-.345-.156-.345-.345v-.631c0-.19.156-.345.345-.345h.679c.19 0 .345.156.345.345v.631c0 .19-.155.345-.345.345zM-3300.866 3867.76h-.679c-.19 0-.345-.155-.345-.345v-.631c0-.19.156-.345.345-.345h.679c.19 0 .345.155.345.345v.631c0 .189-.155.345-.345.345zM-3300.866 3872.917h-.679c-.19 0-.345-.155-.345-.345v-.631c0-.19.156-.345.345-.345h.679c.19 0 .345.155.345.345v.631c0 .19-.155.345-.345.345zM-3300.866 3877.656h-.679c-.19 0-.345-.155-.345-.345v-.631c0-.19.156-.345.345-.345h.679c.19 0 .345.155.345.345v.631c0 .19-.155.345-.345.345zM-3300.866 3882.174h-.679c-.19 0-.345-.156-.345-.345v-.631c0-.19.156-.345.345-.345h.679c.19 0 .345.155.345.345v.631c0 .189-.155.345-.345.345zM-3300.866 3887.446h-.679c-.19 0-.345-.155-.345-.345v-.631c0-.19.156-.345.345-.345h.679c.19 0 .345.156.345.345v.631c0 .19-.155.345-.345.345zM-3300.866 3892.604h-.679c-.19 0-.345-.155-.345-.345v-.631c0-.19.156-.345.345-.345h.679c.19 0 .345.156.345.345v.631c0 .189-.155.345-.345.345zM-3306.849 3862.487h-.679c-.19 0-.345-.156-.345-.345v-.631c0-.19.156-.345.345-.345h.679c.19 0 .345.156.345.345v.631c0 .19-.155.345-.345.345zM-3306.849 3867.76h-.679c-.19 0-.345-.155-.345-.345v-.631c0-.19.156-.345.345-.345h.679c.19 0 .345.155.345.345v.631c0 .189-.155.345-.345.345zM-3306.849 3872.917h-.679c-.19 0-.345-.155-.345-.345v-.631c0-.19.156-.345.345-.345h.679c.19 0 .345.155.345.345v.631c0 .19-.155.345-.345.345zM-3306.849 3877.656h-.679c-.19 0-.345-.155-.345-.345v-.631c0-.19.156-.345.345-.345h.679c.19 0 .345.155.345.345v.631c0 .19-.155.345-.345.345zM-3306.849 3882.174h-.679c-.19 0-.345-.156-.345-.345v-.631c0-.19.156-.345.345-.345h.679c.19 0 .345.155.345.345v.631c0 .189-.155.345-.345.345zM-3306.849 3887.446h-.679c-.19 0-.345-.155-.345-.345v-.631c0-.19.156-.345.345-.345h.679c.19 0 .345.156.345.345v.631c0 .19-.155.345-.345.345zM-3306.849 3892.604h-.679c-.19 0-.345-.155-.345-.345v-.631c0-.19.156-.345.345-.345h.679c.19 0 .345.156.345.345v.631c0 .189-.155.345-.345.345zM-3306.849 3897.343h-.679c-.19 0-.345-.155-.345-.345v-.631c0-.19.156-.345.345-.345h.679c.19 0 .345.156.345.345v.631c0 .19-.155.345-.345.345z"/></g></svg>