<?xml version="1.0" encoding="utf-8"?>
<!-- Generator: Adobe Illustrator 19.2.1, SVG Export Plug-In . SVG Version: 6.00 Build 0)  -->
<svg version="1.1"
	 id="svg10502" inkscape:version="0.91 r13725" sodipodi:docname="Theme.svg" xmlns:cc="http://creativecommons.org/ns#" xmlns:dc="http://purl.org/dc/elements/1.1/" xmlns:inkscape="http://www.inkscape.org/namespaces/inkscape" xmlns:rdf="http://www.w3.org/1999/02/22-rdf-syntax-ns#" xmlns:sodipodi="http://sodipodi.sourceforge.net/DTD/sodipodi-0.dtd" xmlns:svg="http://www.w3.org/2000/svg"
	 xmlns="http://www.w3.org/2000/svg" xmlns:xlink="http://www.w3.org/1999/xlink" x="0px" y="0px" width="115px" height="115px"
	 viewBox="-3388.362 3707.445 115 115" enable-background="new -3388.362 3707.445 115 115" xml:space="preserve">
<g>
	<circle fill="#00FFC2" cx="-3354.794" cy="3753.094" r="1.825"/>
	<circle fill="#00FFC2" cx="-3350.535" cy="3746.231" r="1.825"/>
	
		<ellipse transform="matrix(0.9613 -0.2756 0.2756 0.9613 -1160.1715 -776.6539)" fill="#00FFC2" cx="-3343.888" cy="3740.261" rx="1.825" ry="1.825"/>
	
		<ellipse transform="matrix(0.9613 -0.2756 0.2756 0.9613 -1158.9659 -774.3473)" fill="#00FFC2" cx="-3335.076" cy="3737.125" rx="1.825" ry="1.825"/>
	
		<ellipse transform="matrix(0.9613 -0.2756 0.2756 0.9613 -1158.6913 -771.5173)" fill="#00FFC2" cx="-3324.869" cy="3737.562" rx="1.825" ry="1.825"/>
	
		<ellipse transform="matrix(0.9613 -0.2756 0.2756 0.9613 -1159.5326 -769.1885)" fill="#00FFC2" cx="-3317.002" cy="3741.72" rx="1.825" ry="1.825"/>
	
		<ellipse transform="matrix(0.9613 -0.2756 0.2756 0.9613 -1161.0034 -766.9854)" fill="#00FFC2" cx="-3309.897" cy="3748.056" rx="1.825" ry="1.825"/>
	
		<ellipse transform="matrix(0.9613 -0.2756 0.2756 0.9613 -1162.7451 -765.6543)" fill="#00FFC2" cx="-3306.031" cy="3754.92" rx="1.825" ry="1.825"/>
	<g>
		<g>
			<g>
				<linearGradient id="SVGID_2_" gradientUnits="userSpaceOnUse" x1="-3302.6375" y1="3720.207" x2="-3300.4851" y2="3792.3086">
					<stop  offset="0" style="stop-color:#38FFBF;stop-opacity:0"/>
					<stop  offset="0.6845" style="stop-color:#35FFBE;stop-opacity:0.6845"/>
					<stop  offset="1" style="stop-color:#30FFBD"/>
				</linearGradient>
				<polygon fill="url(#SVGID_2_)" points="-3284.174,3780.482 -3319.587,3783.674 -3319.587,3707.445 -3284.174,3707.445 				"/>
				<linearGradient id="SVGID_4_" gradientUnits="userSpaceOnUse" x1="-3357.2971" y1="3720.7427" x2="-3355.0854" y2="3794.8342">
					<stop  offset="0" style="stop-color:#38FFBF;stop-opacity:0"/>
					<stop  offset="0.6845" style="stop-color:#35FFBE;stop-opacity:0.6845"/>
					<stop  offset="1" style="stop-color:#30FFBD"/>
				</linearGradient>
				<polygon fill="url(#SVGID_4_)" points="-3344.671,3785.065 -3368.566,3779.484 -3368.566,3707.445 -3344.671,3707.445 				"/>
				<linearGradient id="SVGID_5_" gradientUnits="userSpaceOnUse" x1="-3317.7917" y1="3733.6216" x2="-3344.0303" y2="3792.2717">
					<stop  offset="0" style="stop-color:#38FFBF;stop-opacity:0"/>
					<stop  offset="0.6845" style="stop-color:#35FFBE;stop-opacity:0.6845"/>
					<stop  offset="1" style="stop-color:#30FFBD"/>
				</linearGradient>
				<circle fill="url(#SVGID_5_)" cx="-3331.197" cy="3763.585" r="30.494"/>
			</g>
			<linearGradient id="SVGID_6_" gradientUnits="userSpaceOnUse" x1="-3357.1968" y1="3794.0967" x2="-3357.0093" y2="3766.7202">
				<stop  offset="0" style="stop-color:#388EBF"/>
				<stop  offset="1" style="stop-color:#30F2BB"/>
			</linearGradient>
			<path fill="url(#SVGID_6_)" d="M-3371.805,3800.409h14.104c8.468,0,15.333-6.865,15.333-15.333v-14.104h-29.437V3800.409z"/>
			
				<linearGradient id="SVGID_7_" gradientUnits="userSpaceOnUse" x1="3630.9233" y1="3777.7097" x2="3671.3867" y2="3777.7097" gradientTransform="matrix(-1 0 0 1 293.8363 0)">
				<stop  offset="0" style="stop-color:#388EBF"/>
				<stop  offset="1" style="stop-color:#30F2BB"/>
			</linearGradient>
			<path fill="url(#SVGID_7_)" d="M-3341.709,3759.367c1.067,0,2.089,0.47,2.769,1.292c4.163,5.03,0.671,10.709-4.147,10.709
				h-11.165c-6.11,0-11.063,4.953-11.063,11.063v6.687c0,7.265-1.77,7.184-6.964,6.795c-2.97-0.223-5.271-2.695-5.271-5.673v-19.324
				c0-6.378,5.171-11.549,11.549-11.549H-3341.709z"/>
			<circle fill="#3A3A62" cx="-3349.27" cy="3779.966" r="1.266"/>
			
				<linearGradient id="SVGID_9_" gradientUnits="userSpaceOnUse" x1="1735.8296" y1="3794.0967" x2="1736.0171" y2="3766.7202" gradientTransform="matrix(-1 0 0 1 -1568.9293 0)">
				<stop  offset="0" style="stop-color:#388EBF"/>
				<stop  offset="1" style="stop-color:#30F2BB"/>
			</linearGradient>
			<path fill="url(#SVGID_9_)" d="M-3290.151,3800.409h-14.104c-8.468,0-15.333-6.865-15.333-15.333v-14.104h29.436V3800.409z"/>
			
				<linearGradient id="SVGID_10_" gradientUnits="userSpaceOnUse" x1="-1462.103" y1="3777.7097" x2="-1421.6398" y2="3777.7097" gradientTransform="matrix(1 0 0 1 -1862.7656 0)">
				<stop  offset="0" style="stop-color:#388EBF"/>
				<stop  offset="1" style="stop-color:#30F2BB"/>
			</linearGradient>
			<path fill="url(#SVGID_10_)" d="M-3320.246,3759.367c-1.067,0-2.089,0.47-2.769,1.292c-4.163,5.03-0.671,10.709,4.147,10.709
				h11.165c6.11,0,11.063,4.953,11.063,11.063v6.687c0,7.265,1.77,7.184,6.964,6.795c2.97-0.223,5.271-2.695,5.271-5.673v-19.324
				c0-6.378-5.17-11.549-11.549-11.549H-3320.246z"/>
			<circle fill="#3A3A62" cx="-3312.686" cy="3779.966" r="1.266"/>
		</g>
		<g>
			<path fill="#00FFC2" d="M-3328.76,3750.474h-0.629c-0.176,0-0.32-0.144-0.32-0.32v-0.585c0-0.176,0.144-0.32,0.32-0.32h0.629
				c0.176,0,0.32,0.144,0.32,0.32v0.585C-3328.441,3750.33-3328.584,3750.474-3328.76,3750.474z"/>
			<path fill="#00FFC2" d="M-3328.76,3755.356h-0.629c-0.176,0-0.32-0.144-0.32-0.32v-0.585c0-0.176,0.144-0.32,0.32-0.32h0.629
				c0.176,0,0.32,0.144,0.32,0.32v0.585C-3328.441,3755.213-3328.584,3755.356-3328.76,3755.356z"/>
			<path fill="#00FFC2" d="M-3328.76,3760.133h-0.629c-0.176,0-0.32-0.144-0.32-0.32v-0.584c0-0.176,0.144-0.32,0.32-0.32h0.629
				c0.176,0,0.32,0.144,0.32,0.32v0.584C-3328.441,3759.989-3328.584,3760.133-3328.76,3760.133z"/>
			<path fill="#00FFC2" d="M-3328.76,3764.521h-0.629c-0.176,0-0.32-0.144-0.32-0.32v-0.584c0-0.176,0.144-0.32,0.32-0.32h0.629
				c0.176,0,0.32,0.144,0.32,0.32v0.584C-3328.441,3764.378-3328.584,3764.521-3328.76,3764.521z"/>
			<path fill="#00FFC2" d="M-3328.76,3768.705h-0.629c-0.176,0-0.32-0.144-0.32-0.32v-0.585c0-0.176,0.144-0.32,0.32-0.32h0.629
				c0.176,0,0.32,0.144,0.32,0.32v0.585C-3328.441,3768.561-3328.584,3768.705-3328.76,3768.705z"/>
			<path fill="#00FFC2" d="M-3328.76,3773.587h-0.629c-0.176,0-0.32-0.144-0.32-0.32v-0.584c0-0.176,0.144-0.32,0.32-0.32h0.629
				c0.176,0,0.32,0.144,0.32,0.32v0.584C-3328.441,3773.444-3328.584,3773.587-3328.76,3773.587z"/>
			<path fill="#00FFC2" d="M-3328.76,3778.364h-0.629c-0.176,0-0.32-0.144-0.32-0.32v-0.584c0-0.176,0.144-0.32,0.32-0.32h0.629
				c0.176,0,0.32,0.144,0.32,0.32v0.584C-3328.441,3778.22-3328.584,3778.364-3328.76,3778.364z"/>
			<path fill="#00FFC2" d="M-3334.301,3750.474h-0.629c-0.176,0-0.32-0.144-0.32-0.32v-0.585c0-0.176,0.144-0.32,0.32-0.32h0.629
				c0.176,0,0.32,0.144,0.32,0.32v0.585C-3333.981,3750.33-3334.125,3750.474-3334.301,3750.474z"/>
			<path fill="#00FFC2" d="M-3334.301,3755.356h-0.629c-0.176,0-0.32-0.144-0.32-0.32v-0.585c0-0.176,0.144-0.32,0.32-0.32h0.629
				c0.176,0,0.32,0.144,0.32,0.32v0.585C-3333.981,3755.213-3334.125,3755.356-3334.301,3755.356z"/>
			<path fill="#00FFC2" d="M-3334.301,3760.133h-0.629c-0.176,0-0.32-0.144-0.32-0.32v-0.584c0-0.176,0.144-0.32,0.32-0.32h0.629
				c0.176,0,0.32,0.144,0.32,0.32v0.584C-3333.981,3759.989-3334.125,3760.133-3334.301,3760.133z"/>
			<path fill="#00FFC2" d="M-3334.301,3764.521h-0.629c-0.176,0-0.32-0.144-0.32-0.32v-0.584c0-0.176,0.144-0.32,0.32-0.32h0.629
				c0.176,0,0.32,0.144,0.32,0.32v0.584C-3333.981,3764.378-3334.125,3764.521-3334.301,3764.521z"/>
			<path fill="#00FFC2" d="M-3334.301,3768.705h-0.629c-0.176,0-0.32-0.144-0.32-0.32v-0.585c0-0.176,0.144-0.32,0.32-0.32h0.629
				c0.176,0,0.32,0.144,0.32,0.32v0.585C-3333.981,3768.561-3334.125,3768.705-3334.301,3768.705z"/>
			<path fill="#00FFC2" d="M-3334.301,3773.587h-0.629c-0.176,0-0.32-0.144-0.32-0.32v-0.584c0-0.176,0.144-0.32,0.32-0.32h0.629
				c0.176,0,0.32,0.144,0.32,0.32v0.584C-3333.981,3773.444-3334.125,3773.587-3334.301,3773.587z"/>
			<path fill="#00FFC2" d="M-3334.301,3778.364h-0.629c-0.176,0-0.32-0.144-0.32-0.32v-0.584c0-0.176,0.144-0.32,0.32-0.32h0.629
				c0.176,0,0.32,0.144,0.32,0.32v0.584C-3333.981,3778.22-3334.125,3778.364-3334.301,3778.364z"/>
			<path fill="#00FFC2" d="M-3334.301,3782.752h-0.629c-0.176,0-0.32-0.144-0.32-0.32v-0.584c0-0.176,0.144-0.32,0.32-0.32h0.629
				c0.176,0,0.32,0.144,0.32,0.32v0.584C-3333.981,3782.608-3334.125,3782.752-3334.301,3782.752z"/>
		</g>
	</g>
</g>
</svg>
