<svg xmlns="http://www.w3.org/2000/svg" xmlns:xlink="http://www.w3.org/1999/xlink" viewBox="0 0 360.49 186.11"><defs><style>.cls-1{fill:#3a3a99;}.cls-2{fill:url(#linear-gradient);}.cls-3{fill:url(#linear-gradient-2);}.cls-4{fill:url(#linear-gradient-3);}.cls-5{fill:url(#linear-gradient-4);}.cls-6{fill:url(#linear-gradient-5);}.cls-7{fill:url(#linear-gradient-6);}.cls-8{fill:#fec524;}.cls-9{fill:#fd9805;}.cls-10{fill:#d19d18;}.cls-11{fill:#ffe50a;}.cls-12{fill:#e4af18;}.cls-13{fill:#ef8b07;}</style><linearGradient id="linear-gradient" x1="380.92" y1="245.47" x2="-346.08" y2="-58.53" gradientUnits="userSpaceOnUse"><stop offset="0" stop-color="#38ffbf" stop-opacity="0"/><stop offset="0.09" stop-color="#38ffbf" stop-opacity="0.05"/><stop offset="0.25" stop-color="#37ffbf" stop-opacity="0.17"/><stop offset="0.46" stop-color="#35ffbe" stop-opacity="0.38"/><stop offset="0.72" stop-color="#33ffbe" stop-opacity="0.66"/><stop offset="1" stop-color="#30ffbd"/></linearGradient><linearGradient id="linear-gradient-2" x1="144.51" y1="22.47" x2="125.11" y2="14.36" xlink:href="#linear-gradient"/><linearGradient id="linear-gradient-3" x1="176.56" y1="84.68" x2="157.15" y2="76.56" xlink:href="#linear-gradient"/><linearGradient id="linear-gradient-4" x1="233.75" y1="30.32" x2="214.35" y2="22.21" xlink:href="#linear-gradient"/><linearGradient id="linear-gradient-5" x1="50.34" y1="43.8" x2="30.93" y2="35.69" xlink:href="#linear-gradient"/><linearGradient id="linear-gradient-6" x1="336.11" y1="91.93" x2="316.7" y2="83.81" xlink:href="#linear-gradient"/></defs><title>Asset 7</title><g id="Layer_2" data-name="Layer 2"><g id="Layer_1-2" data-name="Layer 1"><rect class="cls-1" x="0.25" width="360" height="186" transform="translate(360.49 186) rotate(180)"/><path class="cls-2" d="M360.49,137.12a181.59,181.59,0,0,1-59.78,22c-11.86,2.1-30.75,4.21-56.36,1-58.11-7.26-79-32.86-123.49-46.81-25.55-8-65.1-14.14-120.87.34V186H360.49Z"/><circle class="cls-3" cx="139.04" cy="20.18" r="4.81"/><circle class="cls-4" cx="171.09" cy="82.39" r="4.81"/><circle class="cls-5" cx="228.29" cy="28.03" r="4.81"/><circle class="cls-6" cx="44.87" cy="41.51" r="4.81"/><circle class="cls-7" cx="330.64" cy="89.64" r="4.81"/><g id="_Group_" data-name="&lt;Group&gt;"><path id="_Path_" data-name="&lt;Path&gt;" class="cls-8" d="M209.82,150.84h0v-9.21c0-2,6-5.38,14.36-6.65a43.7,43.7,0,0,0-13-16.31l-16.7-11.35a23.91,23.91,0,0,0-2.78-1.83,58.69,58.69,0,0,1-2.6-12L187.89,82.4a13,13,0,0,1,0-2.95c.15-1.24.31-3,.38-3.22.15-.42.34-.89.54-1.36a31.07,31.07,0,0,1,3.28-5.29,13.43,13.43,0,0,1,1.31-1.35,4.41,4.41,0,0,0-1.34-7.63,22.35,22.35,0,0,0-5.79-1.15c-.19,0-.38,0-.58,0-.46,0-.92,0-1.38,0a13.64,13.64,0,0,0-7.87,3,4.47,4.47,0,0,1-5.65,0,14,14,0,0,0-9.82-3,22.33,22.33,0,0,0-5.79,1.15,4.41,4.41,0,0,0-1.34,7.63,12.13,12.13,0,0,1,.88.86l.28.28c.39.43.79.91,1.2,1.43A21.12,21.12,0,0,1,159,76.22c.15.45.31,2.91.55,4.26a14.64,14.64,0,0,1,.26,2.59v8a58.67,58.67,0,0,1-1.7,13.91,17.65,17.65,0,0,0-3.13,1.91l-16.24,11.83c-16,12.55-21.35,34.7-12.16,52.82,3.83,7.56,9.14,14,15.38,14.47.58,0,1.15.06,1.74.06h45.37a15.13,15.13,0,0,1-1.41-3.28c.24,0,.48,0,.72,0,15-1,24.73-10.36,21.43-23.65v-8.32Z"/><path id="_Path_2" data-name="&lt;Path&gt;" class="cls-9" d="M216.92,148.17c-11.45,0-20.73-2-20.73-4.39V153c0,2.42,9.29,4.38,20.73,4.38s20.72-2,20.73-4.38v-9.22c0,2.42-9.28,4.39-20.73,4.39"/><path id="_Path_3" data-name="&lt;Path&gt;" class="cls-10" d="M196.19,143.78Z"/><path id="_Path_4" data-name="&lt;Path&gt;" class="cls-10" d="M237.65,143.78Z"/><path id="_Path_5" data-name="&lt;Path&gt;" class="cls-9" d="M237.65,134.57c0,2.42-9.28,4.39-20.73,4.39s-20.73-2-20.73-4.39,9.28-7.13,20.73-7.13,20.73,4.71,20.73,7.13"/><path id="_Path_6" data-name="&lt;Path&gt;" class="cls-11" d="M216.92,139c-11.45,0-20.73-2-20.73-4.39v9.22c0,2.42,9.29,4.38,20.73,4.38s20.72-2,20.73-4.38v-9.22c0,2.42-9.28,4.39-20.73,4.39"/><path id="_Path_7" data-name="&lt;Path&gt;" class="cls-12" d="M209.82,141.62Z"/><path id="_Path_8" data-name="&lt;Path&gt;" class="cls-12" d="M251.29,141.62Z"/><path id="_Path_9" data-name="&lt;Path&gt;" class="cls-9" d="M189.09,98.58H159.14a2.3,2.3,0,1,1,0-4.61h29.95a2.3,2.3,0,1,1,0,4.61"/><path id="_Path_10" data-name="&lt;Path&gt;" class="cls-9" d="M189.09,91.67H159.14a2.3,2.3,0,1,1,0-4.61h29.95a2.3,2.3,0,1,1,0,4.61"/><path id="_Path_11" data-name="&lt;Path&gt;" class="cls-9" d="M189.09,84.76H159.14a2.3,2.3,0,1,1,0-4.61h29.95a2.3,2.3,0,1,1,0,4.61"/><path id="_Path_12" data-name="&lt;Path&gt;" class="cls-11" d="M216.92,175.81a81.52,81.52,0,0,1-12.36-.87c-1.06,3.17-12.84,9.22-15.47,11.17,10,0,20.07-.11,27.83-.11,11.45,0,20.72-2,20.73-4.38V171.42c0,2.42-9.28,4.39-20.73,4.39"/><path id="_Path_13" data-name="&lt;Path&gt;" class="cls-11" d="M216.92,157.38c-11.45,0-20.73-2-20.73-4.39v2.29a16.14,16.14,0,0,1,8.68,10.49,82.24,82.24,0,0,0,12.05.82c11.45,0,20.72-2,20.73-4.38V153c0,2.42-9.28,4.39-20.73,4.39"/><path id="_Path_14" data-name="&lt;Path&gt;" class="cls-9" d="M216.92,166.6a82.24,82.24,0,0,1-12.05-.82,15.82,15.82,0,0,1-.3,9.17,81.52,81.52,0,0,0,12.36.87c11.45,0,20.72-2,20.73-4.38v-9.22c0,2.42-9.28,4.39-20.73,4.39"/><path id="_Path_15" data-name="&lt;Path&gt;" class="cls-13" d="M206,169.6a16.51,16.51,0,1,1-16.51-16.51A16.51,16.51,0,0,1,206,169.6"/><path id="_Path_16" data-name="&lt;Path&gt;" class="cls-9" d="M199.55,169.6a10.07,10.07,0,1,1-10.07-10.07,10.07,10.07,0,0,1,10.07,10.07"/><path id="_Path_17" data-name="&lt;Path&gt;" class="cls-9" d="M132.2,98.58a10.07,10.07,0,1,1-10.07-10.07A10.07,10.07,0,0,1,132.2,98.58"/><path id="_Path_18" data-name="&lt;Path&gt;" class="cls-9" d="M238.52,64.84a5.43,5.43,0,1,1-5.43-5.43,5.43,5.43,0,0,1,5.43,5.43"/><path id="_Path_19" data-name="&lt;Path&gt;" class="cls-9" d="M158.81,32.84a5.43,5.43,0,1,1-5.43-5.43,5.43,5.43,0,0,1,5.43,5.43"/><path id="_Path_20" data-name="&lt;Path&gt;" class="cls-11" d="M138.41,153.86a2.3,2.3,0,0,1-2.3-2.3c0-15.82,17.48-34.55,32.25-34.55a2.3,2.3,0,1,1,0,4.61c-12.14,0-27.64,16.79-27.64,29.95a2.31,2.31,0,0,1-2.3,2.3"/></g></g></g></svg>