<svg width="113" height="51" viewBox="0 0 113 51" xmlns="http://www.w3.org/2000/svg"><path d="M66.578 22.265c.575 1.321.862 2.71.862 4.168 0 1.458-.287 2.858-.862 4.201-.552 1.273-1.334 2.413-2.346 3.414l-.137.137c-.991.912-2.093 1.63-3.313 2.152-1.08.457-2.206.731-3.378.822-.3.021-.599.032-.897.032-.3 0-.585-.011-.862-.032-1.172-.091-2.288-.365-3.346-.822-1.241-.522-2.344-1.24-3.311-2.152l-.137-.137c-1.013-1.001-1.795-2.141-2.344-3.414-.576-1.344-.862-2.743-.862-4.201 0-1.435.286-2.824.862-4.168.55-1.275 1.332-2.413 2.344-3.416.988-1.001 2.139-1.774 3.448-2.322 1.335-.569 2.736-.854 4.208-.854 1.493 0 2.919.285 4.276.854 1.289.548 2.438 1.321 3.449 2.322 1.013 1.003 1.795 2.141 2.346 3.416zm-1.656 4.168c0-1.117-.231-2.187-.69-3.211-.415-1.003-1.011-1.89-1.793-2.664-.757-.752-1.656-1.344-2.69-1.776-1.034-.434-2.116-.65-3.242-.65-1.149 0-2.229.216-3.242.65-1.013.432-1.896 1.024-2.655 1.776-.782.775-1.38 1.662-1.795 2.664-.413 1.024-.619 2.094-.619 3.211 0 1.138.206 2.22.619 3.244.415.98 1.013 1.846 1.795 2.596.759.775 1.642 1.366 2.655 1.776l.344.137c.92.344 1.887.515 2.898.515 1.011 0 1.977-.17 2.896-.515l.346-.137c1.034-.409 1.933-1.001 2.69-1.776.782-.75 1.378-1.616 1.793-2.596.459-1.024.69-2.106.69-3.244zm-46.17-2.345c-.27-.845-.646-1.63-1.133-2.352-.488-.701-1.061-1.303-1.718-1.811-.683-.53-1.436-.941-2.266-1.231-.828-.265-1.694-.397-2.595-.397-.975 0-1.914.132-2.814.397-.828.29-1.596.689-2.304 1.196-.706.529-1.303 1.145-1.789 1.846-.488.722-.853 1.507-1.096 2.352h15.716zm2.227-1.7c.585 1.398.878 2.847.878 4.342h-19.151c.023 1.015.255 1.992.695 2.933.413.917.986 1.748 1.717 2.498.828.773 1.754 1.363 2.777 1.774l.184.072c.949.364 1.912.543 2.885.543.928 0 1.866-.179 2.816-.543l.328-.144c1.073-.436 2.071-1.099 2.997-1.99l1.827 1.918-.22.216c-1.071 1.013-2.265 1.797-3.581 2.354-1.071.434-2.157.699-3.254.796-.316.025-.621.035-.913.035-.316 0-.621-.011-.913-.035-1.121-.097-2.18-.337-3.18-.724-1.364-.532-2.582-1.316-3.653-2.354l-.074-.072c-.974-1.013-1.717-2.134-2.229-3.365-.608-1.377-.915-2.8-.915-4.272 0-1.474.282-2.872.842-4.2.585-1.28 1.376-2.413 2.376-3.404 1.022-.989 2.192-1.748 3.508-2.28 1.364-.555 2.802-.833 4.313-.833 1.461 0 2.862.29 4.203.869 1.291.555 2.437 1.338 3.435 2.352.998 1.038 1.766 2.208 2.302 3.513zm83.979-15.82h4.714v26.207c0 .364.195.543.585.543h1.389c.342 0 .646.144.913.437.293.286.44.601.44.94 0 .843-.452 1.266-1.353 1.266h-6.688c-.83 0-1.243-.423-1.243-1.266 0-.339.133-.653.403-.94.245-.293.525-.437.841-.437h1.316c.488 0 .729-.179.729-.543v-22.984c0-.364-.241-.544-.729-.544h-1.316c-.316 0-.596-.146-.841-.434-.27-.265-.403-.58-.403-.941v-.072c.025-.314.158-.602.403-.869.245-.241.525-.362.841-.362zm-33.371 0h2.669v9.049h3.91c.365 0 .683.121.949.364.27.288.403.615.403.977 0 .337-.133.639-.403.905-.266.242-.583.364-.949.364h-3.18c-.488 0-.731.216-.731.65v9.593c0 .652.135 1.279.401 1.883.293.602.683 1.122 1.17 1.556.488.458 1.048.797 1.679 1.013.635.265 1.305.397 2.011.397v2.643c-1.046 0-2.059-.205-3.033-.616-.951-.36-1.791-.89-2.522-1.59-.755-.703-1.328-1.498-1.718-2.392-.438-.94-.658-1.906-.658-2.895v-9.593c0-.434-.206-.65-.621-.65h-1.243c-.415 0-.755-.121-1.023-.364-.27-.239-.403-.543-.403-.905 0-.892.477-1.34 1.426-1.34h1.864v-9.049zm20.031 11.729c-.977 0-1.915.132-2.816.397-.828.29-1.596.689-2.3 1.196-.708.529-1.303 1.145-1.793 1.846-.488.722-.851 1.507-1.098 2.352h15.716c-.266-.845-.644-1.63-1.131-2.352-.488-.701-1.059-1.303-1.717-1.811-.683-.53-1.438-.941-2.266-1.231-.83-.265-1.694-.397-2.595-.397zm-4.315-1.811c1.366-.555 2.802-.833 4.315-.833 1.461 0 2.861.29 4.201.869 1.291.555 2.438 1.338 3.435 2.352 1 1.038 1.766 2.208 2.304 3.513.583 1.398.878 2.847.878 4.342h-19.153c.025 1.015.255 1.992.697 2.933.413.917.984 1.748 1.715 2.498.828.773 1.756 1.363 2.779 1.774.998.411 2.023.615 3.07.615 1.048 0 2.094-.23 3.143-.687 1.073-.436 2.071-1.099 2.999-1.99l1.827 1.918c-1.121 1.11-2.389 1.965-3.8 2.57-1.342.553-2.729.831-4.168.831-1.438 0-2.802-.251-4.093-.759-1.366-.532-2.584-1.316-3.657-2.354-.997-1.038-1.765-2.185-2.302-3.437-.608-1.377-.913-2.8-.913-4.272 0-1.474.28-2.872.839-4.2.587-1.28 1.38-2.413 2.376-3.404 1.023-.989 2.194-1.748 3.51-2.28zm-42.28.234l.034.033c.293.3.41.729.355 1.286-.124.713-.58 1.068-1.366 1.068h-.743c-.493.023-.92.118-1.28.285-.303.144-.557.339-.759.585l-5.59 8.884c-.207.367-.199.75.027 1.15l5.361 8.675c.511.792 1.337 1.201 2.479 1.226h.607c.371 0 .713.135 1.029.4l.032.033c.293.313.44.652.44 1.02 0 .423-.158.773-.472 1.052h.032c-.337.267-.69.4-1.061.4h-3.769l-6.365-10.154c-.2-.278-.422-.278-.667 0l-5.647 9.16c-1.851 3.058-3.701 6.117-5.554 9.175h-4.384c-.899 0-1.35-.485-1.35-1.454 0-.399.145-.75.438-1.05.238-.269.541-.4.912-.4h.844l.504-.018c.704-.109 1.256-.393 1.653-.852l10.841-17.214c.227-.404.234-.789.016-1.15l-.016-.035-5.547-8.849c-.206-.248-.459-.441-.759-.585-.36-.17-.786-.265-1.28-.285h-.741c-.787 0-1.245-.358-1.374-1.077-.057-.548.066-.977.362-1.286l.034-.025v-.009c.083-.079.179-.148.287-.209.296-.151.681-.235 1.155-.249h3.398l2.462 3.94c1.061 1.612 2.215 3.462 3.464 5.545.41.574.798.58 1.163.016l3.573-5.71h.009l2.378-3.79h3.387c.484.011.871.093 1.163.249.112.056.209.128.287.218zm-.104-4.179l-1.828 1.556c-2.777-2.123-5.945-3.221-9.502-3.293-3.267.025-6.322 1.219-9.174 3.583l-1.756-1.737c3.705-2.849 7.518-4.15 11.442-3.91 4.019-.121 7.626 1.147 10.818 3.801zm5.957-6.189l-1.571 1.447c-4.435-3.62-9.577-5.501-15.424-5.647-5.336-.097-10.563 1.932-15.681 6.082l-1.791-1.702.732-.58c5.627-4.344 11.598-6.311 17.91-5.9 6.36.411 11.634 2.51 15.824 6.298zm-2.997 3.04l-1.681 1.519c-3.167-2.726-7.213-4.173-12.134-4.344-4.483-.144-8.722 1.424-12.719 4.707l-1.754-1.593c4.263-3.644 9.075-5.454 14.436-5.429 5.483.337 10.1 2.05 13.852 5.139z" fill="#3A3A62"/></svg>