<?xml version="1.0" encoding="UTF-8"?>
<svg width="55px" height="49px" viewBox="0 0 55 49" version="1.1" xmlns="http://www.w3.org/2000/svg" xmlns:xlink="http://www.w3.org/1999/xlink">
    <defs></defs>
    <g id="Page-1" stroke="none" stroke-width="1" fill="none" fill-rule="evenodd">
        <g id="Sponsor-Page" transform="translate(-832.000000, -794.000000)" fill="#3A3A62">
            <path d="M881.414099,806.042127 L881.414099,807.54823 C881.414099,813.105233 880.214577,818.47125 877.815533,823.642931 C875.41649,828.814612 871.710286,833.195547 866.69734,836.784061 C861.684395,840.37425 855.883635,842.168506 849.29506,842.168506 C842.921344,842.168506 837.156603,840.354146 832,836.7271 C832.572956,836.804164 833.468409,836.842697 834.685521,836.842697 C840.056983,836.842697 844.747432,835.1054 848.758123,831.632483 C846.323061,831.632483 844.138875,830.840062 842.205149,829.258569 C840.271842,827.675402 838.911071,825.649952 838.123257,823.17887 C838.624593,823.332999 839.340788,823.410063 840.271842,823.410063 C841.345715,823.410063 842.348388,823.294466 843.279441,823.063274 C840.70114,822.445084 838.552974,821.017721 836.834106,818.779507 C835.115239,816.541293 834.256223,813.993147 834.256223,811.136743 L834.256223,810.905551 C835.903053,811.909061 837.585901,812.409979 839.304769,812.409979 C835.939072,810.094701 834.256223,806.73738 834.256223,802.336341 C834.256223,800.32932 834.79316,798.283767 835.867452,796.199682 C841.811451,804.227766 849.545519,808.474676 859.070492,808.937062 C858.855634,808.010615 858.747995,807.084169 858.747995,806.157723 C858.747995,802.838934 859.840297,799.982531 862.024483,797.590189 C864.208668,795.196171 866.876598,794 870.027437,794 C873.321515,794 876.078656,795.273236 878.29886,797.821381 C881.09202,797.203192 883.491064,796.238214 885.495991,794.926446 C884.636976,797.782849 882.989727,800.021063 880.554665,801.642763 C883.061347,801.255766 885.209513,800.60072 887,799.674274 C885.495991,802.143682 883.634303,804.266299 881.414099,806.042127 Z" id="Twitter_Logo"></path>
        </g>
    </g>
</svg>