<svg width="55" height="49" viewBox="0 0 55 49" xmlns="http://www.w3.org/2000/svg"><path d="M49.414 12.042v1.506c0 5.557-1.2 10.923-3.599 16.095-2.399 5.172-6.105 9.553-11.118 13.141-5.013 3.59-10.814 5.384-17.402 5.384-6.374 0-12.138-1.814-17.295-5.441.573.077 1.468.116 2.686.116 5.371 0 10.062-1.737 14.073-5.21-2.435 0-4.619-.792-6.553-2.374-1.933-1.583-3.294-3.609-4.082-6.08.501.154 1.218.231 2.149.231 1.074 0 2.077-.116 3.008-.347-2.578-.618-4.726-2.046-6.445-4.284-1.719-2.238-2.578-4.786-2.578-7.643v-.231c1.647 1.004 3.33 1.504 5.049 1.504-3.366-2.315-5.049-5.673-5.049-10.074 0-2.007.537-4.053 1.611-6.137 5.944 8.028 13.678 12.275 23.203 12.737-.215-.926-.322-1.853-.322-2.779 0-3.319 1.092-6.175 3.276-8.568 2.184-2.394 4.852-3.59 8.003-3.59 3.294 0 6.051 1.273 8.271 3.821 2.793-.618 5.192-1.583 7.197-2.895-.859 2.856-2.506 5.095-4.941 6.716 2.507-.387 4.655-1.042 6.445-1.968-1.504 2.469-3.366 4.592-5.586 6.368z" fill="#3A3A62"/></svg>