<svg width="141" height="59" viewBox="0 0 141 59" xmlns="http://www.w3.org/2000/svg"><g fill-rule="nonzero" fill="#3A3A62"><path d="M45.036 10.785h-42.033v-7.785h42.033v7.785zm3.003-10.785h-48.039v13.783h48.039v-13.783z"/><path d="M3.003 36.562h-3.003v-13.783h3.003v5.447h5.365v-5.447h3.003v13.783h-3.003v-5.712h-5.365v5.712"/><path d="M15.918 30.52h3.577c-.067-1.014-.485-1.72-1.656-1.72-.883 0-1.656.376-1.921 1.72zm2.274 6.263c-3.047 0-5.121-1.919-5.121-5.071 0-3.067 2.031-5.183 4.725-5.183 2.936 0 4.393 1.963 4.393 4.896v1.103h-6.27c.354 1.52 1.546 1.917 2.738 1.917 1.037 0 1.787-.22 2.714-.794h.111v2.272c-.795.574-1.922.861-3.29.861z"/><path d="M30.025 30.785l-1.546 5.777h-2.627l-3.003-9.704v-.11h2.87l1.633 5.8 1.546-5.8h2.34l1.568 5.8 1.656-5.8h2.76v.11l-3.003 9.704h-2.628l-1.567-5.777"/><path d="M42.101 36.783c-2.384 0-3.356-.948-3.356-3.175v-10.827h2.914v10.629c0 .684.265.926.838.926.199 0 .486-.066.662-.132h.045v2.404c-.243.087-.662.176-1.104.176"/><path d="M46.87 30.52h3.577c-.067-1.014-.485-1.72-1.656-1.72-.882 0-1.656.376-1.921 1.72zm2.274 6.263c-3.047 0-5.121-1.919-5.121-5.071 0-3.067 2.031-5.183 4.725-5.183 2.936 0 4.393 1.963 4.393 4.896v1.103h-6.27c.353 1.52 1.546 1.917 2.737 1.917 1.038 0 1.788-.22 2.716-.794h.11v2.272c-.795.574-1.921.861-3.29.861z"/><path d="M65.106 26.749h2.163v2.337h-2.163v3.992c0 .861.331 1.258 1.214 1.258.243 0 .552-.023.883-.133h.066v2.293c-.375.133-.949.286-1.787.286-2.363 0-3.29-1.08-3.29-3.572v-4.124h-3.731v3.992c0 .861.331 1.258 1.214 1.258.244 0 .553-.023.884-.133h.066v2.293c-.375.133-.95.286-1.787.286-2.363 0-3.29-1.08-3.29-3.572v-4.124h-1.502v-2.337h1.502v-2.69h2.914v2.69h3.731v-2.69h2.914v2.69"/><path d="M77.088 29.55c1.525 0 2.252-.86 2.252-2.095 0-1.28-.727-2.139-2.252-2.139h-1.899v4.234h1.899zm5.299-2.095c0 3-2.009 4.631-5.057 4.631h-2.141v4.477h-3.001v-13.783h5.142c3.048 0 5.057 1.632 5.057 4.675z"/><path d="M88.789 33.475v-.838c-.442-.242-1.015-.33-1.611-.33-.949 0-1.523.352-1.523 1.146 0 .817.574 1.17 1.434 1.17.817 0 1.435-.419 1.7-1.148zm.089 2.118c-.641.772-1.588 1.147-2.606 1.147-1.92 0-3.488-1.168-3.488-3.242 0-1.918 1.568-3.197 3.819-3.197.706 0 1.436.11 2.186.33v-.175c0-1.059-.596-1.521-2.162-1.521-.995 0-1.943.285-2.761.749h-.11v-2.338c.75-.44 2.076-.816 3.377-.816 2.959 0 4.57 1.411 4.57 3.881v6.152h-2.826v-.97z"/><path d="M93.182 31.667c0-3.154 2.231-5.138 5.145-5.138 1.037 0 2.008.221 2.737.749v2.492h-.111c-.641-.485-1.39-.772-2.251-.772-1.457 0-2.561.994-2.561 2.669s1.104 2.646 2.561 2.646c.86 0 1.61-.287 2.251-.773h.111v2.492c-.729.53-1.7.75-2.737.75-2.914 0-5.145-1.962-5.145-5.116"/><path d="M105.81 32.109v4.454h-2.913v-13.783h2.913v7.85l2.937-3.881h3.311v.11l-3.532 4.455 3.532 5.138v.11h-3.334l-2.914-4.454"/><path d="M118.593 33.475v-.838c-.441-.242-1.016-.33-1.611-.33-.949 0-1.523.352-1.523 1.146 0 .817.574 1.17 1.433 1.17.819 0 1.436-.419 1.701-1.148zm.089 2.118c-.641.772-1.59 1.147-2.605 1.147-1.922 0-3.488-1.168-3.488-3.242 0-1.918 1.567-3.197 3.82-3.197.706 0 1.433.11 2.184.33v-.175c0-1.059-.596-1.521-2.163-1.521-.993 0-1.944.285-2.76.749h-.11v-2.338c.751-.44 2.076-.816 3.378-.816 2.96 0 4.571 1.411 4.571 3.881v6.152h-2.827v-.97z"/><path d="M126.409 28.337c.529-1.081 1.303-1.698 2.385-1.698.397 0 .794.088.947.177v2.778h-.109c-.331-.133-.728-.221-1.28-.221-.905 0-1.611.53-1.855 1.543v5.646h-2.913v-9.814h2.826v1.588"/><path d="M137.469 33.233v-3.154c-.485-.706-1.125-1.014-1.855-1.014-1.279 0-2.141.927-2.141 2.603 0 1.675.861 2.58 2.141 2.58.73 0 1.37-.309 1.855-1.015zm.088 2.316c-.618.794-1.589 1.234-2.913 1.234-2.517 0-4.129-2.293-4.129-5.116 0-2.823 1.611-5.138 4.129-5.138 1.28 0 2.207.397 2.826 1.125v-4.873h2.914v13.782h-2.827v-1.014z"/><path d="M0 41.064h8.522v1.675h-6.601v4.211h5.983v1.633h-5.983v4.587h6.601v1.675h-8.522v-13.782"/><path d="M15.564 44.944c2.185 0 3.4 1.434 3.4 3.792v6.109h-1.832v-6.065c0-1.257-.64-2.161-2.031-2.161-1.148 0-2.12.728-2.451 1.764v6.462h-1.832v-9.703h1.832v1.411c.574-.904 1.546-1.61 2.914-1.61"/><path d="M23.888 45.143h2.495v1.566h-2.495v5.226c0 1.102.574 1.478 1.611 1.478.286 0 .596-.044.817-.132h.067v1.565c-.265.11-.641.199-1.148.199-2.275 0-3.179-1.037-3.179-2.933v-5.403h-1.678v-1.566h1.678v-2.579h1.832v2.579"/><path d="M29.451 49.045h4.835c-.066-1.433-.773-2.535-2.274-2.535-1.391 0-2.297 1.036-2.561 2.535zm2.892 5.999c-2.849 0-4.791-1.897-4.791-4.94 0-3.044 1.81-5.16 4.438-5.16 2.672 0 4.062 1.919 4.062 4.763v.839h-6.668c.199 1.963 1.458 2.911 3.202 2.911 1.082 0 1.854-.242 2.715-.882h.067v1.611c-.795.617-1.833.86-3.025.86z"/><path d="M40.048 46.643c.42-1.036 1.348-1.654 2.406-1.654.421 0 .796.066.95.154v1.808h-.066c-.266-.131-.707-.198-1.149-.198-.993 0-1.832.661-2.141 1.764v6.329h-1.832v-9.703h1.832v1.5"/><path d="M49.32 53.39c1.81 0 2.87-1.433 2.87-3.396 0-1.94-1.06-3.395-2.87-3.395-.994 0-1.921.595-2.406 1.542v3.728c.485.947 1.412 1.52 2.406 1.52zm.309-8.446c2.891 0 4.437 2.36 4.437 5.049 0 2.692-1.546 5.051-4.437 5.051-1.193 0-2.208-.617-2.715-1.28v4.809h-1.833v-13.43h1.833v1.102c.507-.684 1.523-1.301 2.715-1.301z"/><path d="M58.063 46.643c.419-1.036 1.347-1.654 2.406-1.654.42 0 .795.066.949.154v1.808h-.066c-.265-.131-.706-.198-1.148-.198-.994 0-1.832.661-2.142 1.764v6.329h-1.832v-9.703h1.832v1.5"/><path d="M64.067 41.218c.641 0 1.17.507 1.17 1.147s-.529 1.147-1.17 1.147c-.618 0-1.171-.507-1.171-1.147s.553-1.147 1.171-1.147"/><path d="M63.162 54.846h1.833v-9.703h-1.833v9.703z"/><path d="M71.53 49.178c1.391.44 2.935 1.014 2.935 2.866 0 1.985-1.633 3-3.73 3-1.281 0-2.561-.309-3.29-.882v-1.742h.089c.818.749 2.031 1.08 3.179 1.08 1.037 0 1.965-.397 1.965-1.235 0-.86-.772-1.058-2.297-1.565-1.369-.441-2.891-.949-2.891-2.778 0-1.875 1.545-2.977 3.51-2.977 1.148 0 2.163.242 2.98.794v1.765h-.066c-.794-.64-1.723-1.016-2.87-1.016-1.148 0-1.788.508-1.788 1.191 0 .772.706.992 2.275 1.5"/><path d="M77.954 49.045h4.834c-.066-1.433-.772-2.535-2.274-2.535-1.391 0-2.296 1.036-2.56 2.535zm2.891 5.999c-2.848 0-4.79-1.897-4.79-4.94 0-3.044 1.81-5.16 4.437-5.16 2.673 0 4.062 1.919 4.062 4.763v.839h-6.667c.199 1.963 1.457 2.911 3.201 2.911 1.083 0 1.855-.242 2.715-.882h.067v1.611c-.794.617-1.832.86-3.025.86z"/></g></svg>