<svg width="146" height="33" viewBox="0 0 146 33" xmlns="http://www.w3.org/2000/svg"><g fill-rule="nonzero" fill="#3A3A62"><path d="M10.121 14.229l-5.427 12.129h3.273l6.805-15.171zM33.205 26.357h-5.513l-1.723-7.757h-2.196l-3.488 7.757h-4.781l8.829-19.714h8.915c2.627 0 4.393.3 5.297.943.904.643 1.034 1.714.345 3.214l-1.55 3.471c-.517 1.2-1.378 2.1-2.541 2.786-1.163.643-2.412 1.071-3.79 1.2l2.196 8.1zm-.043-13.029l.646-1.414c.345-.729.345-1.243 0-1.5-.301-.257-.991-.429-2.067-.429h-4.091l-2.455 5.486h4.091c1.12 0 1.938-.129 2.498-.429.517-.3.991-.9 1.378-1.714zM47.935 26.357h-4.35l.603-1.329c-.603.6-1.249 1.029-1.981 1.243-.732.257-1.895.386-3.532.386-1.981 0-3.187-.3-3.575-.9-.388-.6-.129-1.886.732-3.814.775-1.757 1.68-2.957 2.627-3.643.991-.686 2.326-1.029 4.048-1.029h4.996l.431-.986c.388-.9.474-1.5.172-1.8-.301-.3-1.12-.429-2.455-.429-1.249 0-3.058.129-5.34.343l1.249-2.786c1.766-.214 3.704-.3 5.771-.3 2.713 0 4.479.343 5.254.986.775.643.732 1.971-.172 3.9l-4.479 10.157zm-2.799-3.771l1.292-2.871h-3.058c-.991 0-1.637.129-1.981.343-.345.214-.732.814-1.163 1.8-.431.943-.56 1.543-.388 1.714.172.214.775.3 1.809.3h1.12c.258 0 .517-.043.818-.086.301-.043.517-.086.689-.214.172-.086.301-.214.474-.386.129-.129.301-.343.388-.6zM62.879 26.357h-13.308l1.077-2.357 11.671-9.471h-7.149l1.292-2.871h12.834l-1.077 2.357-11.671 9.471h7.623zM83.465 16.971l-1.938 4.329c-.431.943-.947 1.757-1.55 2.443-.603.686-1.206 1.2-1.852 1.586-.603.386-1.335.643-2.153.857-.818.214-1.55.343-2.153.386-.603.043-1.378.086-2.24.086-.861 0-1.594-.043-2.153-.086-.56-.043-1.163-.171-1.809-.386-.646-.214-1.077-.471-1.378-.857-.301-.386-.431-.9-.431-1.586s.215-1.5.646-2.443l1.938-4.329c.474-1.029.991-1.886 1.637-2.614.646-.729 1.292-1.286 1.895-1.671.646-.386 1.378-.686 2.196-.9.818-.214 1.55-.343 2.153-.386.603-.043 1.335-.086 2.153-.086.818 0 1.55.043 2.11.086.56.043 1.163.171 1.809.386.646.214 1.12.514 1.378.9.301.386.431.943.431 1.671-.043.729-.258 1.586-.689 2.614zm-6.676 4.843l2.498-5.571c.345-.771.388-1.371.129-1.671-.258-.343-.991-.514-2.24-.514-1.206 0-2.11.171-2.67.514-.56.343-1.034.9-1.378 1.671l-2.498 5.571c-.345.771-.388 1.329-.129 1.629.258.3 1.034.471 2.24.471 1.249 0 2.11-.171 2.67-.471.603-.3 1.034-.857 1.378-1.629zM95.955 15h-1.507c-1.206 0-2.24.171-3.015.557-.775.386-1.378 1.029-1.809 1.929l-3.962 8.829h-4.479l6.589-14.7h4.264l-1.163 2.571c.345-.729 1.077-1.414 2.153-1.971 1.077-.6 2.067-.9 2.972-.9h1.594l-1.637 3.686zM111.847 16.286l-2.153 4.843c-.991 2.186-2.11 3.643-3.445 4.414-1.335.729-3.058 1.114-5.254 1.114-1.378 0-2.369-.129-2.972-.343-.603-.214-.818-.729-.689-1.457l-3.488 7.8h-4.479l9.432-21.043h4.221l-.646 1.457c.56-.643 1.292-1.114 2.196-1.371.904-.257 2.11-.386 3.618-.386 1.249 0 2.24.086 2.972.3.689.214 1.163.514 1.378.986.215.471.258.943.129 1.5-.172.6-.431 1.329-.818 2.186zm-6.891 5.443l2.455-5.443c.431-.943.517-1.543.258-1.8-.258-.257-1.077-.386-2.455-.386-1.249 0-2.153.171-2.67.471-.517.343-.947.9-1.335 1.714l-2.455 5.443c-.388.857-.474 1.457-.215 1.757.215.3.991.429 2.326.429 1.292 0 2.24-.129 2.756-.429.474-.3.947-.9 1.335-1.757zM122.873 26.357h-4.35l.603-1.329c-.603.6-1.249 1.029-1.981 1.243-.732.257-1.895.386-3.532.386-1.981 0-3.187-.3-3.575-.9-.388-.6-.129-1.886.732-3.814.775-1.757 1.68-2.957 2.627-3.643.991-.686 2.326-1.029 4.048-1.029h4.996l.431-.986c.388-.9.474-1.5.172-1.8-.301-.3-1.12-.429-2.455-.429-1.249 0-3.058.129-5.34.343l1.249-2.786c1.766-.214 3.704-.3 5.771-.3 2.713 0 4.479.343 5.254.986.775.643.732 1.971-.172 3.9l-4.479 10.157zm-2.799-3.771l1.292-2.871h-3.058c-.991 0-1.637.129-1.981.343-.345.214-.732.814-1.163 1.8-.431.943-.56 1.543-.388 1.714.172.214.775.3 1.809.3h1.12c.258 0 .517-.043.818-.086.301-.043.517-.086.689-.214.172-.086.301-.214.474-.386.172-.129.301-.343.388-.6zM145.957 11.657l-17.529 21.043h-4.522l5.556-6.429.646-14.614h4.867l-1.335 10.414 7.666-10.414zM12.49 7.929l-2.369 5.271 6.632-4.329-7.838 17.486h3.575l11.628-26.057zM9.13 14.357l-5.039 3.3-3.876 8.7h3.532z"/></g></svg>