<svg xmlns="http://www.w3.org/2000/svg" xmlns:xlink="http://www.w3.org/1999/xlink" viewBox="0 0 360.49 186"><defs><style>.cls-1{fill:#3a3a99;}.cls-2{fill:url(#linear-gradient);}.cls-3{fill:url(#linear-gradient-2);}.cls-4{fill:url(#linear-gradient-3);}.cls-5{fill:url(#linear-gradient-4);}.cls-6{fill:url(#linear-gradient-5);}.cls-7{fill:url(#linear-gradient-6);}.cls-8{fill:#fd9805;}.cls-9{fill:#ffe50a;}.cls-10{fill:#fec524;}.cls-11{fill:#fff;}</style><linearGradient id="linear-gradient" x1="380.92" y1="245.47" x2="-346.08" y2="-58.53" gradientUnits="userSpaceOnUse"><stop offset="0" stop-color="#38ffbf" stop-opacity="0"/><stop offset="0.09" stop-color="#38ffbf" stop-opacity="0.05"/><stop offset="0.25" stop-color="#37ffbf" stop-opacity="0.17"/><stop offset="0.46" stop-color="#35ffbe" stop-opacity="0.38"/><stop offset="0.72" stop-color="#33ffbe" stop-opacity="0.66"/><stop offset="1" stop-color="#30ffbd"/></linearGradient><linearGradient id="linear-gradient-2" x1="35.32" y1="32.61" x2="15.92" y2="24.5" xlink:href="#linear-gradient"/><linearGradient id="linear-gradient-3" x1="144.51" y1="22.47" x2="125.11" y2="14.36" xlink:href="#linear-gradient"/><linearGradient id="linear-gradient-4" x1="176.56" y1="84.68" x2="157.15" y2="76.56" xlink:href="#linear-gradient"/><linearGradient id="linear-gradient-5" x1="233.75" y1="30.32" x2="214.35" y2="22.21" xlink:href="#linear-gradient"/><linearGradient id="linear-gradient-6" x1="336.11" y1="91.93" x2="316.7" y2="83.81" xlink:href="#linear-gradient"/></defs><title>Asset 5</title><g id="Layer_2" data-name="Layer 2"><g id="Layer_1-2" data-name="Layer 1"><rect class="cls-1" x="0.25" width="360" height="186" transform="translate(360.49 186) rotate(180)"/><path class="cls-2" d="M360.49,137.12a181.59,181.59,0,0,1-59.78,22c-11.86,2.1-30.75,4.21-56.36,1-58.11-7.26-79-32.86-123.49-46.81-25.55-8-65.1-14.14-120.87.34V186H360.49Z"/><circle class="cls-3" cx="29.85" cy="30.33" r="4.81"/><circle class="cls-4" cx="139.04" cy="20.18" r="4.81"/><circle class="cls-5" cx="171.09" cy="82.39" r="4.81"/><circle class="cls-6" cx="228.29" cy="28.03" r="4.81"/><circle class="cls-7" cx="330.64" cy="89.64" r="4.81"/><path class="cls-8" d="M117.12,63H228.57v96H117.22Z"/><path class="cls-9" d="M190.33,73.82l1.36,6.7a1,1,0,0,0,.59.73l6.29,2.68a1,1,0,0,1,.1,1.8l-6,3.36a1,1,0,0,0-.51.79l-.61,6.81a1,1,0,0,1-1.68.65l-5-4.63a1,1,0,0,0-.91-.24L177.3,94a1,1,0,0,1-1.14-1.4L179,86.38a1,1,0,0,0-.05-.93l-3.51-5.87a1,1,0,0,1,1-1.52l6.79.78a1,1,0,0,0,.87-.34l4.5-5.15A1,1,0,0,1,190.33,73.82Z"/><path class="cls-10" d="M111.36,86.08V186h123V86.08C234.34,86.18,111.46,86.08,111.36,86.08ZM128.65,70.8,117.12,63V82.24h11.53V70.8ZM228.57,63,217,70.71V82.24h11.53Z"/><path class="cls-9" d="M128.65,86.08V70.71L111.26,86.08ZM217,70.71V86.08h17.49Z"/><path class="cls-8" d="M138.65,108.18a5.33,5.33,0,0,0-5.28,5.28,5.27,5.27,0,0,0,5.28,5.28,5.33,5.33,0,0,0,5.28-5.28A5.21,5.21,0,0,0,138.65,108.18Zm64.37,0a5.33,5.33,0,0,0-5.28,5.28,5.27,5.27,0,0,0,5.28,5.28,5.33,5.33,0,0,0,5.28-5.28A5.21,5.21,0,0,0,203,108.18Z"/><path class="cls-9" d="M170.93,152.37c-19.12,0-34.59-16.91-34.59-37.76a2.41,2.41,0,1,1,4.8,0c0,18,13.35,32.47,29.78,32.47s29.78-14.6,29.78-32.47a2.41,2.41,0,1,1,4.8,0C205.51,135.46,190,152.37,170.93,152.37Z"/><path class="cls-11" d="M170.93,149.39a34.77,34.77,0,0,1-34.59-35,2.4,2.4,0,0,1,4.8,0,29.79,29.79,0,1,0,59.57,0,2.4,2.4,0,0,1,4.8,0A34.83,34.83,0,0,1,170.93,149.39Z"/><path class="cls-9" d="M142.22,57.06l5.53,3.57a1,1,0,0,0,.9.08l6.07-2.53A1,1,0,0,1,156,59.31l-1.68,6.36a1,1,0,0,0,.2.88l4.29,5a1,1,0,0,1-.68,1.6l-6.57.36a1,1,0,0,0-.77.46l-3.42,5.62a1,1,0,0,1-1.73-.15l-2.38-6.14a1,1,0,0,0-.68-.59l-6.4-1.52a1,1,0,0,1-.39-1.69l5.1-4.16a1,1,0,0,0,.35-.83l-.53-6.56A1,1,0,0,1,142.22,57.06Z"/><path class="cls-9" d="M205.34,22.65,207,30.88a1.23,1.23,0,0,0,.73.89l7.72,3.29a1.23,1.23,0,0,1,.12,2.21l-7.31,4.13a1.23,1.23,0,0,0-.62,1l-.75,8.36a1.23,1.23,0,0,1-2.07.8l-6.18-5.68a1.23,1.23,0,0,0-1.11-.29l-8.18,1.87a1.23,1.23,0,0,1-1.4-1.72l3.49-7.64a1.23,1.23,0,0,0-.06-1.15l-4.31-7.2a1.23,1.23,0,0,1,1.2-1.86l8.34,1a1.23,1.23,0,0,0,1.07-.42l5.52-6.33A1.23,1.23,0,0,1,205.34,22.65Z"/><path id="_Path_" data-name="&lt;Path&gt;" class="cls-8" d="M91.06,71.67a5.43,5.43,0,1,1-5.43-5.43,5.43,5.43,0,0,1,5.43,5.43"/><path id="_Path_2" data-name="&lt;Path&gt;" class="cls-8" d="M264.57,71.67a5.43,5.43,0,1,1-5.43-5.43,5.43,5.43,0,0,1,5.43,5.43"/><path id="_Path_3" data-name="&lt;Path&gt;" class="cls-8" d="M152.68,28a5.43,5.43,0,1,1-5.43-5.43A5.43,5.43,0,0,1,152.68,28"/></g></g></svg>