<?xml version="1.0" encoding="UTF-8"?>
<svg width="162px" height="64px" viewBox="0 0 162 64" version="1.1" xmlns="http://www.w3.org/2000/svg" xmlns:xlink="http://www.w3.org/1999/xlink">
    <!-- Generator: Sketch 42 (36781) - http://www.bohemiancoding.com/sketch -->
    <title>Page 1 Copy@2x</title>
    <desc>Created with Sketch.</desc>
    <defs></defs>
    <g id="Page-1" stroke="none" stroke-width="1" fill="none" fill-rule="evenodd">
        <g id="ComingSoon" transform="translate(-150.000000, -1240.000000)" fill="#00FFC2">
            <path d="M163.56483,1249.05559 L163.56483,1278.9206 L159.028754,1278.9206 L159.028754,1285.07264 L173.87212,1285.07264 L173.87212,1278.9206 L169.361603,1278.9206 L169.361603,1249.05559 L163.56483,1249.05559 L163.56483,1251.61149 L163.56483,1249.05559 Z M294.270799,1249.05559 L286.805026,1256.50667 L301.737849,1256.50667 L294.270799,1249.05559 Z M232.954213,1249 L232.954213,1255.2875 C240.905606,1256.59101 246.951578,1263.421 246.951578,1271.74364 C246.951578,1280.06244 240.905606,1286.8656 232.954213,1288.16016 L232.954213,1294.5039 C244.31581,1293.1448 253.177741,1283.44134 253.177741,1271.74364 C253.177741,1260.05617 244.31581,1250.35718 232.954213,1249 L232.954213,1249 Z M227.694818,1249.16869 C216.343445,1250.53034 207.481514,1260.23061 207.481514,1271.9168 C207.481514,1283.60428 216.343445,1293.30646 227.694818,1294.663 L227.694818,1288.38764 C219.751732,1287.08732 213.69362,1280.24263 213.69362,1271.9168 C213.69362,1263.59481 219.751732,1256.80571 227.694818,1255.50603 L227.694818,1249.16869 Z M191.209402,1258.3533 C184.924454,1258.3533 179.724483,1263.46254 179.724483,1269.73598 L179.724483,1285.06497 L185.600488,1285.06497 L185.600488,1269.73598 C185.600488,1266.60757 188.07204,1264.13921 191.209402,1264.13921 C194.337819,1264.13921 196.812565,1266.60757 196.812565,1269.73598 L196.812565,1285.06497 L202.634896,1285.06497 L202.634896,1269.73598 C202.634896,1263.46254 197.498823,1258.3533 191.209402,1258.3533 L191.209402,1258.3533 Z M258.097841,1258.47598 L258.097841,1273.79666 C258.097841,1280.08353 263.239665,1285.18702 269.524613,1285.18702 C275.819146,1285.18702 281.012727,1280.08097 281.012727,1273.79666 L281.012727,1258.47598 L275.132249,1258.47598 L275.132249,1273.79666 C275.132249,1276.92764 272.663254,1279.39152 269.524613,1279.39152 C266.393002,1279.39152 263.923367,1276.91933 263.923367,1273.79666 L263.923367,1258.47598 L258.097841,1258.47598 Z M286.8587,1258.49835 L286.8587,1264.61972 L291.368579,1264.61972 L291.368579,1294.48792 L297.168546,1294.48792 L297.168546,1264.61972 L301.702067,1264.61972 L301.702067,1258.49835 L286.8587,1258.49835 Z M159,1287.03365 L166.467689,1294.48792 L173.923877,1287.03365 L159,1287.03365 Z" id="Page-1-Copy"></path>
        </g>
    </g>
</svg>