<?xml version="1.0" encoding="UTF-8"?>
<svg width="59px" height="23px" viewBox="0 0 59 23" version="1.1" xmlns="http://www.w3.org/2000/svg" xmlns:xlink="http://www.w3.org/1999/xlink">
    <!-- Generator: Sketch 42 (36781) - http://www.bohemiancoding.com/sketch -->
    <title>Page 1@2x</title>
    <desc>Created with Sketch.</desc>
    <defs></defs>
    <g id="Page-1" stroke="none" stroke-width="1" fill="none" fill-rule="evenodd">
        <g id="ComingSoon" transform="translate(-71.000000, -2163.000000)" fill="#00FFC2">
            <path d="M75.6949675,2166.02064 L75.6949675,2177.10982 L74.0106766,2177.10982 L74.0106766,2179.39413 L79.5221679,2179.39413 L79.5221679,2177.10982 L77.8473673,2177.10982 L77.8473673,2166.02064 L75.6949675,2166.02064 L75.6949675,2166.96967 L75.6949675,2166.02064 Z M124.227409,2166.02064 L121.455293,2168.7873 L127,2168.7873 L124.227409,2166.02064 Z M101.459944,2166 L101.459944,2168.33461 C104.412376,2168.81862 106.657306,2171.35466 106.657306,2174.44494 C106.657306,2177.5338 104.412376,2180.05988 101.459944,2180.54056 L101.459944,2182.89605 C105.678619,2182.39141 108.969143,2178.78842 108.969143,2174.44494 C108.969143,2170.10527 105.678619,2166.50393 101.459944,2166 L101.459944,2166 Z M99.5070774,2166.06264 C95.2921983,2166.56823 92.0016742,2170.17004 92.0016742,2174.50924 C92.0016742,2178.84892 95.2921983,2182.45143 99.5070774,2182.95513 L99.5070774,2180.62503 C96.5577297,2180.14221 94.3082915,2177.6007 94.3082915,2174.50924 C94.3082915,2171.4192 96.5577297,2168.89834 99.5070774,2168.41576 L99.5070774,2166.06264 Z M85.9596752,2169.47298 C83.6260106,2169.47298 81.6952092,2171.37009 81.6952092,2173.69948 L81.6952092,2179.39129 L83.877029,2179.39129 L83.877029,2173.69948 C83.877029,2172.53787 84.7947409,2171.62134 85.9596752,2171.62134 C87.1212878,2171.62134 88.040186,2172.53787 88.040186,2173.69948 L88.040186,2179.39129 L90.2020762,2179.39129 L90.2020762,2173.69948 C90.2020762,2171.37009 88.2950006,2169.47298 85.9596752,2169.47298 L85.9596752,2169.47298 Z M110.796026,2169.51853 L110.796026,2175.20725 C110.796026,2177.54163 112.705237,2179.4366 115.038901,2179.4366 C117.376125,2179.4366 119.304554,2177.54068 119.304554,2175.20725 L119.304554,2169.51853 L117.121073,2169.51853 L117.121073,2175.20725 C117.121073,2176.36981 116.20431,2177.28468 115.038901,2177.28468 C113.876102,2177.28468 112.959102,2176.36673 112.959102,2175.20725 L112.959102,2169.51853 L110.796026,2169.51853 Z M121.475222,2169.52683 L121.475222,2171.79976 L123.149786,2171.79976 L123.149786,2182.89012 L125.303372,2182.89012 L125.303372,2171.79976 L126.986714,2171.79976 L126.986714,2169.52683 L121.475222,2169.52683 Z M74,2180.12228 L76.7728282,2182.89012 L79.5413858,2180.12228 L74,2180.12228 Z" id="Page-1"></path>
        </g>
    </g>
</svg>